Kaisei-Shared-ExtraBold.ufo
<glyph name="exclam" format="2">
  <advance height="1000" width="400"/>
  <unicode hex="0021"/>
  <note>
cid00002
</note>
  <outline>
    <contour>
      <point x="281" y="56" type="curve" smooth="yes"/>
      <point x="281" y="99"/>
      <point x="242" y="132"/>
      <point x="200" y="132" type="curve" smooth="yes"/>
      <point x="157" y="132"/>
      <point x="119" y="99"/>
      <point x="119" y="56" type="curve" smooth="yes"/>
      <point x="119" y="13"/>
      <point x="157" y="-19"/>
      <point x="200" y="-19" type="curve" smooth="yes"/>
      <point x="243" y="-19"/>
      <point x="281" y="13"/>
    </contour>
    <contour>
      <point x="284" y="691" type="curve" smooth="yes"/>
      <point x="284" y="730"/>
      <point x="235" y="758"/>
      <point x="200" y="758" type="curve" smooth="yes"/>
      <point x="163" y="758"/>
      <point x="117" y="732"/>
      <point x="117" y="691" type="curve" smooth="yes"/>
      <point x="117" y="665"/>
      <point x="123" y="639"/>
      <point x="127" y="613" type="curve" smooth="yes"/>
      <point x="149" y="472"/>
      <point x="168" y="331"/>
      <point x="179" y="189" type="curve"/>
      <point x="220" y="189" type="line"/>
      <point x="238" y="331"/>
      <point x="256" y="472"/>
      <point x="275" y="613" type="curve" smooth="yes"/>
      <point x="278" y="639"/>
      <point x="284" y="665"/>
    </contour>
  </outline>
</glyph>
<glyph name="quotedbl" format="2">
  <advance height="1000" width="390"/>
  <unicode hex="0022"/>
  <note>
cid00003
</note>
  <outline>
    <contour>
      <point x="172" y="739" type="curve" smooth="yes"/>
      <point x="172" y="766"/>
      <point x="147" y="786"/>
      <point x="121" y="786" type="curve" smooth="yes"/>
      <point x="92" y="786"/>
      <point x="70" y="769"/>
      <point x="70" y="739" type="curve" smooth="yes"/>
      <point x="70" y="700"/>
      <point x="76" y="660"/>
      <point x="82" y="621" type="curve" smooth="yes"/>
      <point x="87" y="586"/>
      <point x="91" y="548"/>
      <point x="98" y="513" type="curve" smooth="yes"/>
      <point x="101" y="500"/>
      <point x="105" y="486"/>
      <point x="121" y="486" type="curve" smooth="yes"/>
      <point x="130" y="486"/>
      <point x="142" y="505"/>
      <point x="144" y="513" type="curve" smooth="yes"/>
      <point x="150" y="533"/>
      <point x="153" y="570"/>
      <point x="156" y="591" type="curve" smooth="yes"/>
      <point x="163" y="640"/>
      <point x="172" y="691"/>
    </contour>
    <contour>
      <point x="320" y="739" type="curve" smooth="yes"/>
      <point x="320" y="766"/>
      <point x="295" y="786"/>
      <point x="269" y="786" type="curve" smooth="yes"/>
      <point x="240" y="786"/>
      <point x="218" y="769"/>
      <point x="218" y="739" type="curve" smooth="yes"/>
      <point x="218" y="700"/>
      <point x="224" y="660"/>
      <point x="230" y="621" type="curve" smooth="yes"/>
      <point x="235" y="586"/>
      <point x="239" y="548"/>
      <point x="246" y="513" type="curve" smooth="yes"/>
      <point x="249" y="500"/>
      <point x="253" y="486"/>
      <point x="269" y="486" type="curve" smooth="yes"/>
      <point x="283" y="486"/>
      <point x="289" y="502"/>
      <point x="292" y="513" type="curve" smooth="yes"/>
      <point x="300" y="543"/>
      <point x="303" y="578"/>
      <point x="307" y="609" type="curve" smooth="yes"/>
      <point x="312" y="652"/>
      <point x="320" y="696"/>
    </contour>
  </outline>
</glyph>
<glyph name="numbersign" format="2">
  <advance height="1000" width="780"/>
  <unicode hex="0023"/>
  <note>
cid00004
</note>
  <outline>
    <contour>
      <point x="486" y="484" type="line"/>
      <point x="458" y="327" type="line"/>
      <point x="301" y="327" type="line"/>
      <point x="329" y="484" type="line"/>
    </contour>
    <contour>
      <point x="713" y="573" type="line"/>
      <point x="569" y="573" type="line"/>
      <point x="603" y="773" type="line"/>
      <point x="537" y="773" type="line"/>
      <point x="501" y="573" type="line"/>
      <point x="346" y="573" type="line"/>
      <point x="381" y="773" type="line"/>
      <point x="314" y="773" type="line"/>
      <point x="279" y="573" type="line"/>
      <point x="127" y="573" type="line"/>
      <point x="109" y="484" type="line"/>
      <point x="263" y="484" type="line"/>
      <point x="236" y="327" type="line"/>
      <point x="85" y="327" type="line"/>
      <point x="67" y="237" type="line"/>
      <point x="220" y="237" type="line"/>
      <point x="171" y="-19" type="line"/>
      <point x="238" y="-19" type="line"/>
      <point x="285" y="237" type="line"/>
      <point x="442" y="237" type="line"/>
      <point x="396" y="-19" type="line"/>
      <point x="464" y="-19" type="line"/>
      <point x="509" y="237" type="line"/>
      <point x="653" y="237" type="line"/>
      <point x="671" y="327" type="line"/>
      <point x="525" y="327" type="line"/>
      <point x="553" y="484" type="line"/>
      <point x="695" y="484" type="line"/>
    </contour>
  </outline>
</glyph>
<glyph name="dollar" format="2">
  <advance height="1000" width="700"/>
  <unicode hex="0024"/>
  <note>
cid00005
</note>
  <outline>
    <contour>
      <point x="471" y="174" type="curve" smooth="yes"/>
      <point x="471" y="109"/>
      <point x="444" y="71"/>
      <point x="383" y="46" type="curve"/>
      <point x="383" y="302" type="line"/>
      <point x="433" y="271"/>
      <point x="471" y="236"/>
    </contour>
    <contour>
      <point x="311" y="685" type="curve"/>
      <point x="311" y="455" type="line"/>
      <point x="268" y="484"/>
      <point x="229" y="516"/>
      <point x="229" y="571" type="curve" smooth="yes"/>
      <point x="229" y="630"/>
      <point x="254" y="666"/>
    </contour>
    <contour>
      <point x="606" y="187" type="curve" smooth="yes"/>
      <point x="606" y="322"/>
      <point x="490" y="367"/>
      <point x="383" y="416" type="curve"/>
      <point x="383" y="682" type="line"/>
      <point x="426" y="663"/>
      <point x="463" y="631"/>
      <point x="476" y="586" type="curve" smooth="yes"/>
      <point x="478" y="578"/>
      <point x="486" y="533"/>
      <point x="487" y="532" type="curve"/>
      <point x="495" y="519"/>
      <point x="507" y="517"/>
      <point x="521" y="517" type="curve" smooth="yes"/>
      <point x="540" y="517"/>
      <point x="568" y="522"/>
      <point x="568" y="546" type="curve" smooth="yes"/>
      <point x="568" y="551"/>
      <point x="566" y="556"/>
      <point x="565" y="562" type="curve" smooth="yes"/>
      <point x="556" y="601"/>
      <point x="555" y="641"/>
      <point x="551" y="681" type="curve"/>
      <point x="526" y="682"/>
      <point x="502" y="685"/>
      <point x="479" y="694" type="curve" smooth="yes"/>
      <point x="447" y="705"/>
      <point x="417" y="718"/>
      <point x="383" y="721" type="curve"/>
      <point x="383" y="788" type="line"/>
      <point x="311" y="788" type="line"/>
      <point x="311" y="722" type="line"/>
      <point x="203" y="710"/>
      <point x="106" y="654"/>
      <point x="106" y="537" type="curve" smooth="yes"/>
      <point x="106" y="433"/>
      <point x="230" y="379"/>
      <point x="311" y="341" type="curve"/>
      <point x="311" y="38" type="line"/>
      <point x="245" y="48"/>
      <point x="207" y="78"/>
      <point x="187" y="141" type="curve" smooth="yes"/>
      <point x="182" y="156"/>
      <point x="181" y="172"/>
      <point x="176" y="187" type="curve" smooth="yes"/>
      <point x="167" y="213"/>
      <point x="150" y="216"/>
      <point x="125" y="216" type="curve" smooth="yes"/>
      <point x="111" y="216"/>
      <point x="98" y="212"/>
      <point x="98" y="196" type="curve" smooth="yes"/>
      <point x="98" y="145"/>
      <point x="113" y="96"/>
      <point x="120" y="46" type="curve"/>
      <point x="150" y="39"/>
      <point x="177" y="24"/>
      <point x="205" y="14" type="curve" smooth="yes"/>
      <point x="239" y="1"/>
      <point x="275" y="-3"/>
      <point x="311" y="-4" type="curve"/>
      <point x="311" y="-76" type="line"/>
      <point x="383" y="-76" type="line"/>
      <point x="383" y="-2" type="line"/>
      <point x="495" y="11"/>
      <point x="606" y="60"/>
    </contour>
  </outline>
</glyph>
<glyph name="percent" format="2">
  <advance height="1000" width="886"/>
  <unicode hex="0025"/>
  <note>
cid00006
</note>
  <outline>
    <contour>
      <point x="303" y="535" type="curve" smooth="yes"/>
      <point x="303" y="522"/>
      <point x="303" y="506"/>
      <point x="302" y="489" type="curve" smooth="yes"/>
      <point x="301" y="471"/>
      <point x="299" y="453"/>
      <point x="294" y="437" type="curve" smooth="yes"/>
      <point x="285" y="403"/>
      <point x="267" y="377"/>
      <point x="231" y="377" type="curve" smooth="yes"/>
      <point x="174" y="377"/>
      <point x="161" y="489"/>
      <point x="161" y="532" type="curve" smooth="yes"/>
      <point x="161" y="544"/>
      <point x="161" y="561"/>
      <point x="162" y="579" type="curve" smooth="yes"/>
      <point x="163" y="597"/>
      <point x="165" y="617"/>
      <point x="170" y="635" type="curve" smooth="yes"/>
      <point x="179" y="671"/>
      <point x="196" y="700"/>
      <point x="231" y="700" type="curve" smooth="yes"/>
      <point x="302" y="700"/>
      <point x="303" y="586"/>
    </contour>
    <contour>
      <point x="724" y="189" type="curve" smooth="yes"/>
      <point x="724" y="176"/>
      <point x="724" y="160"/>
      <point x="723" y="143" type="curve" smooth="yes"/>
      <point x="722" y="125"/>
      <point x="720" y="107"/>
      <point x="715" y="91" type="curve" smooth="yes"/>
      <point x="706" y="57"/>
      <point x="688" y="31"/>
      <point x="652" y="31" type="curve" smooth="yes"/>
      <point x="595" y="31"/>
      <point x="582" y="143"/>
      <point x="582" y="186" type="curve" smooth="yes"/>
      <point x="582" y="198"/>
      <point x="582" y="215"/>
      <point x="583" y="233" type="curve" smooth="yes"/>
      <point x="584" y="251"/>
      <point x="586" y="271"/>
      <point x="591" y="289" type="curve" smooth="yes"/>
      <point x="600" y="325"/>
      <point x="617" y="354"/>
      <point x="652" y="354" type="curve" smooth="yes"/>
      <point x="723" y="354"/>
      <point x="724" y="240"/>
    </contour>
    <contour>
      <point x="421" y="532" type="curve" smooth="yes"/>
      <point x="421" y="639"/>
      <point x="348" y="737"/>
      <point x="231" y="737" type="curve" smooth="yes"/>
      <point x="127" y="737"/>
      <point x="44" y="627"/>
      <point x="44" y="532" type="curve" smooth="yes"/>
      <point x="44" y="431"/>
      <point x="123" y="338"/>
      <point x="231" y="338" type="curve" smooth="yes"/>
      <point x="333" y="338"/>
      <point x="421" y="435"/>
    </contour>
    <contour>
      <point x="779" y="710" type="line"/>
      <point x="741" y="739" type="line"/>
      <point x="110" y="6" type="line"/>
      <point x="149" y="-22" type="line"/>
    </contour>
    <contour>
      <point x="842" y="186" type="curve" smooth="yes"/>
      <point x="842" y="293"/>
      <point x="769" y="391"/>
      <point x="652" y="391" type="curve" smooth="yes"/>
      <point x="548" y="391"/>
      <point x="465" y="281"/>
      <point x="465" y="186" type="curve" smooth="yes"/>
      <point x="465" y="85"/>
      <point x="544" y="-8"/>
      <point x="652" y="-8" type="curve" smooth="yes"/>
      <point x="754" y="-8"/>
      <point x="842" y="89"/>
    </contour>
  </outline>
</glyph>
<glyph name="ampersand" format="2">
  <advance height="1000" width="758"/>
  <unicode hex="0026"/>
  <note>
cid00007
</note>
  <outline>
    <contour>
      <point x="438" y="81" type="curve"/>
      <point x="398" y="52"/>
      <point x="355" y="46"/>
      <point x="306" y="46" type="curve" smooth="yes"/>
      <point x="213" y="46"/>
      <point x="163" y="126"/>
      <point x="163" y="210" type="curve" smooth="yes"/>
      <point x="163" y="261"/>
      <point x="185" y="318"/>
      <point x="216" y="359" type="curve"/>
      <point x="254" y="263"/>
      <point x="349" y="137"/>
    </contour>
    <contour>
      <point x="385" y="635" type="curve" smooth="yes"/>
      <point x="385" y="577"/>
      <point x="330" y="516"/>
      <point x="287" y="480" type="curve"/>
      <point x="271" y="513"/>
      <point x="262" y="551"/>
      <point x="262" y="588" type="curve" smooth="yes"/>
      <point x="262" y="635"/>
      <point x="288" y="692"/>
      <point x="343" y="692" type="curve" smooth="yes"/>
      <point x="368" y="692"/>
      <point x="385" y="656"/>
    </contour>
    <contour>
      <point x="766" y="59" type="curve"/>
      <point x="747" y="50"/>
      <point x="726" y="41"/>
      <point x="704" y="41" type="curve" smooth="yes"/>
      <point x="652" y="41"/>
      <point x="591" y="71"/>
      <point x="552" y="104" type="curve"/>
      <point x="605" y="157"/>
      <point x="627" y="215"/>
      <point x="627" y="289" type="curve" smooth="yes"/>
      <point x="627" y="329"/>
      <point x="585" y="372"/>
      <point x="549" y="385" type="curve"/>
      <point x="582" y="388"/>
      <point x="616" y="392"/>
      <point x="650" y="392" type="curve" smooth="yes"/>
      <point x="658" y="392"/>
      <point x="674" y="390"/>
      <point x="682" y="392" type="curve" smooth="yes"/>
      <point x="695" y="395"/>
      <point x="698" y="400"/>
      <point x="705" y="412" type="curve" smooth="yes"/>
      <point x="711" y="421"/>
      <point x="736" y="479"/>
      <point x="736" y="488" type="curve" smooth="yes"/>
      <point x="736" y="501"/>
      <point x="726" y="507"/>
      <point x="713" y="507" type="curve" smooth="yes"/>
      <point x="700" y="507"/>
      <point x="663" y="461"/>
      <point x="650" y="450" type="curve" smooth="yes"/>
      <point x="636" y="440"/>
      <point x="622" y="434"/>
      <point x="606" y="430" type="curve" smooth="yes"/>
      <point x="565" y="420"/>
      <point x="521" y="419"/>
      <point x="480" y="419" type="curve" smooth="yes"/>
      <point x="461" y="419"/>
      <point x="457" y="397"/>
      <point x="457" y="383" type="curve" smooth="yes"/>
      <point x="457" y="375"/>
      <point x="463" y="374"/>
      <point x="469" y="374" type="curve" smooth="yes"/>
      <point x="475" y="374"/>
      <point x="480" y="375"/>
      <point x="486" y="375" type="curve" smooth="yes"/>
      <point x="518" y="375"/>
      <point x="527" y="307"/>
      <point x="527" y="284" type="curve" smooth="yes"/>
      <point x="527" y="240"/>
      <point x="522" y="188"/>
      <point x="499" y="149" type="curve"/>
      <point x="422" y="219"/>
      <point x="347" y="336"/>
      <point x="307" y="430" type="curve"/>
      <point x="322" y="442"/>
      <point x="338" y="452"/>
      <point x="354" y="461" type="curve" smooth="yes"/>
      <point x="415" y="494"/>
      <point x="499" y="545"/>
      <point x="499" y="622" type="curve" smooth="yes"/>
      <point x="499" y="694"/>
      <point x="428" y="731"/>
      <point x="362" y="731" type="curve" smooth="yes"/>
      <point x="300" y="731"/>
      <point x="236" y="712"/>
      <point x="196" y="663" type="curve" smooth="yes"/>
      <point x="171" y="632"/>
      <point x="155" y="592"/>
      <point x="155" y="552" type="curve" smooth="yes"/>
      <point x="155" y="504"/>
      <point x="168" y="457"/>
      <point x="186" y="413" type="curve"/>
      <point x="109" y="359"/>
      <point x="40" y="277"/>
      <point x="40" y="180" type="curve" smooth="yes"/>
      <point x="40" y="58"/>
      <point x="151" y="-7"/>
      <point x="265" y="-7" type="curve" smooth="yes"/>
      <point x="344" y="-7"/>
      <point x="417" y="7"/>
      <point x="483" y="51" type="curve"/>
      <point x="528" y="11"/>
      <point x="596" y="-12"/>
      <point x="658" y="-12" type="curve" smooth="yes"/>
      <point x="700" y="-12"/>
      <point x="765" y="9"/>
    </contour>
  </outline>
</glyph>
<glyph name="quotesingle" format="2">
  <advance height="1000" width="280"/>
  <unicode hex="0027"/>
  <note>
cid00008
</note>
  <outline>
    <contour>
      <point x="191" y="739" type="curve" smooth="yes"/>
      <point x="191" y="766"/>
      <point x="166" y="786"/>
      <point x="140" y="786" type="curve" smooth="yes"/>
      <point x="111" y="786"/>
      <point x="89" y="769"/>
      <point x="89" y="739" type="curve" smooth="yes"/>
      <point x="89" y="700"/>
      <point x="95" y="660"/>
      <point x="101" y="621" type="curve" smooth="yes"/>
      <point x="106" y="586"/>
      <point x="110" y="548"/>
      <point x="117" y="513" type="curve" smooth="yes"/>
      <point x="120" y="500"/>
      <point x="124" y="486"/>
      <point x="140" y="486" type="curve" smooth="yes"/>
      <point x="154" y="486"/>
      <point x="160" y="502"/>
      <point x="163" y="513" type="curve" smooth="yes"/>
      <point x="171" y="543"/>
      <point x="174" y="578"/>
      <point x="178" y="609" type="curve" smooth="yes"/>
      <point x="183" y="652"/>
      <point x="191" y="696"/>
    </contour>
  </outline>
</glyph>
<glyph name="parenleft" format="2">
  <advance height="1000" width="450"/>
  <unicode hex="0028"/>
  <note>
cid00009
</note>
  <outline>
    <contour>
      <point x="411" y="-110" type="curve"/>
      <point x="426" y="-78" type="line"/>
      <point x="398" y="-58"/>
      <point x="375" y="-32"/>
      <point x="355" y="-5" type="curve" smooth="yes"/>
      <point x="279" y="102"/>
      <point x="255" y="245"/>
      <point x="255" y="373" type="curve" smooth="yes"/>
      <point x="255" y="508"/>
      <point x="280" y="660"/>
      <point x="358" y="774" type="curve" smooth="yes"/>
      <point x="377" y="802"/>
      <point x="398" y="828"/>
      <point x="426" y="848" type="curve"/>
      <point x="410" y="880" type="line"/>
      <point x="220" y="761"/>
      <point x="125" y="595"/>
      <point x="125" y="373" type="curve" smooth="yes"/>
      <point x="125" y="160"/>
      <point x="221" y="-3"/>
    </contour>
  </outline>
</glyph>
<glyph name="parenright" format="2">
  <advance height="1000" width="450"/>
  <unicode hex="0029"/>
  <note>
cid00010
</note>
  <outline>
    <contour>
      <point x="330" y="373" type="curve" smooth="yes"/>
      <point x="330" y="595"/>
      <point x="235" y="761"/>
      <point x="45" y="880" type="curve"/>
      <point x="29" y="848" type="line"/>
      <point x="54" y="829"/>
      <point x="75" y="805"/>
      <point x="93" y="780" type="curve" smooth="yes"/>
      <point x="175" y="664"/>
      <point x="199" y="511"/>
      <point x="199" y="373" type="curve" smooth="yes"/>
      <point x="199" y="222"/>
      <point x="162" y="18"/>
      <point x="29" y="-78" type="curve"/>
      <point x="44" y="-110" type="line"/>
      <point x="234" y="-4"/>
      <point x="330" y="161"/>
    </contour>
  </outline>
</glyph>
<glyph name="asterisk" format="2">
  <advance height="1000" width="450"/>
  <unicode hex="002A"/>
  <note>
cid00011
</note>
  <outline>
    <contour>
      <point x="399" y="538" type="curve" smooth="yes"/>
      <point x="399" y="552"/>
      <point x="390" y="566"/>
      <point x="378" y="573" type="curve" smooth="yes"/>
      <point x="363" y="581"/>
      <point x="263" y="604"/>
      <point x="238" y="610" type="curve"/>
      <point x="284" y="623"/>
      <point x="333" y="634"/>
      <point x="378" y="649" type="curve" smooth="yes"/>
      <point x="393" y="654"/>
      <point x="398" y="666"/>
      <point x="398" y="681" type="curve" smooth="yes"/>
      <point x="398" y="704"/>
      <point x="381" y="729"/>
      <point x="356" y="729" type="curve" smooth="yes"/>
      <point x="349" y="729"/>
      <point x="342" y="727"/>
      <point x="336" y="724" type="curve" smooth="yes"/>
      <point x="325" y="718"/>
      <point x="250" y="641"/>
      <point x="234" y="624" type="curve"/>
      <point x="240" y="648"/>
      <point x="270" y="751"/>
      <point x="270" y="764" type="curve" smooth="yes"/>
      <point x="270" y="786"/>
      <point x="246" y="799"/>
      <point x="226" y="799" type="curve" smooth="yes"/>
      <point x="203" y="799"/>
      <point x="182" y="789"/>
      <point x="182" y="764" type="curve" smooth="yes"/>
      <point x="182" y="742"/>
      <point x="210" y="652"/>
      <point x="218" y="623" type="curve"/>
      <point x="194" y="645"/>
      <point x="172" y="668"/>
      <point x="150" y="690" type="curve" smooth="yes"/>
      <point x="139" y="700"/>
      <point x="129" y="712"/>
      <point x="118" y="721" type="curve" smooth="yes"/>
      <point x="113" y="725"/>
      <point x="106" y="728"/>
      <point x="100" y="728" type="curve" smooth="yes"/>
      <point x="75" y="728"/>
      <point x="52" y="704"/>
      <point x="52" y="680" type="curve" smooth="yes"/>
      <point x="52" y="667"/>
      <point x="58" y="657"/>
      <point x="68" y="651" type="curve" smooth="yes"/>
      <point x="81" y="643"/>
      <point x="186" y="617"/>
      <point x="211" y="610" type="curve"/>
      <point x="192" y="605"/>
      <point x="82" y="578"/>
      <point x="73" y="573" type="curve" smooth="yes"/>
      <point x="61" y="566"/>
      <point x="53" y="553"/>
      <point x="53" y="538" type="curve" smooth="yes"/>
      <point x="53" y="516"/>
      <point x="71" y="493"/>
      <point x="96" y="493" type="curve" smooth="yes"/>
      <point x="104" y="493"/>
      <point x="112" y="496"/>
      <point x="120" y="500" type="curve" smooth="yes"/>
      <point x="133" y="507"/>
      <point x="201" y="580"/>
      <point x="216" y="596" type="curve"/>
      <point x="211" y="577"/>
      <point x="182" y="474"/>
      <point x="182" y="463" type="curve" smooth="yes"/>
      <point x="182" y="438"/>
      <point x="200" y="421"/>
      <point x="226" y="421" type="curve" smooth="yes"/>
      <point x="251" y="421"/>
      <point x="270" y="437"/>
      <point x="270" y="463" type="curve" smooth="yes"/>
      <point x="270" y="476"/>
      <point x="241" y="575"/>
      <point x="234" y="597" type="curve"/>
      <point x="250" y="581"/>
      <point x="321" y="506"/>
      <point x="331" y="500" type="curve" smooth="yes"/>
      <point x="339" y="496"/>
      <point x="347" y="493"/>
      <point x="356" y="493" type="curve" smooth="yes"/>
      <point x="380" y="493"/>
      <point x="399" y="516"/>
    </contour>
  </outline>
</glyph>
<glyph name="plus" format="2">
  <advance height="1000" width="750"/>
  <unicode hex="002B"/>
  <note>
cid00012
</note>
  <outline>
    <contour>
      <point x="682" y="330" type="line"/>
      <point x="682" y="395" type="line"/>
      <point x="408" y="395" type="line"/>
      <point x="408" y="657" type="line"/>
      <point x="342" y="657" type="line"/>
      <point x="342" y="395" type="line"/>
      <point x="69" y="395" type="line"/>
      <point x="69" y="330" type="line"/>
      <point x="342" y="330" type="line"/>
      <point x="342" y="61" type="line"/>
      <point x="408" y="61" type="line"/>
      <point x="408" y="330" type="line"/>
    </contour>
  </outline>
</glyph>
<glyph name="comma" format="2">
  <advance height="1000" width="350"/>
  <unicode hex="002C"/>
  <note>
cid00013
</note>
  <outline>
    <contour>
      <point x="260" y="69" type="curve" smooth="yes"/>
      <point x="260" y="124"/>
      <point x="233" y="165"/>
      <point x="176" y="165" type="curve" smooth="yes"/>
      <point x="134" y="165"/>
      <point x="97" y="139"/>
      <point x="97" y="86" type="curve" smooth="yes"/>
      <point x="97" y="59"/>
      <point x="121" y="24"/>
      <point x="151" y="20" type="curve" smooth="yes"/>
      <point x="160" y="19"/>
      <point x="173" y="19"/>
      <point x="184" y="23" type="curve"/>
      <point x="180" y="-23"/>
      <point x="157" y="-79"/>
      <point x="136" y="-115" type="curve"/>
      <point x="169" y="-126" type="line"/>
      <point x="210" y="-84"/>
      <point x="260" y="6"/>
    </contour>
  </outline>
</glyph>
<glyph name="hyphen" format="2">
  <advance height="1000" width="400"/>
  <unicode hex="002D"/>
  <note>
cid00014
</note>
  <outline>
    <contour>
      <point x="332" y="281" type="line"/>
      <point x="332" y="362" type="line"/>
      <point x="69" y="362" type="line"/>
      <point x="69" y="281" type="line"/>
    </contour>
  </outline>
</glyph>
<glyph name="period" format="2">
  <advance height="1000" width="350"/>
  <unicode hex="002E"/>
  <note>
cid00015
</note>
  <outline>
    <contour>
      <point x="256" y="88" type="curve" smooth="yes"/>
      <point x="256" y="132"/>
      <point x="220" y="167"/>
      <point x="175" y="167" type="curve" smooth="yes"/>
      <point x="130" y="167"/>
      <point x="94" y="132"/>
      <point x="94" y="88" type="curve" smooth="yes"/>
      <point x="94" y="44"/>
      <point x="130" y="8"/>
      <point x="175" y="8" type="curve" smooth="yes"/>
      <point x="220" y="8"/>
      <point x="256" y="44"/>
    </contour>
  </outline>
</glyph>
<glyph name="zero" format="2">
  <advance height="1000" width="590"/>
  <unicode hex="0030"/>
  <note>
cid00017
</note>
  <outline>
    <contour>
      <point x="400" y="361" type="curve" smooth="yes"/>
      <point x="400" y="292"/>
      <point x="399" y="223"/>
      <point x="386" y="155" type="curve" smooth="yes"/>
      <point x="375" y="102"/>
      <point x="355" y="36"/>
      <point x="288" y="36" type="curve" smooth="yes"/>
      <point x="182" y="36"/>
      <point x="189" y="284"/>
      <point x="189" y="354" type="curve" smooth="yes"/>
      <point x="189" y="427"/>
      <point x="185" y="698"/>
      <point x="295" y="698" type="curve" smooth="yes"/>
      <point x="408" y="698"/>
      <point x="400" y="436"/>
    </contour>
    <contour>
      <point x="542" y="369" type="curve" smooth="yes"/>
      <point x="542" y="524"/>
      <point x="503" y="730"/>
      <point x="303" y="730" type="curve" smooth="yes"/>
      <point x="98" y="730"/>
      <point x="49" y="508"/>
      <point x="49" y="349" type="curve" smooth="yes"/>
      <point x="49" y="204"/>
      <point x="96" y="3"/>
      <point x="283" y="3" type="curve" smooth="yes"/>
      <point x="484" y="3"/>
      <point x="542" y="208"/>
    </contour>
  </outline>
</glyph>
<glyph name="one" format="2">
  <advance height="1000" width="590"/>
  <unicode hex="0031"/>
  <note>
cid00018
</note>
  <outline>
    <contour>
      <point x="493" y="19" type="curve" smooth="yes"/>
      <point x="493" y="28"/>
      <point x="485" y="39"/>
      <point x="475" y="39" type="curve" smooth="yes"/>
      <point x="456" y="39"/>
      <point x="438" y="38"/>
      <point x="419" y="38" type="curve" smooth="yes"/>
      <point x="407" y="38"/>
      <point x="396" y="51"/>
      <point x="396" y="62" type="curve" smooth="yes"/>
      <point x="396" y="283"/>
      <point x="399" y="504"/>
      <point x="399" y="725" type="curve" smooth="yes"/>
      <point x="399" y="740"/>
      <point x="387" y="744"/>
      <point x="373" y="744" type="curve" smooth="yes"/>
      <point x="369" y="744"/>
      <point x="318" y="726"/>
      <point x="311" y="724" type="curve" smooth="yes"/>
      <point x="259" y="705"/>
      <point x="207" y="689"/>
      <point x="154" y="674" type="curve" smooth="yes"/>
      <point x="141" y="671"/>
      <point x="126" y="668"/>
      <point x="114" y="663" type="curve" smooth="yes"/>
      <point x="99" y="658"/>
      <point x="97" y="650"/>
      <point x="97" y="636" type="curve" smooth="yes"/>
      <point x="97" y="621"/>
      <point x="110" y="613"/>
      <point x="124" y="613" type="curve" smooth="yes"/>
      <point x="135" y="613"/>
      <point x="231" y="647"/>
      <point x="251" y="654" type="curve"/>
      <point x="251" y="378" type="line" smooth="yes"/>
      <point x="251" y="273"/>
      <point x="249" y="167"/>
      <point x="249" y="61" type="curve" smooth="yes"/>
      <point x="249" y="40"/>
      <point x="234" y="38"/>
      <point x="216" y="38" type="curve" smooth="yes"/>
      <point x="202" y="38"/>
      <point x="187" y="39"/>
      <point x="173" y="39" type="curve" smooth="yes"/>
      <point x="162" y="39"/>
      <point x="149" y="33"/>
      <point x="149" y="21" type="curve" smooth="yes"/>
      <point x="149" y="6"/>
      <point x="155" y="-1"/>
      <point x="171" y="-1" type="curve" smooth="yes"/>
      <point x="184" y="-1"/>
      <point x="198" y="0"/>
      <point x="211" y="1" type="curve" smooth="yes"/>
      <point x="249" y="3"/>
      <point x="287" y="4"/>
      <point x="325" y="4" type="curve" smooth="yes"/>
      <point x="357" y="4"/>
      <point x="388" y="4"/>
      <point x="420" y="2" type="curve" smooth="yes"/>
      <point x="438" y="1"/>
      <point x="457" y="-1"/>
      <point x="475" y="-1" type="curve" smooth="yes"/>
      <point x="485" y="-1"/>
      <point x="493" y="10"/>
    </contour>
  </outline>
</glyph>
<glyph name="two" format="2">
  <advance height="1000" width="590"/>
  <unicode hex="0032"/>
  <note>
cid00019
</note>
  <outline>
    <contour>
      <point x="548" y="176" type="curve" smooth="yes"/>
      <point x="548" y="186"/>
      <point x="545" y="193"/>
      <point x="533" y="193" type="curve" smooth="yes"/>
      <point x="521" y="193"/>
      <point x="517" y="185"/>
      <point x="511" y="177" type="curve" smooth="yes"/>
      <point x="495" y="152"/>
      <point x="481" y="130"/>
      <point x="456" y="113" type="curve" smooth="yes"/>
      <point x="424" y="92"/>
      <point x="388" y="86"/>
      <point x="351" y="84" type="curve" smooth="yes"/>
      <point x="275" y="82"/>
      <point x="200" y="81"/>
      <point x="124" y="81" type="curve"/>
      <point x="153" y="138"/>
      <point x="196" y="180"/>
      <point x="247" y="218" type="curve" smooth="yes"/>
      <point x="368" y="308"/>
      <point x="525" y="380"/>
      <point x="525" y="553" type="curve" smooth="yes"/>
      <point x="525" y="666"/>
      <point x="419" y="727"/>
      <point x="313" y="727" type="curve" smooth="yes"/>
      <point x="203" y="727"/>
      <point x="52" y="672"/>
      <point x="52" y="545" type="curve" smooth="yes"/>
      <point x="52" y="518"/>
      <point x="83" y="488"/>
      <point x="110" y="488" type="curve" smooth="yes"/>
      <point x="133" y="488"/>
      <point x="185" y="499"/>
      <point x="185" y="528" type="curve" smooth="yes"/>
      <point x="185" y="562"/>
      <point x="189" y="608"/>
      <point x="207" y="638" type="curve" smooth="yes"/>
      <point x="226" y="669"/>
      <point x="257" y="692"/>
      <point x="295" y="692" type="curve" smooth="yes"/>
      <point x="362" y="692"/>
      <point x="376" y="598"/>
      <point x="376" y="549" type="curve" smooth="yes"/>
      <point x="376" y="477"/>
      <point x="342" y="414"/>
      <point x="292" y="362" type="curve" smooth="yes"/>
      <point x="233" y="299"/>
      <point x="169" y="241"/>
      <point x="115" y="174" type="curve" smooth="yes"/>
      <point x="72" y="119"/>
      <point x="44" y="76"/>
      <point x="42" y="4" type="curve"/>
      <point x="113" y="7"/>
      <point x="184" y="7"/>
      <point x="255" y="7" type="curve" smooth="yes"/>
      <point x="291" y="7"/>
      <point x="326" y="9"/>
      <point x="362" y="9" type="curve" smooth="yes"/>
      <point x="401" y="9"/>
      <point x="440" y="5"/>
      <point x="479" y="5" type="curve" smooth="yes"/>
      <point x="496" y="5"/>
      <point x="506" y="7"/>
      <point x="512" y="24" type="curve" smooth="yes"/>
      <point x="518" y="40"/>
      <point x="548" y="165"/>
    </contour>
  </outline>
</glyph>
<glyph name="three" format="2">
  <advance height="1000" width="590"/>
  <unicode hex="0033"/>
  <note>
cid00020
</note>
  <outline>
    <contour>
      <point x="540" y="252" type="curve" smooth="yes"/>
      <point x="540" y="361"/>
      <point x="461" y="394"/>
      <point x="364" y="406" type="curve"/>
      <point x="443" y="429"/>
      <point x="510" y="492"/>
      <point x="510" y="576" type="curve" smooth="yes"/>
      <point x="510" y="599"/>
      <point x="503" y="622"/>
      <point x="492" y="642" type="curve" smooth="yes"/>
      <point x="456" y="709"/>
      <point x="381" y="734"/>
      <point x="308" y="734" type="curve" smooth="yes"/>
      <point x="224" y="734"/>
      <point x="135" y="714"/>
      <point x="86" y="643" type="curve" smooth="yes"/>
      <point x="76" y="630"/>
      <point x="62" y="601"/>
      <point x="62" y="585" type="curve" smooth="yes"/>
      <point x="62" y="552"/>
      <point x="83" y="524"/>
      <point x="119" y="524" type="curve" smooth="yes"/>
      <point x="137" y="524"/>
      <point x="181" y="534"/>
      <point x="181" y="558" type="curve" smooth="yes"/>
      <point x="181" y="621"/>
      <point x="205" y="700"/>
      <point x="283" y="700" type="curve" smooth="yes"/>
      <point x="352" y="700"/>
      <point x="368" y="614"/>
      <point x="368" y="562" type="curve" smooth="yes"/>
      <point x="368" y="501"/>
      <point x="338" y="434"/>
      <point x="273" y="417" type="curve" smooth="yes"/>
      <point x="255" y="412"/>
      <point x="236" y="412"/>
      <point x="218" y="412" type="curve" smooth="yes"/>
      <point x="203" y="412"/>
      <point x="177" y="414"/>
      <point x="177" y="393" type="curve" smooth="yes"/>
      <point x="177" y="383"/>
      <point x="186" y="370"/>
      <point x="197" y="370" type="curve" smooth="yes"/>
      <point x="203" y="370"/>
      <point x="208" y="372"/>
      <point x="214" y="373" type="curve" smooth="yes"/>
      <point x="236" y="376"/>
      <point x="258" y="379"/>
      <point x="280" y="379" type="curve" smooth="yes"/>
      <point x="358" y="379"/>
      <point x="391" y="303"/>
      <point x="391" y="236" type="curve" smooth="yes"/>
      <point x="391" y="143"/>
      <point x="355" y="32"/>
      <point x="241" y="32" type="curve" smooth="yes"/>
      <point x="183" y="32"/>
      <point x="171" y="98"/>
      <point x="171" y="142" type="curve" smooth="yes"/>
      <point x="171" y="167"/>
      <point x="134" y="173"/>
      <point x="115" y="173" type="curve" smooth="yes"/>
      <point x="89" y="173"/>
      <point x="45" y="153"/>
      <point x="45" y="123" type="curve" smooth="yes"/>
      <point x="45" y="108"/>
      <point x="51" y="92"/>
      <point x="59" y="79" type="curve" smooth="yes"/>
      <point x="96" y="15"/>
      <point x="177" y="-3"/>
      <point x="248" y="-3" type="curve" smooth="yes"/>
      <point x="310" y="-3"/>
      <point x="373" y="10"/>
      <point x="426" y="43" type="curve" smooth="yes"/>
      <point x="494" y="87"/>
      <point x="540" y="173"/>
    </contour>
  </outline>
</glyph>
<glyph name="four" format="2">
  <advance height="1000" width="590"/>
  <unicode hex="0034"/>
  <note>
cid00021
</note>
  <outline>
    <contour>
      <point x="300" y="249" type="line"/>
      <point x="100" y="249" type="line"/>
      <point x="99" y="250" type="line"/>
      <point x="104" y="260"/>
      <point x="111" y="271"/>
      <point x="116" y="280" type="curve" smooth="yes"/>
      <point x="131" y="304"/>
      <point x="145" y="327"/>
      <point x="159" y="350" type="curve" smooth="yes"/>
      <point x="206" y="426"/>
      <point x="253" y="502"/>
      <point x="300" y="577" type="curve"/>
    </contour>
    <contour>
      <point x="569" y="306" type="curve" smooth="yes"/>
      <point x="569" y="312"/>
      <point x="567" y="320"/>
      <point x="559" y="320" type="curve" smooth="yes"/>
      <point x="555" y="320"/>
      <point x="551" y="320"/>
      <point x="549" y="316" type="curve"/>
      <point x="547" y="314"/>
      <point x="545" y="311"/>
      <point x="544" y="309" type="curve" smooth="yes"/>
      <point x="531" y="284"/>
      <point x="512" y="249"/>
      <point x="480" y="249" type="curve" smooth="yes"/>
      <point x="440" y="249" type="line"/>
      <point x="440" y="719" type="line" smooth="yes"/>
      <point x="440" y="736"/>
      <point x="424" y="738"/>
      <point x="410" y="738" type="curve" smooth="yes"/>
      <point x="393" y="738"/>
      <point x="377" y="737"/>
      <point x="360" y="737" type="curve" smooth="yes"/>
      <point x="345" y="737"/>
      <point x="333" y="731"/>
      <point x="325" y="718" type="curve" smooth="yes"/>
      <point x="258" y="608"/>
      <point x="192" y="498"/>
      <point x="124" y="388" type="curve" smooth="yes"/>
      <point x="91" y="336"/>
      <point x="56" y="284"/>
      <point x="26" y="230" type="curve" smooth="yes"/>
      <point x="23" y="224"/>
      <point x="21" y="219"/>
      <point x="21" y="213" type="curve" smooth="yes"/>
      <point x="21" y="201"/>
      <point x="30" y="196"/>
      <point x="41" y="196" type="curve" smooth="yes"/>
      <point x="299" y="196" type="line"/>
      <point x="299" y="155"/>
      <point x="299" y="114"/>
      <point x="299" y="73" type="curve" smooth="yes"/>
      <point x="299" y="49"/>
      <point x="294" y="37"/>
      <point x="268" y="37" type="curve" smooth="yes"/>
      <point x="259" y="37"/>
      <point x="250" y="39"/>
      <point x="241" y="39" type="curve" smooth="yes"/>
      <point x="223" y="39"/>
      <point x="205" y="39"/>
      <point x="205" y="17" type="curve" smooth="yes"/>
      <point x="205" y="5"/>
      <point x="215" y="-2"/>
      <point x="227" y="-2" type="curve" smooth="yes"/>
      <point x="243" y="-2"/>
      <point x="260" y="0"/>
      <point x="276" y="1" type="curve" smooth="yes"/>
      <point x="314" y="2"/>
      <point x="353" y="3"/>
      <point x="391" y="3" type="curve" smooth="yes"/>
      <point x="413" y="3"/>
      <point x="435" y="3"/>
      <point x="457" y="2" type="curve" smooth="yes"/>
      <point x="476" y="1"/>
      <point x="495" y="-2"/>
      <point x="514" y="-2" type="curve" smooth="yes"/>
      <point x="526" y="-2"/>
      <point x="532" y="6"/>
      <point x="532" y="17" type="curve" smooth="yes"/>
      <point x="532" y="27"/>
      <point x="525" y="39"/>
      <point x="514" y="39" type="curve" smooth="yes"/>
      <point x="496" y="39"/>
      <point x="479" y="38"/>
      <point x="461" y="38" type="curve" smooth="yes"/>
      <point x="433" y="38"/>
      <point x="440" y="81"/>
      <point x="440" y="98" type="curve" smooth="yes"/>
      <point x="439" y="196" type="line"/>
      <point x="539" y="196" type="line" smooth="yes"/>
      <point x="548" y="196"/>
      <point x="557" y="197"/>
      <point x="557" y="208" type="curve" smooth="yes"/>
      <point x="557" y="240"/>
      <point x="569" y="273"/>
    </contour>
  </outline>
</glyph>
<glyph name="five" format="2">
  <advance height="1000" width="590"/>
  <unicode hex="0035"/>
  <note>
cid00022
</note>
  <outline>
    <contour>
      <point x="542" y="257" type="curve" smooth="yes"/>
      <point x="542" y="363"/>
      <point x="448" y="465"/>
      <point x="337" y="465" type="curve" smooth="yes"/>
      <point x="277" y="465"/>
      <point x="229" y="458"/>
      <point x="178" y="425" type="curve"/>
      <point x="182" y="501"/>
      <point x="187" y="578"/>
      <point x="188" y="654" type="curve"/>
      <point x="239" y="654" type="line" smooth="yes"/>
      <point x="308" y="654"/>
      <point x="377" y="652"/>
      <point x="446" y="652" type="curve" smooth="yes"/>
      <point x="452" y="652"/>
      <point x="463" y="652"/>
      <point x="468" y="654" type="curve" smooth="yes"/>
      <point x="479" y="659"/>
      <point x="480" y="664"/>
      <point x="485" y="674" type="curve" smooth="yes"/>
      <point x="488" y="682"/>
      <point x="506" y="731"/>
      <point x="506" y="737" type="curve" smooth="yes"/>
      <point x="506" y="743"/>
      <point x="498" y="745"/>
      <point x="493" y="745" type="curve" smooth="yes"/>
      <point x="490" y="745"/>
      <point x="484" y="744"/>
      <point x="482" y="743" type="curve" smooth="yes"/>
      <point x="476" y="739"/>
      <point x="471" y="735"/>
      <point x="464" y="732" type="curve" smooth="yes"/>
      <point x="432" y="716"/>
      <point x="392" y="715"/>
      <point x="357" y="715" type="curve" smooth="yes"/>
      <point x="231" y="715" type="line" smooth="yes"/>
      <point x="184" y="715"/>
      <point x="137" y="720"/>
      <point x="90" y="726" type="curve"/>
      <point x="96" y="680"/>
      <point x="96" y="634"/>
      <point x="96" y="587" type="curve" smooth="yes"/>
      <point x="96" y="513"/>
      <point x="95" y="439"/>
      <point x="84" y="365" type="curve" smooth="yes"/>
      <point x="83" y="355"/>
      <point x="77" y="338"/>
      <point x="77" y="329" type="curve" smooth="yes"/>
      <point x="77" y="319"/>
      <point x="82" y="317"/>
      <point x="91" y="313" type="curve" smooth="yes"/>
      <point x="107" y="305"/>
      <point x="156" y="290"/>
      <point x="173" y="290" type="curve" smooth="yes"/>
      <point x="182" y="290"/>
      <point x="187" y="292"/>
      <point x="192" y="300" type="curve" smooth="yes"/>
      <point x="194" y="304"/>
      <point x="194" y="310"/>
      <point x="194" y="314" type="curve" smooth="yes"/>
      <point x="196" y="341"/>
      <point x="203" y="376"/>
      <point x="224" y="396" type="curve" smooth="yes"/>
      <point x="239" y="411"/>
      <point x="269" y="424"/>
      <point x="291" y="424" type="curve" smooth="yes"/>
      <point x="378" y="424"/>
      <point x="393" y="329"/>
      <point x="393" y="263" type="curve" smooth="yes"/>
      <point x="393" y="173"/>
      <point x="363" y="43"/>
      <point x="248" y="43" type="curve" smooth="yes"/>
      <point x="198" y="43"/>
      <point x="182" y="83"/>
      <point x="182" y="125" type="curve" smooth="yes"/>
      <point x="182" y="161"/>
      <point x="149" y="175"/>
      <point x="117" y="175" type="curve" smooth="yes"/>
      <point x="93" y="175"/>
      <point x="48" y="159"/>
      <point x="48" y="130" type="curve" smooth="yes"/>
      <point x="48" y="93"/>
      <point x="65" y="71"/>
      <point x="92" y="48" type="curve" smooth="yes"/>
      <point x="137" y="11"/>
      <point x="211" y="4"/>
      <point x="267" y="4" type="curve" smooth="yes"/>
      <point x="420" y="4"/>
      <point x="542" y="103"/>
    </contour>
  </outline>
</glyph>
<glyph name="six" format="2">
  <advance height="1000" width="590"/>
  <unicode hex="0036"/>
  <note>
cid00023
</note>
  <outline>
    <contour>
      <point x="406" y="219" type="curve" smooth="yes"/>
      <point x="406" y="148"/>
      <point x="392" y="31"/>
      <point x="296" y="31" type="curve" smooth="yes"/>
      <point x="194" y="31"/>
      <point x="194" y="194"/>
      <point x="194" y="264" type="curve" smooth="yes"/>
      <point x="194" y="295"/>
      <point x="193" y="327"/>
      <point x="201" y="358" type="curve"/>
      <point x="227" y="391"/>
      <point x="266" y="418"/>
      <point x="310" y="418" type="curve" smooth="yes"/>
      <point x="402" y="418"/>
      <point x="406" y="283"/>
    </contour>
    <contour>
      <point x="550" y="243" type="curve" smooth="yes"/>
      <point x="550" y="368"/>
      <point x="456" y="458"/>
      <point x="328" y="458" type="curve" smooth="yes"/>
      <point x="279" y="458"/>
      <point x="250" y="449"/>
      <point x="206" y="429" type="curve"/>
      <point x="228" y="514"/>
      <point x="267" y="598"/>
      <point x="329" y="664" type="curve" smooth="yes"/>
      <point x="371" y="708"/>
      <point x="425" y="741"/>
      <point x="482" y="766" type="curve" smooth="yes"/>
      <point x="487" y="768"/>
      <point x="501" y="773"/>
      <point x="501" y="779" type="curve" smooth="yes"/>
      <point x="501" y="787"/>
      <point x="497" y="789"/>
      <point x="490" y="789" type="curve" smooth="yes"/>
      <point x="475" y="789"/>
      <point x="460" y="786"/>
      <point x="446" y="782" type="curve" smooth="yes"/>
      <point x="260" y="732"/>
      <point x="136" y="619"/>
      <point x="73" y="441" type="curve" smooth="yes"/>
      <point x="58" y="399"/>
      <point x="46" y="345"/>
      <point x="46" y="301" type="curve" smooth="yes"/>
      <point x="46" y="265"/>
      <point x="48" y="229"/>
      <point x="55" y="194" type="curve" smooth="yes"/>
      <point x="78" y="85"/>
      <point x="164" y="-1"/>
      <point x="282" y="-1" type="curve" smooth="yes"/>
      <point x="436" y="-1"/>
      <point x="550" y="86"/>
    </contour>
  </outline>
</glyph>
<glyph name="seven" format="2">
  <advance height="1000" width="590"/>
  <unicode hex="0037"/>
  <note>
cid00024
</note>
  <outline>
    <contour>
      <point x="541" y="685" type="curve"/>
      <point x="541" y="728" type="line"/>
      <point x="451" y="723"/>
      <point x="362" y="721"/>
      <point x="272" y="721" type="curve" smooth="yes"/>
      <point x="208" y="721"/>
      <point x="143" y="723"/>
      <point x="79" y="723" type="curve" smooth="yes"/>
      <point x="63" y="723"/>
      <point x="61" y="715"/>
      <point x="59" y="702" type="curve" smooth="yes"/>
      <point x="55" y="679"/>
      <point x="56" y="652"/>
      <point x="54" y="628" type="curve" smooth="yes"/>
      <point x="52" y="607"/>
      <point x="49" y="585"/>
      <point x="49" y="563" type="curve" smooth="yes"/>
      <point x="49" y="553"/>
      <point x="57" y="545"/>
      <point x="68" y="545" type="curve" smooth="yes"/>
      <point x="107" y="545"/>
      <point x="79" y="637"/>
      <point x="184" y="660" type="curve" smooth="yes"/>
      <point x="216" y="667"/>
      <point x="250" y="667"/>
      <point x="283" y="668" type="curve" smooth="yes"/>
      <point x="339" y="670"/>
      <point x="396" y="672"/>
      <point x="452" y="673" type="curve"/>
      <point x="307" y="520"/>
      <point x="231" y="319"/>
      <point x="197" y="116" type="curve" smooth="yes"/>
      <point x="195" y="101"/>
      <point x="192" y="86"/>
      <point x="192" y="71" type="curve" smooth="yes"/>
      <point x="192" y="16"/>
      <point x="219" y="-14"/>
      <point x="276" y="-14" type="curve" smooth="yes"/>
      <point x="333" y="-14"/>
      <point x="339" y="28"/>
      <point x="340" y="73" type="curve" smooth="yes"/>
      <point x="343" y="212"/>
      <point x="356" y="353"/>
      <point x="407" y="484" type="curve" smooth="yes"/>
      <point x="437" y="559"/>
      <point x="485" y="626"/>
    </contour>
  </outline>
</glyph>
<glyph name="eight" format="2">
  <advance height="1000" width="590"/>
  <unicode hex="0038"/>
  <note>
cid00025
</note>
  <outline>
    <contour>
      <point x="414" y="196" type="curve" smooth="yes"/>
      <point x="414" y="137"/>
      <point x="394" y="77"/>
      <point x="337" y="47" type="curve" smooth="yes"/>
      <point x="322" y="39"/>
      <point x="305" y="33"/>
      <point x="288" y="33" type="curve" smooth="yes"/>
      <point x="190" y="33"/>
      <point x="160" y="119"/>
      <point x="160" y="200" type="curve" smooth="yes"/>
      <point x="160" y="273"/>
      <point x="191" y="341"/>
      <point x="254" y="383" type="curve"/>
      <point x="351" y="353"/>
      <point x="414" y="302"/>
    </contour>
    <contour>
      <point x="395" y="580" type="curve" smooth="yes"/>
      <point x="395" y="524"/>
      <point x="365" y="464"/>
      <point x="312" y="437" type="curve"/>
      <point x="241" y="466"/>
      <point x="201" y="508"/>
      <point x="201" y="586" type="curve" smooth="yes"/>
      <point x="201" y="639"/>
      <point x="219" y="710"/>
      <point x="287" y="710" type="curve" smooth="yes"/>
      <point x="366" y="710"/>
      <point x="395" y="649"/>
    </contour>
    <contour>
      <point x="557" y="233" type="curve" smooth="yes"/>
      <point x="557" y="332"/>
      <point x="465" y="387"/>
      <point x="381" y="417" type="curve"/>
      <point x="459" y="446"/>
      <point x="516" y="506"/>
      <point x="516" y="590" type="curve" smooth="yes"/>
      <point x="516" y="699"/>
      <point x="403" y="742"/>
      <point x="308" y="742" type="curve" smooth="yes"/>
      <point x="191" y="742"/>
      <point x="69" y="680"/>
      <point x="69" y="553" type="curve" smooth="yes"/>
      <point x="69" y="512"/>
      <point x="96" y="470"/>
      <point x="126" y="444" type="curve" smooth="yes"/>
      <point x="147" y="425"/>
      <point x="175" y="411"/>
      <point x="201" y="400" type="curve"/>
      <point x="165" y="381"/>
      <point x="127" y="360"/>
      <point x="97" y="333" type="curve" smooth="yes"/>
      <point x="59" y="298"/>
      <point x="34" y="246"/>
      <point x="34" y="195" type="curve" smooth="yes"/>
      <point x="34" y="51"/>
      <point x="169" y="-1"/>
      <point x="297" y="-1" type="curve" smooth="yes"/>
      <point x="442" y="-1"/>
      <point x="557" y="85"/>
    </contour>
  </outline>
</glyph>
<glyph name="nine" format="2">
  <advance height="1000" width="590"/>
  <unicode hex="0039"/>
  <note>
cid00026
</note>
  <outline>
    <contour>
      <point x="397" y="461" type="curve" smooth="yes"/>
      <point x="397" y="430"/>
      <point x="397" y="400"/>
      <point x="390" y="370" type="curve"/>
      <point x="363" y="337"/>
      <point x="325" y="310"/>
      <point x="281" y="310" type="curve" smooth="yes"/>
      <point x="188" y="310"/>
      <point x="185" y="445"/>
      <point x="185" y="509" type="curve" smooth="yes"/>
      <point x="185" y="579"/>
      <point x="198" y="697"/>
      <point x="294" y="697" type="curve" smooth="yes"/>
      <point x="398" y="697"/>
      <point x="397" y="531"/>
    </contour>
    <contour>
      <point x="545" y="427" type="curve" smooth="yes"/>
      <point x="545" y="463"/>
      <point x="542" y="499"/>
      <point x="534" y="534" type="curve" smooth="yes"/>
      <point x="511" y="643"/>
      <point x="427" y="729"/>
      <point x="308" y="729" type="curve" smooth="yes"/>
      <point x="153" y="729"/>
      <point x="40" y="641"/>
      <point x="40" y="484" type="curve" smooth="yes"/>
      <point x="40" y="360"/>
      <point x="135" y="270"/>
      <point x="262" y="270" type="curve" smooth="yes"/>
      <point x="311" y="270"/>
      <point x="341" y="279"/>
      <point x="384" y="299" type="curve"/>
      <point x="362" y="215"/>
      <point x="323" y="129"/>
      <point x="262" y="64" type="curve" smooth="yes"/>
      <point x="220" y="20"/>
      <point x="165" y="-14"/>
      <point x="109" y="-38" type="curve" smooth="yes"/>
      <point x="104" y="-40"/>
      <point x="89" y="-44"/>
      <point x="89" y="-51" type="curve" smooth="yes"/>
      <point x="89" y="-59"/>
      <point x="94" y="-61"/>
      <point x="101" y="-61" type="curve" smooth="yes"/>
      <point x="116" y="-61"/>
      <point x="130" y="-58"/>
      <point x="145" y="-54" type="curve" smooth="yes"/>
      <point x="330" y="-4"/>
      <point x="453" y="111"/>
      <point x="516" y="287" type="curve" smooth="yes"/>
      <point x="531" y="329"/>
      <point x="545" y="383"/>
    </contour>
  </outline>
</glyph>
<glyph name="colon" format="2">
  <advance height="1000" width="390"/>
  <unicode hex="003A"/>
  <note>
cid00027
</note>
  <outline>
    <contour>
      <point x="276" y="116" type="curve" smooth="yes"/>
      <point x="276" y="162"/>
      <point x="241" y="191"/>
      <point x="195" y="191" type="curve" smooth="yes"/>
      <point x="149" y="191"/>
      <point x="114" y="162"/>
      <point x="114" y="116" type="curve" smooth="yes"/>
      <point x="114" y="69"/>
      <point x="148" y="39"/>
      <point x="195" y="39" type="curve" smooth="yes"/>
      <point x="242" y="39"/>
      <point x="276" y="69"/>
    </contour>
    <contour>
      <point x="276" y="445" type="curve" smooth="yes"/>
      <point x="276" y="492"/>
      <point x="241" y="521"/>
      <point x="195" y="521" type="curve" smooth="yes"/>
      <point x="149" y="521"/>
      <point x="114" y="492"/>
      <point x="114" y="445" type="curve" smooth="yes"/>
      <point x="114" y="399"/>
      <point x="148" y="369"/>
      <point x="195" y="369" type="curve" smooth="yes"/>
      <point x="242" y="369"/>
      <point x="276" y="399"/>
    </contour>
  </outline>
</glyph>
<glyph name="semicolon" format="2">
  <advance height="1000" width="390"/>
  <unicode hex="003B"/>
  <note>
cid00028
</note>
  <outline>
    <contour>
      <point x="277" y="65" type="curve" smooth="yes"/>
      <point x="277" y="120"/>
      <point x="250" y="161"/>
      <point x="192" y="161" type="curve" smooth="yes"/>
      <point x="151" y="161"/>
      <point x="114" y="135"/>
      <point x="114" y="82" type="curve" smooth="yes"/>
      <point x="114" y="55"/>
      <point x="138" y="20"/>
      <point x="167" y="16" type="curve" smooth="yes"/>
      <point x="176" y="14"/>
      <point x="190" y="14"/>
      <point x="200" y="18" type="curve"/>
      <point x="196" y="-28"/>
      <point x="174" y="-84"/>
      <point x="152" y="-119" type="curve"/>
      <point x="185" y="-130" type="line"/>
      <point x="227" y="-88"/>
      <point x="277" y="2"/>
    </contour>
    <contour>
      <point x="276" y="444" type="curve" smooth="yes"/>
      <point x="276" y="490"/>
      <point x="241" y="519"/>
      <point x="195" y="519" type="curve" smooth="yes"/>
      <point x="148" y="519"/>
      <point x="114" y="490"/>
      <point x="114" y="444" type="curve" smooth="yes"/>
      <point x="114" y="398"/>
      <point x="148" y="368"/>
      <point x="195" y="368" type="curve" smooth="yes"/>
      <point x="241" y="368"/>
      <point x="276" y="398"/>
    </contour>
  </outline>
</glyph>
<glyph name="less" format="2">
  <advance height="1000" width="780"/>
  <unicode hex="003C"/>
  <note>
cid00029
</note>
  <outline>
    <contour>
      <point x="685" y="42" type="line"/>
      <point x="685" y="121" type="line"/>
      <point x="190" y="359" type="line"/>
      <point x="685" y="594" type="line"/>
      <point x="685" y="674" type="line"/>
      <point x="66" y="359" type="line"/>
    </contour>
  </outline>
</glyph>
<glyph name="greater" format="2">
  <advance height="1000" width="780"/>
  <unicode hex="003E"/>
  <note>
cid00031
</note>
  <outline>
    <contour>
      <point x="685" y="359" type="line"/>
      <point x="66" y="674" type="line"/>
      <point x="66" y="594" type="line"/>
      <point x="561" y="359" type="line"/>
      <point x="66" y="121" type="line"/>
      <point x="66" y="42" type="line"/>
    </contour>
  </outline>
</glyph>
<glyph name="question" format="2">
  <advance height="1000" width="560"/>
  <unicode hex="003F"/>
  <note>
cid00032
</note>
  <outline>
    <contour>
      <point x="360" y="60" type="curve" smooth="yes"/>
      <point x="360" y="101"/>
      <point x="324" y="135"/>
      <point x="283" y="135" type="curve" smooth="yes"/>
      <point x="241" y="135"/>
      <point x="206" y="101"/>
      <point x="206" y="60" type="curve" smooth="yes"/>
      <point x="206" y="19"/>
      <point x="240" y="-15"/>
      <point x="283" y="-15" type="curve" smooth="yes"/>
      <point x="325" y="-15"/>
      <point x="360" y="19"/>
    </contour>
    <contour>
      <point x="512" y="576" type="curve" smooth="yes"/>
      <point x="512" y="701"/>
      <point x="400" y="744"/>
      <point x="290" y="744" type="curve" smooth="yes"/>
      <point x="200" y="744"/>
      <point x="115" y="715"/>
      <point x="70" y="635" type="curve" smooth="yes"/>
      <point x="58" y="614"/>
      <point x="49" y="591"/>
      <point x="49" y="567" type="curve" smooth="yes"/>
      <point x="49" y="533"/>
      <point x="72" y="504"/>
      <point x="108" y="504" type="curve" smooth="yes"/>
      <point x="146" y="504"/>
      <point x="186" y="518"/>
      <point x="186" y="562" type="curve" smooth="yes"/>
      <point x="186" y="580"/>
      <point x="176" y="596"/>
      <point x="176" y="614" type="curve" smooth="yes"/>
      <point x="176" y="674"/>
      <point x="224" y="715"/>
      <point x="285" y="715" type="curve" smooth="yes"/>
      <point x="352" y="715"/>
      <point x="376" y="659"/>
      <point x="376" y="602" type="curve" smooth="yes"/>
      <point x="376" y="465"/>
      <point x="282" y="465"/>
      <point x="258" y="358" type="curve" smooth="yes"/>
      <point x="251" y="331"/>
      <point x="250" y="303"/>
      <point x="250" y="276" type="curve" smooth="yes"/>
      <point x="250" y="248"/>
      <point x="254" y="220"/>
      <point x="258" y="192" type="curve"/>
      <point x="297" y="192" type="line"/>
      <point x="298" y="231"/>
      <point x="299" y="291"/>
      <point x="312" y="326" type="curve" smooth="yes"/>
      <point x="342" y="402"/>
      <point x="386" y="401"/>
      <point x="443" y="446" type="curve" smooth="yes"/>
      <point x="481" y="476"/>
      <point x="512" y="528"/>
    </contour>
  </outline>
</glyph>
<glyph name="at" format="2">
  <advance height="1000" width="900"/>
  <unicode hex="0040"/>
  <note>
cid00033
</note>
  <outline>
    <contour>
      <point x="537" y="440" type="curve" smooth="yes"/>
      <point x="537" y="413"/>
      <point x="495" y="226"/>
      <point x="484" y="203" type="curve" smooth="yes"/>
      <point x="477" y="188"/>
      <point x="464" y="168"/>
      <point x="446" y="168" type="curve" smooth="yes"/>
      <point x="407" y="168"/>
      <point x="395" y="234"/>
      <point x="395" y="262" type="curve" smooth="yes"/>
      <point x="395" y="319"/>
      <point x="420" y="501"/>
      <point x="500" y="501" type="curve" smooth="yes"/>
      <point x="526" y="501"/>
      <point x="537" y="460"/>
    </contour>
    <contour>
      <point x="839" y="409" type="curve" smooth="yes"/>
      <point x="839" y="608"/>
      <point x="686" y="719"/>
      <point x="492" y="719" type="curve" smooth="yes"/>
      <point x="245" y="719"/>
      <point x="62" y="530"/>
      <point x="62" y="292" type="curve" smooth="yes"/>
      <point x="62" y="246"/>
      <point x="74" y="196"/>
      <point x="92" y="155" type="curve" smooth="yes"/>
      <point x="158" y="2"/>
      <point x="299" y="-58"/>
      <point x="462" y="-58" type="curve" smooth="yes"/>
      <point x="553" y="-58"/>
      <point x="669" y="-31"/>
      <point x="742" y="24" type="curve" smooth="yes"/>
      <point x="751" y="31"/>
      <point x="759" y="38"/>
      <point x="759" y="50" type="curve" smooth="yes"/>
      <point x="759" y="59"/>
      <point x="750" y="66"/>
      <point x="741" y="66" type="curve" smooth="yes"/>
      <point x="734" y="66"/>
      <point x="732" y="66"/>
      <point x="726" y="63" type="curve" smooth="yes"/>
      <point x="638" y="9"/>
      <point x="567" y="-20"/>
      <point x="462" y="-20" type="curve" smooth="yes"/>
      <point x="424" y="-20"/>
      <point x="387" y="-9"/>
      <point x="355" y="8" type="curve" smooth="yes"/>
      <point x="248" y="64"/>
      <point x="187" y="182"/>
      <point x="187" y="299" type="curve" smooth="yes"/>
      <point x="187" y="355"/>
      <point x="193" y="411"/>
      <point x="212" y="464" type="curve" smooth="yes"/>
      <point x="254" y="580"/>
      <point x="357" y="687"/>
      <point x="490" y="687" type="curve" smooth="yes"/>
      <point x="645" y="687"/>
      <point x="756" y="579"/>
      <point x="756" y="427" type="curve" smooth="yes"/>
      <point x="756" y="358"/>
      <point x="726" y="157"/>
      <point x="630" y="157" type="curve" smooth="yes"/>
      <point x="609" y="157"/>
      <point x="610" y="187"/>
      <point x="610" y="199" type="curve" smooth="yes"/>
      <point x="610" y="274"/>
      <point x="658" y="423"/>
      <point x="683" y="498" type="curve"/>
      <point x="683" y="498"/>
      <point x="684" y="500"/>
      <point x="684" y="501" type="curve" smooth="yes"/>
      <point x="684" y="519"/>
      <point x="662" y="528"/>
      <point x="647" y="528" type="curve" smooth="yes"/>
      <point x="624" y="528"/>
      <point x="595" y="514"/>
      <point x="578" y="501" type="curve"/>
      <point x="555" y="520"/>
      <point x="522" y="534"/>
      <point x="492" y="534" type="curve" smooth="yes"/>
      <point x="361" y="534"/>
      <point x="275" y="392"/>
      <point x="275" y="277" type="curve" smooth="yes"/>
      <point x="275" y="202"/>
      <point x="319" y="122"/>
      <point x="405" y="122" type="curve" smooth="yes"/>
      <point x="447" y="122"/>
      <point x="480" y="139"/>
      <point x="513" y="164" type="curve"/>
      <point x="530" y="128"/>
      <point x="576" y="115"/>
      <point x="614" y="115" type="curve" smooth="yes"/>
      <point x="756" y="115"/>
      <point x="839" y="288"/>
    </contour>
  </outline>
</glyph>
<glyph name="B" format="2">
  <advance height="1000" width="694"/>
  <unicode hex="0042"/>
  <note>
cid00035
</note>
  <outline>
    <contour>
      <point x="500" y="206" type="curve" smooth="yes"/>
      <point x="500" y="115"/>
      <point x="451" y="36"/>
      <point x="352" y="30" type="curve" smooth="yes"/>
      <point x="335" y="28"/>
      <point x="318" y="28"/>
      <point x="301" y="28" type="curve" smooth="yes"/>
      <point x="271" y="28"/>
      <point x="255" y="31"/>
      <point x="255" y="64" type="curve" smooth="yes"/>
      <point x="255" y="373" type="line"/>
      <point x="299" y="373"/>
      <point x="343" y="377"/>
      <point x="387" y="377" type="curve" smooth="yes"/>
      <point x="485" y="377"/>
      <point x="500" y="281"/>
    </contour>
    <contour>
      <point x="450" y="561" type="curve" smooth="yes"/>
      <point x="450" y="519"/>
      <point x="436" y="468"/>
      <point x="406" y="438" type="curve" smooth="yes"/>
      <point x="378" y="408"/>
      <point x="322" y="407"/>
      <point x="283" y="407" type="curve" smooth="yes"/>
      <point x="255" y="407" type="line"/>
      <point x="255" y="698" type="line"/>
      <point x="267" y="699"/>
      <point x="280" y="699"/>
      <point x="292" y="699" type="curve" smooth="yes"/>
      <point x="400" y="699"/>
      <point x="450" y="676"/>
    </contour>
    <contour>
      <point x="649" y="223" type="curve" smooth="yes"/>
      <point x="649" y="293"/>
      <point x="601" y="346"/>
      <point x="539" y="376" type="curve" smooth="yes"/>
      <point x="518" y="386"/>
      <point x="498" y="390"/>
      <point x="476" y="397" type="curve" smooth="yes"/>
      <point x="474" y="398"/>
      <point x="466" y="400"/>
      <point x="466" y="403" type="curve" smooth="yes"/>
      <point x="466" y="407"/>
      <point x="475" y="411"/>
      <point x="478" y="412" type="curve" smooth="yes"/>
      <point x="494" y="420"/>
      <point x="511" y="428"/>
      <point x="525" y="439" type="curve" smooth="yes"/>
      <point x="567" y="470"/>
      <point x="598" y="520"/>
      <point x="598" y="572" type="curve" smooth="yes"/>
      <point x="598" y="706"/>
      <point x="491" y="739"/>
      <point x="374" y="739" type="curve" smooth="yes"/>
      <point x="361" y="739"/>
      <point x="348" y="738"/>
      <point x="336" y="737" type="curve" smooth="yes"/>
      <point x="268" y="732"/>
      <point x="200" y="726"/>
      <point x="132" y="726" type="curve" smooth="yes"/>
      <point x="105" y="726"/>
      <point x="77" y="729"/>
      <point x="50" y="729" type="curve" smooth="yes"/>
      <point x="36" y="729"/>
      <point x="26" y="724"/>
      <point x="26" y="709" type="curve" smooth="yes"/>
      <point x="26" y="698"/>
      <point x="36" y="691"/>
      <point x="47" y="691" type="curve" smooth="yes"/>
      <point x="100" y="691"/>
      <point x="115" y="686"/>
      <point x="115" y="629" type="curve" smooth="yes"/>
      <point x="115" y="546"/>
      <point x="116" y="462"/>
      <point x="116" y="378" type="curve" smooth="yes"/>
      <point x="116" y="310"/>
      <point x="115" y="243"/>
      <point x="115" y="176" type="curve" smooth="yes"/>
      <point x="115" y="143"/>
      <point x="117" y="110"/>
      <point x="115" y="78" type="curve" smooth="yes"/>
      <point x="114" y="63"/>
      <point x="110" y="46"/>
      <point x="96" y="36" type="curve" smooth="yes"/>
      <point x="81" y="27"/>
      <point x="46" y="31"/>
      <point x="46" y="10" type="curve" smooth="yes"/>
      <point x="46" y="3"/>
      <point x="52" y="-3"/>
      <point x="59" y="-3" type="curve" smooth="yes"/>
      <point x="97" y="-3"/>
      <point x="134" y="3"/>
      <point x="172" y="3" type="curve" smooth="yes"/>
      <point x="221" y="3"/>
      <point x="270" y="2"/>
      <point x="319" y="-1" type="curve" smooth="yes"/>
      <point x="331" y="-2"/>
      <point x="343" y="-2"/>
      <point x="355" y="-2" type="curve" smooth="yes"/>
      <point x="408" y="-2"/>
      <point x="472" y="2"/>
      <point x="521" y="23" type="curve" smooth="yes"/>
      <point x="607" y="59"/>
      <point x="649" y="133"/>
    </contour>
  </outline>
</glyph>
<glyph name="C" format="2">
  <advance height="1000" width="725"/>
  <unicode hex="0043"/>
  <note>
cid00036
</note>
  <outline>
    <contour>
      <point x="711" y="166" type="curve" smooth="yes"/>
      <point x="711" y="182"/>
      <point x="700" y="198"/>
      <point x="682" y="198" type="curve" smooth="yes"/>
      <point x="663" y="198"/>
      <point x="658" y="191"/>
      <point x="648" y="177" type="curve" smooth="yes"/>
      <point x="614" y="129"/>
      <point x="588" y="93"/>
      <point x="531" y="68" type="curve" smooth="yes"/>
      <point x="501" y="55"/>
      <point x="462" y="45"/>
      <point x="429" y="45" type="curve" smooth="yes"/>
      <point x="324" y="45"/>
      <point x="258" y="133"/>
      <point x="232" y="223" type="curve" smooth="yes"/>
      <point x="218" y="269"/>
      <point x="213" y="316"/>
      <point x="213" y="364" type="curve" smooth="yes"/>
      <point x="213" y="470"/>
      <point x="238" y="593"/>
      <point x="325" y="665" type="curve" smooth="yes"/>
      <point x="350" y="685"/>
      <point x="380" y="703"/>
      <point x="413" y="703" type="curve" smooth="yes"/>
      <point x="446" y="703"/>
      <point x="492" y="681"/>
      <point x="515" y="659" type="curve" smooth="yes"/>
      <point x="547" y="630"/>
      <point x="572" y="573"/>
      <point x="581" y="532" type="curve" smooth="yes"/>
      <point x="583" y="521"/>
      <point x="584" y="509"/>
      <point x="588" y="498" type="curve" smooth="yes"/>
      <point x="596" y="480"/>
      <point x="611" y="474"/>
      <point x="630" y="474" type="curve" smooth="yes"/>
      <point x="653" y="474"/>
      <point x="677" y="486"/>
      <point x="677" y="512" type="curve" smooth="yes"/>
      <point x="677" y="538"/>
      <point x="669" y="564"/>
      <point x="665" y="590" type="curve" smooth="yes"/>
      <point x="661" y="620"/>
      <point x="658" y="651"/>
      <point x="657" y="681" type="curve"/>
      <point x="628" y="684"/>
      <point x="599" y="686"/>
      <point x="571" y="697" type="curve" smooth="yes"/>
      <point x="511" y="719"/>
      <point x="478" y="737"/>
      <point x="411" y="737" type="curve" smooth="yes"/>
      <point x="184" y="737"/>
      <point x="64" y="568"/>
      <point x="64" y="360" type="curve" smooth="yes"/>
      <point x="64" y="149"/>
      <point x="189" y="0"/>
      <point x="413" y="0" type="curve" smooth="yes"/>
      <point x="490" y="0"/>
      <point x="555" y="10"/>
      <point x="618" y="54" type="curve" smooth="yes"/>
      <point x="647" y="75"/>
      <point x="685" y="105"/>
      <point x="699" y="137" type="curve"/>
      <point x="704" y="143"/>
      <point x="711" y="158"/>
    </contour>
  </outline>
</glyph>
<glyph name="D" format="2">
  <advance height="1000" width="821"/>
  <unicode hex="0044"/>
  <note>
cid00037
</note>
  <outline>
    <contour>
      <point x="625" y="376" type="curve" smooth="yes"/>
      <point x="625" y="270"/>
      <point x="597" y="156"/>
      <point x="510" y="87" type="curve" smooth="yes"/>
      <point x="455" y="43"/>
      <point x="368" y="39"/>
      <point x="300" y="39" type="curve" smooth="yes"/>
      <point x="264" y="39"/>
      <point x="260" y="53"/>
      <point x="260" y="85" type="curve" smooth="yes"/>
      <point x="260" y="690" type="line"/>
      <point x="300" y="690"/>
      <point x="345" y="692"/>
      <point x="385" y="692" type="curve" smooth="yes"/>
      <point x="564" y="692"/>
      <point x="625" y="521"/>
    </contour>
    <contour>
      <point x="777" y="390" type="curve" smooth="yes"/>
      <point x="777" y="602"/>
      <point x="644" y="736"/>
      <point x="422" y="736" type="curve" smooth="yes"/>
      <point x="329" y="736"/>
      <point x="237" y="726"/>
      <point x="144" y="726" type="curve" smooth="yes"/>
      <point x="113" y="726"/>
      <point x="81" y="729"/>
      <point x="50" y="729" type="curve" smooth="yes"/>
      <point x="37" y="729"/>
      <point x="28" y="723"/>
      <point x="28" y="708" type="curve" smooth="yes"/>
      <point x="28" y="692"/>
      <point x="44" y="690"/>
      <point x="57" y="690" type="curve" smooth="yes"/>
      <point x="73" y="690"/>
      <point x="110" y="692"/>
      <point x="114" y="673" type="curve" smooth="yes"/>
      <point x="115" y="668"/>
      <point x="115" y="662"/>
      <point x="115" y="657" type="curve" smooth="yes"/>
      <point x="117" y="598"/>
      <point x="117" y="538"/>
      <point x="117" y="479" type="curve" smooth="yes"/>
      <point x="117" y="95" type="line" smooth="yes"/>
      <point x="117" y="70"/>
      <point x="114" y="49"/>
      <point x="92" y="38" type="curve" smooth="yes"/>
      <point x="86" y="35"/>
      <point x="71" y="33"/>
      <point x="62" y="32" type="curve" smooth="yes"/>
      <point x="52" y="32"/>
      <point x="43" y="26"/>
      <point x="43" y="16" type="curve" smooth="yes"/>
      <point x="43" y="5"/>
      <point x="53" y="-2"/>
      <point x="64" y="-2" type="curve" smooth="yes"/>
      <point x="77" y="-2"/>
      <point x="91" y="0"/>
      <point x="103" y="1" type="curve" smooth="yes"/>
      <point x="131" y="3"/>
      <point x="169" y="0"/>
      <point x="197" y="0" type="curve" smooth="yes"/>
      <point x="247" y="0"/>
      <point x="290" y="-2"/>
      <point x="340" y="-1" type="curve" smooth="yes"/>
      <point x="436" y="0"/>
      <point x="547" y="15"/>
      <point x="618" y="62" type="curve" smooth="yes"/>
      <point x="728" y="135"/>
      <point x="777" y="264"/>
    </contour>
  </outline>
</glyph>
<glyph name="F" format="2">
  <advance height="1000" width="610"/>
  <unicode hex="0046"/>
  <note>
cid00039
</note>
  <outline>
    <contour>
      <point x="602" y="587" type="curve" smooth="yes"/>
      <point x="602" y="598"/>
      <point x="599" y="608"/>
      <point x="598" y="618" type="curve" smooth="yes"/>
      <point x="593" y="656"/>
      <point x="586" y="700"/>
      <point x="581" y="739" type="curve"/>
      <point x="545" y="733"/>
      <point x="508" y="733"/>
      <point x="472" y="732" type="curve" smooth="yes"/>
      <point x="375" y="729"/>
      <point x="270" y="729"/>
      <point x="173" y="729" type="curve" smooth="yes"/>
      <point x="127" y="729"/>
      <point x="81" y="732"/>
      <point x="35" y="732" type="curve" smooth="yes"/>
      <point x="22" y="732"/>
      <point x="12" y="724"/>
      <point x="12" y="710" type="curve" smooth="yes"/>
      <point x="12" y="689"/>
      <point x="33" y="688"/>
      <point x="50" y="688" type="curve" smooth="yes"/>
      <point x="62" y="688"/>
      <point x="74" y="689"/>
      <point x="86" y="689" type="curve" smooth="yes"/>
      <point x="117" y="689"/>
      <point x="121" y="670"/>
      <point x="121" y="643" type="curve" smooth="yes"/>
      <point x="121" y="97" type="line" smooth="yes"/>
      <point x="121" y="-11"/>
      <point x="35" y="60"/>
      <point x="35" y="11" type="curve" smooth="yes"/>
      <point x="35" y="-3"/>
      <point x="48" y="-5"/>
      <point x="60" y="-5" type="curve" smooth="yes"/>
      <point x="104" y="-5"/>
      <point x="148" y="0"/>
      <point x="192" y="0" type="curve" smooth="yes"/>
      <point x="236" y="0"/>
      <point x="279" y="0"/>
      <point x="323" y="-2" type="curve" smooth="yes"/>
      <point x="330" y="-2"/>
      <point x="336" y="-3"/>
      <point x="343" y="-3" type="curve" smooth="yes"/>
      <point x="359" y="-3"/>
      <point x="367" y="3"/>
      <point x="367" y="19" type="curve" smooth="yes"/>
      <point x="367" y="33"/>
      <point x="355" y="37"/>
      <point x="343" y="37" type="curve" smooth="yes"/>
      <point x="297" y="37"/>
      <point x="264" y="30"/>
      <point x="264" y="88" type="curve" smooth="yes"/>
      <point x="264" y="319" type="line" smooth="yes"/>
      <point x="264" y="350"/>
      <point x="293" y="360"/>
      <point x="320" y="360" type="curve" smooth="yes"/>
      <point x="379" y="360"/>
      <point x="447" y="350"/>
      <point x="506" y="350" type="curve" smooth="yes"/>
      <point x="524" y="350"/>
      <point x="531" y="351"/>
      <point x="537" y="369" type="curve" smooth="yes"/>
      <point x="540" y="379"/>
      <point x="547" y="401"/>
      <point x="547" y="410" type="curve" smooth="yes"/>
      <point x="547" y="419"/>
      <point x="540" y="423"/>
      <point x="532" y="423" type="curve" smooth="yes"/>
      <point x="512" y="423"/>
      <point x="491" y="414"/>
      <point x="472" y="410" type="curve" smooth="yes"/>
      <point x="427" y="400"/>
      <point x="371" y="397"/>
      <point x="326" y="397" type="curve" smooth="yes"/>
      <point x="264" y="397" type="line"/>
      <point x="264" y="694" type="line"/>
      <point x="423" y="694" type="line" smooth="yes"/>
      <point x="486" y="694"/>
      <point x="518" y="640"/>
      <point x="532" y="587" type="curve" smooth="yes"/>
      <point x="536" y="571"/>
      <point x="543" y="562"/>
      <point x="568" y="562" type="curve" smooth="yes"/>
      <point x="580" y="562"/>
      <point x="602" y="572"/>
    </contour>
  </outline>
</glyph>
<glyph name="G" format="2">
  <advance height="1000" width="781"/>
  <unicode hex="0047"/>
  <note>
cid00040
</note>
  <outline>
    <contour>
      <point x="762" y="308" type="curve" smooth="yes"/>
      <point x="762" y="317"/>
      <point x="755" y="328"/>
      <point x="745" y="328" type="curve" smooth="yes"/>
      <point x="721" y="328"/>
      <point x="694" y="326"/>
      <point x="670" y="325" type="curve" smooth="yes"/>
      <point x="625" y="323"/>
      <point x="580" y="323"/>
      <point x="535" y="323" type="curve" smooth="yes"/>
      <point x="516" y="323"/>
      <point x="497" y="324"/>
      <point x="478" y="324" type="curve" smooth="yes"/>
      <point x="467" y="324"/>
      <point x="456" y="316"/>
      <point x="456" y="305" type="curve" smooth="yes"/>
      <point x="456" y="295"/>
      <point x="467" y="278"/>
      <point x="478" y="278" type="curve" smooth="yes"/>
      <point x="497" y="278"/>
      <point x="516" y="282"/>
      <point x="535" y="282" type="curve" smooth="yes"/>
      <point x="546" y="282"/>
      <point x="550" y="267"/>
      <point x="550" y="259" type="curve" smooth="yes"/>
      <point x="550" y="128" type="line" smooth="yes"/>
      <point x="550" y="67"/>
      <point x="467" y="43"/>
      <point x="416" y="43" type="curve" smooth="yes"/>
      <point x="312" y="43"/>
      <point x="250" y="136"/>
      <point x="225" y="224" type="curve" smooth="yes"/>
      <point x="212" y="269"/>
      <point x="207" y="316"/>
      <point x="207" y="362" type="curve" smooth="yes"/>
      <point x="207" y="409"/>
      <point x="212" y="458"/>
      <point x="224" y="503" type="curve" smooth="yes"/>
      <point x="247" y="590"/>
      <point x="316" y="706"/>
      <point x="422" y="706" type="curve" smooth="yes"/>
      <point x="533" y="706"/>
      <point x="596" y="633"/>
      <point x="627" y="535" type="curve" smooth="yes"/>
      <point x="634" y="514"/>
      <point x="640" y="503"/>
      <point x="665" y="503" type="curve" smooth="yes"/>
      <point x="685" y="503"/>
      <point x="702" y="517"/>
      <point x="702" y="537" type="curve" smooth="yes"/>
      <point x="702" y="557"/>
      <point x="695" y="606"/>
      <point x="694" y="638" type="curve" smooth="yes"/>
      <point x="693" y="657"/>
      <point x="694" y="704"/>
      <point x="694" y="718" type="curve" smooth="yes"/>
      <point x="694" y="726"/>
      <point x="685" y="731"/>
      <point x="676" y="731" type="curve" smooth="yes"/>
      <point x="664" y="731"/>
      <point x="659" y="728"/>
      <point x="654" y="716" type="curve" smooth="yes"/>
      <point x="649" y="704"/>
      <point x="643" y="690"/>
      <point x="626" y="690" type="curve" smooth="yes"/>
      <point x="618" y="690"/>
      <point x="560" y="714"/>
      <point x="546" y="718" type="curve" smooth="yes"/>
      <point x="505" y="732"/>
      <point x="461" y="741"/>
      <point x="418" y="741" type="curve" smooth="yes"/>
      <point x="195" y="741"/>
      <point x="57" y="567"/>
      <point x="57" y="361" type="curve" smooth="yes"/>
      <point x="57" y="246"/>
      <point x="100" y="128"/>
      <point x="198" y="58" type="curve" smooth="yes"/>
      <point x="252" y="20"/>
      <point x="339" y="-2"/>
      <point x="406" y="-2" type="curve" smooth="yes"/>
      <point x="457" y="-2"/>
      <point x="513" y="1"/>
      <point x="559" y="23" type="curve" smooth="yes"/>
      <point x="603" y="43"/>
      <point x="646" y="59"/>
      <point x="691" y="75" type="curve"/>
      <point x="691" y="285" type="line"/>
      <point x="742" y="285" type="line" smooth="yes"/>
      <point x="756" y="285"/>
      <point x="762" y="296"/>
    </contour>
  </outline>
</glyph>
<glyph name="H" format="2">
  <advance height="1000" width="837"/>
  <unicode hex="0048"/>
  <note>
cid00041
</note>
  <outline>
    <contour>
      <point x="808" y="716" type="curve" smooth="yes"/>
      <point x="808" y="727"/>
      <point x="801" y="735"/>
      <point x="789" y="735" type="curve" smooth="yes"/>
      <point x="772" y="735"/>
      <point x="756" y="733"/>
      <point x="739" y="732" type="curve" smooth="yes"/>
      <point x="711" y="731"/>
      <point x="684" y="730"/>
      <point x="656" y="730" type="curve" smooth="yes"/>
      <point x="625" y="730"/>
      <point x="595" y="730"/>
      <point x="564" y="732" type="curve" smooth="yes"/>
      <point x="548" y="733"/>
      <point x="532" y="735"/>
      <point x="516" y="735" type="curve" smooth="yes"/>
      <point x="503" y="735"/>
      <point x="494" y="727"/>
      <point x="494" y="714" type="curve" smooth="yes"/>
      <point x="494" y="704"/>
      <point x="507" y="697"/>
      <point x="516" y="697" type="curve" smooth="yes"/>
      <point x="529" y="697"/>
      <point x="543" y="698"/>
      <point x="556" y="698" type="curve" smooth="yes"/>
      <point x="575" y="698"/>
      <point x="579" y="692"/>
      <point x="579" y="674" type="curve" smooth="yes"/>
      <point x="579" y="402" type="line"/>
      <point x="256" y="402" type="line"/>
      <point x="256" y="670" type="line" smooth="yes"/>
      <point x="256" y="684"/>
      <point x="263" y="697"/>
      <point x="279" y="697" type="curve" smooth="yes"/>
      <point x="289" y="697"/>
      <point x="298" y="696"/>
      <point x="308" y="696" type="curve" smooth="yes"/>
      <point x="321" y="696"/>
      <point x="341" y="697"/>
      <point x="341" y="714" type="curve" smooth="yes"/>
      <point x="341" y="728"/>
      <point x="333" y="735"/>
      <point x="319" y="735" type="curve" smooth="yes"/>
      <point x="267" y="735"/>
      <point x="216" y="731"/>
      <point x="164" y="731" type="curve" smooth="yes"/>
      <point x="126" y="731"/>
      <point x="88" y="735"/>
      <point x="51" y="735" type="curve" smooth="yes"/>
      <point x="39" y="735"/>
      <point x="32" y="725"/>
      <point x="32" y="714" type="curve" smooth="yes"/>
      <point x="32" y="701"/>
      <point x="38" y="696"/>
      <point x="51" y="696" type="curve" smooth="yes"/>
      <point x="68" y="696"/>
      <point x="85" y="697"/>
      <point x="102" y="697" type="curve" smooth="yes"/>
      <point x="115" y="697"/>
      <point x="116" y="682"/>
      <point x="116" y="673" type="curve" smooth="yes"/>
      <point x="116" y="57" type="line" smooth="yes"/>
      <point x="116" y="48"/>
      <point x="115" y="33"/>
      <point x="102" y="33" type="curve" smooth="yes"/>
      <point x="85" y="33"/>
      <point x="68" y="34"/>
      <point x="51" y="34" type="curve" smooth="yes"/>
      <point x="42" y="34"/>
      <point x="34" y="25"/>
      <point x="34" y="17" type="curve" smooth="yes"/>
      <point x="34" y="9"/>
      <point x="42" y="-3"/>
      <point x="51" y="-3" type="curve" smooth="yes"/>
      <point x="68" y="-3"/>
      <point x="85" y="0"/>
      <point x="102" y="1" type="curve" smooth="yes"/>
      <point x="121" y="2"/>
      <point x="140" y="2"/>
      <point x="159" y="2" type="curve" smooth="yes"/>
      <point x="213" y="2"/>
      <point x="266" y="-3"/>
      <point x="319" y="-3" type="curve" smooth="yes"/>
      <point x="334" y="-3"/>
      <point x="342" y="3"/>
      <point x="342" y="18" type="curve" smooth="yes"/>
      <point x="342" y="31"/>
      <point x="330" y="34"/>
      <point x="319" y="34" type="curve" smooth="yes"/>
      <point x="306" y="34"/>
      <point x="292" y="33"/>
      <point x="279" y="33" type="curve" smooth="yes"/>
      <point x="260" y="33"/>
      <point x="256" y="39"/>
      <point x="256" y="57" type="curve" smooth="yes"/>
      <point x="256" y="366" type="line"/>
      <point x="579" y="366" type="line"/>
      <point x="579" y="59" type="line" smooth="yes"/>
      <point x="579" y="41"/>
      <point x="575" y="35"/>
      <point x="556" y="35" type="curve" smooth="yes"/>
      <point x="543" y="35"/>
      <point x="529" y="36"/>
      <point x="516" y="36" type="curve" smooth="yes"/>
      <point x="506" y="36"/>
      <point x="494" y="32"/>
      <point x="494" y="20" type="curve" smooth="yes"/>
      <point x="494" y="7"/>
      <point x="500" y="-2"/>
      <point x="514" y="-2" type="curve" smooth="yes"/>
      <point x="528" y="-2"/>
      <point x="542" y="0"/>
      <point x="556" y="1" type="curve" smooth="yes"/>
      <point x="573" y="2"/>
      <point x="590" y="2"/>
      <point x="606" y="2" type="curve" smooth="yes"/>
      <point x="719" y="2" type="line" smooth="yes"/>
      <point x="731" y="2"/>
      <point x="743" y="2"/>
      <point x="755" y="1" type="curve" smooth="yes"/>
      <point x="765" y="0"/>
      <point x="776" y="-2"/>
      <point x="787" y="-2" type="curve" smooth="yes"/>
      <point x="799" y="-2"/>
      <point x="806" y="3"/>
      <point x="806" y="15" type="curve" smooth="yes"/>
      <point x="806" y="25"/>
      <point x="801" y="36"/>
      <point x="789" y="36" type="curve" smooth="yes"/>
      <point x="772" y="36"/>
      <point x="754" y="35"/>
      <point x="737" y="35" type="curve" smooth="yes"/>
      <point x="724" y="35"/>
      <point x="724" y="50"/>
      <point x="724" y="59" type="curve" smooth="yes"/>
      <point x="724" y="180"/>
      <point x="723" y="300"/>
      <point x="723" y="420" type="curve" smooth="yes"/>
      <point x="723" y="505"/>
      <point x="724" y="589"/>
      <point x="724" y="674" type="curve" smooth="yes"/>
      <point x="724" y="683"/>
      <point x="724" y="698"/>
      <point x="737" y="698" type="curve" smooth="yes"/>
      <point x="754" y="698"/>
      <point x="772" y="697"/>
      <point x="789" y="697" type="curve" smooth="yes"/>
      <point x="801" y="697"/>
      <point x="808" y="704"/>
    </contour>
  </outline>
</glyph>
<glyph name="I" format="2">
  <advance height="1000" width="413"/>
  <unicode hex="0049"/>
  <note>
cid00042
</note>
  <outline>
    <contour>
      <point x="361" y="714" type="curve" smooth="yes"/>
      <point x="361" y="724"/>
      <point x="356" y="735"/>
      <point x="344" y="735" type="curve" smooth="yes"/>
      <point x="327" y="735"/>
      <point x="309" y="733"/>
      <point x="292" y="732" type="curve" smooth="yes"/>
      <point x="274" y="732"/>
      <point x="256" y="731"/>
      <point x="238" y="731" type="curve" smooth="yes"/>
      <point x="201" y="731" type="line" smooth="yes"/>
      <point x="158" y="731"/>
      <point x="114" y="735"/>
      <point x="71" y="735" type="curve" smooth="yes"/>
      <point x="58" y="735"/>
      <point x="49" y="730"/>
      <point x="49" y="716" type="curve" smooth="yes"/>
      <point x="49" y="704"/>
      <point x="59" y="697"/>
      <point x="71" y="697" type="curve" smooth="yes"/>
      <point x="84" y="697"/>
      <point x="97" y="698"/>
      <point x="110" y="698" type="curve" smooth="yes"/>
      <point x="121" y="698" type="line" smooth="yes"/>
      <point x="134" y="698"/>
      <point x="133" y="666"/>
      <point x="133" y="657" type="curve" smooth="yes"/>
      <point x="133" y="85" type="line" smooth="yes"/>
      <point x="133" y="69"/>
      <point x="134" y="35"/>
      <point x="110" y="35" type="curve" smooth="yes"/>
      <point x="96" y="35"/>
      <point x="81" y="37"/>
      <point x="67" y="37" type="curve" smooth="yes"/>
      <point x="54" y="37"/>
      <point x="49" y="28"/>
      <point x="49" y="17" type="curve" smooth="yes"/>
      <point x="49" y="4"/>
      <point x="54" y="-2"/>
      <point x="68" y="-2" type="curve" smooth="yes"/>
      <point x="113" y="-2"/>
      <point x="159" y="1"/>
      <point x="204" y="1" type="curve" smooth="yes"/>
      <point x="234" y="1"/>
      <point x="263" y="0"/>
      <point x="293" y="0" type="curve" smooth="yes"/>
      <point x="308" y="0"/>
      <point x="324" y="-2"/>
      <point x="339" y="-2" type="curve" smooth="yes"/>
      <point x="350" y="-2"/>
      <point x="359" y="7"/>
      <point x="359" y="18" type="curve" smooth="yes"/>
      <point x="359" y="27"/>
      <point x="353" y="36"/>
      <point x="343" y="36" type="curve" smooth="yes"/>
      <point x="326" y="36"/>
      <point x="308" y="35"/>
      <point x="291" y="35" type="curve" smooth="yes"/>
      <point x="278" y="35"/>
      <point x="278" y="50"/>
      <point x="278" y="59" type="curve" smooth="yes"/>
      <point x="278" y="96" type="line" smooth="yes"/>
      <point x="278" y="241"/>
      <point x="277" y="387"/>
      <point x="277" y="533" type="curve" smooth="yes"/>
      <point x="277" y="580"/>
      <point x="278" y="626"/>
      <point x="278" y="673" type="curve" smooth="yes"/>
      <point x="278" y="683"/>
      <point x="280" y="697"/>
      <point x="293" y="697" type="curve" smooth="yes"/>
      <point x="342" y="697" type="line" smooth="yes"/>
      <point x="354" y="697"/>
      <point x="361" y="702"/>
    </contour>
  </outline>
</glyph>
<glyph name="J" format="2">
  <advance height="1000" width="456"/>
  <unicode hex="004A"/>
  <note>
cid00043
</note>
  <outline>
    <contour>
      <point x="426" y="714" type="curve" smooth="yes"/>
      <point x="426" y="728"/>
      <point x="418" y="735"/>
      <point x="404" y="735" type="curve" smooth="yes"/>
      <point x="341" y="735"/>
      <point x="279" y="731"/>
      <point x="216" y="731" type="curve" smooth="yes"/>
      <point x="193" y="731"/>
      <point x="169" y="731"/>
      <point x="145" y="732" type="curve" smooth="yes"/>
      <point x="129" y="733"/>
      <point x="112" y="735"/>
      <point x="96" y="735" type="curve" smooth="yes"/>
      <point x="85" y="735"/>
      <point x="77" y="723"/>
      <point x="77" y="713" type="curve" smooth="yes"/>
      <point x="77" y="702"/>
      <point x="85" y="694"/>
      <point x="96" y="694" type="curve" smooth="yes"/>
      <point x="111" y="694"/>
      <point x="126" y="697"/>
      <point x="141" y="697" type="curve" smooth="yes"/>
      <point x="148" y="697"/>
      <point x="155" y="697"/>
      <point x="162" y="696" type="curve" smooth="yes"/>
      <point x="184" y="693"/>
      <point x="182" y="649"/>
      <point x="182" y="633" type="curve" smooth="yes"/>
      <point x="182" y="31" type="line" smooth="yes"/>
      <point x="182" y="-32"/>
      <point x="185" y="-127"/>
      <point x="96" y="-127" type="curve" smooth="yes"/>
      <point x="81" y="-127"/>
      <point x="44" y="-128"/>
      <point x="44" y="-106" type="curve" smooth="yes"/>
      <point x="44" y="-93"/>
      <point x="59" y="-83"/>
      <point x="70" y="-77" type="curve"/>
      <point x="70" y="-42"/>
      <point x="31" y="-29"/>
      <point x="1" y="-29" type="curve" smooth="yes"/>
      <point x="-34" y="-29"/>
      <point x="-77" y="-46"/>
      <point x="-77" y="-86" type="curve" smooth="yes"/>
      <point x="-77" y="-124"/>
      <point x="-22" y="-148"/>
      <point x="11" y="-155" type="curve" smooth="yes"/>
      <point x="39" y="-161"/>
      <point x="69" y="-161"/>
      <point x="98" y="-161" type="curve" smooth="yes"/>
      <point x="277" y="-161"/>
      <point x="332" y="-36"/>
      <point x="332" y="119" type="curve" smooth="yes"/>
      <point x="332" y="637" type="line" smooth="yes"/>
      <point x="332" y="658"/>
      <point x="330" y="696"/>
      <point x="361" y="696" type="curve" smooth="yes"/>
      <point x="375" y="696"/>
      <point x="390" y="694"/>
      <point x="404" y="694" type="curve" smooth="yes"/>
      <point x="416" y="694"/>
      <point x="426" y="701"/>
    </contour>
  </outline>
</glyph>
<glyph name="K" format="2">
  <advance height="1000" width="722"/>
  <unicode hex="004B"/>
  <note>
cid00044
</note>
  <outline>
    <contour>
      <point x="718" y="14" type="curve" smooth="yes"/>
      <point x="718" y="29"/>
      <point x="701" y="31"/>
      <point x="690" y="32" type="curve" smooth="yes"/>
      <point x="672" y="35"/>
      <point x="655" y="41"/>
      <point x="644" y="55" type="curve" smooth="yes"/>
      <point x="546" y="181"/>
      <point x="445" y="311"/>
      <point x="352" y="441" type="curve"/>
      <point x="584" y="668" type="line" smooth="yes"/>
      <point x="600" y="684"/>
      <point x="627" y="698"/>
      <point x="651" y="699" type="curve" smooth="yes"/>
      <point x="669" y="699"/>
      <point x="683" y="698"/>
      <point x="683" y="719" type="curve" smooth="yes"/>
      <point x="683" y="730"/>
      <point x="678" y="735"/>
      <point x="664" y="735" type="curve" smooth="yes"/>
      <point x="634" y="735"/>
      <point x="627" y="735"/>
      <point x="596" y="735" type="curve" smooth="yes"/>
      <point x="568" y="735"/>
      <point x="576" y="735"/>
      <point x="548" y="735" type="curve" smooth="yes"/>
      <point x="538" y="735"/>
      <point x="533" y="729"/>
      <point x="526" y="716" type="curve" smooth="yes"/>
      <point x="521" y="707"/>
      <point x="506" y="684"/>
      <point x="502" y="679" type="curve" smooth="yes"/>
      <point x="482" y="649"/>
      <point x="433" y="594"/>
      <point x="406" y="566" type="curve" smooth="yes"/>
      <point x="355" y="512"/>
      <point x="302" y="458"/>
      <point x="248" y="406" type="curve"/>
      <point x="248" y="538" type="line" smooth="yes"/>
      <point x="248" y="584"/>
      <point x="249" y="630"/>
      <point x="249" y="677" type="curve" smooth="yes"/>
      <point x="249" y="686"/>
      <point x="252" y="701"/>
      <point x="265" y="701" type="curve" smooth="yes"/>
      <point x="314" y="701" type="line" smooth="yes"/>
      <point x="322" y="701"/>
      <point x="330" y="710"/>
      <point x="330" y="718" type="curve" smooth="yes"/>
      <point x="330" y="726"/>
      <point x="323" y="735"/>
      <point x="314" y="735" type="curve" smooth="yes"/>
      <point x="296" y="735"/>
      <point x="272" y="734"/>
      <point x="254" y="733" type="curve" smooth="yes"/>
      <point x="234" y="732"/>
      <point x="216" y="732"/>
      <point x="196" y="732" type="curve" smooth="yes"/>
      <point x="159" y="732"/>
      <point x="118" y="732"/>
      <point x="91" y="733" type="curve" smooth="yes"/>
      <point x="76" y="734"/>
      <point x="53" y="735"/>
      <point x="37" y="735" type="curve" smooth="yes"/>
      <point x="25" y="735"/>
      <point x="20" y="727"/>
      <point x="20" y="715" type="curve" smooth="yes"/>
      <point x="20" y="705"/>
      <point x="29" y="701"/>
      <point x="39" y="701" type="curve" smooth="yes"/>
      <point x="84" y="701" type="line" smooth="yes"/>
      <point x="108" y="701"/>
      <point x="107" y="667"/>
      <point x="107" y="649" type="curve" smooth="yes"/>
      <point x="107" y="78" type="line" smooth="yes"/>
      <point x="107" y="61"/>
      <point x="108" y="34"/>
      <point x="84" y="34" type="curve" smooth="yes"/>
      <point x="71" y="34"/>
      <point x="55" y="35"/>
      <point x="42" y="35" type="curve" smooth="yes"/>
      <point x="31" y="35"/>
      <point x="20" y="31"/>
      <point x="20" y="18" type="curve" smooth="yes"/>
      <point x="20" y="5"/>
      <point x="29" y="-3"/>
      <point x="42" y="-3" type="curve" smooth="yes"/>
      <point x="58" y="-3"/>
      <point x="76" y="-1"/>
      <point x="91" y="0" type="curve" smooth="yes"/>
      <point x="120" y="2"/>
      <point x="149" y="2"/>
      <point x="178" y="2" type="curve" smooth="yes"/>
      <point x="205" y="2"/>
      <point x="231" y="1"/>
      <point x="258" y="0" type="curve" smooth="yes"/>
      <point x="277" y="-1"/>
      <point x="295" y="-3"/>
      <point x="314" y="-3" type="curve" smooth="yes"/>
      <point x="323" y="-3"/>
      <point x="331" y="8"/>
      <point x="331" y="16" type="curve" smooth="yes"/>
      <point x="331" y="26"/>
      <point x="325" y="35"/>
      <point x="314" y="35" type="curve" smooth="yes"/>
      <point x="297" y="35"/>
      <point x="279" y="34"/>
      <point x="262" y="34" type="curve" smooth="yes"/>
      <point x="248" y="34"/>
      <point x="249" y="51"/>
      <point x="249" y="60" type="curve" smooth="yes"/>
      <point x="249" y="159"/>
      <point x="249" y="258"/>
      <point x="248" y="357" type="curve"/>
      <point x="253" y="361" type="line"/>
      <point x="326" y="255"/>
      <point x="402" y="146"/>
      <point x="476" y="40" type="curve" smooth="yes"/>
      <point x="497" y="10"/>
      <point x="514" y="-2"/>
      <point x="552" y="-2" type="curve" smooth="yes"/>
      <point x="574" y="-2"/>
      <point x="595" y="-3"/>
      <point x="617" y="-3" type="curve" smooth="yes"/>
      <point x="643" y="-3"/>
      <point x="672" y="0"/>
      <point x="698" y="0" type="curve" smooth="yes"/>
      <point x="707" y="0"/>
      <point x="718" y="3"/>
    </contour>
  </outline>
</glyph>
<glyph name="L" format="2">
  <advance height="1000" width="670"/>
  <unicode hex="004C"/>
  <note>
cid00045
</note>
  <outline>
    <contour>
      <point x="649" y="229" type="curve" smooth="yes"/>
      <point x="649" y="240"/>
      <point x="639" y="246"/>
      <point x="629" y="246" type="curve" smooth="yes"/>
      <point x="614" y="246"/>
      <point x="607" y="234"/>
      <point x="603" y="222" type="curve" smooth="yes"/>
      <point x="574" y="132"/>
      <point x="534" y="68"/>
      <point x="433" y="46" type="curve" smooth="yes"/>
      <point x="395" y="38"/>
      <point x="355" y="37"/>
      <point x="317" y="37" type="curve" smooth="yes"/>
      <point x="303" y="37"/>
      <point x="288" y="37"/>
      <point x="275" y="40" type="curve" smooth="yes"/>
      <point x="262" y="43"/>
      <point x="257" y="58"/>
      <point x="257" y="69" type="curve" smooth="yes"/>
      <point x="257" y="224"/>
      <point x="256" y="378"/>
      <point x="256" y="533" type="curve" smooth="yes"/>
      <point x="256" y="581"/>
      <point x="257" y="629"/>
      <point x="257" y="678" type="curve" smooth="yes"/>
      <point x="257" y="688"/>
      <point x="257" y="697"/>
      <point x="270" y="697" type="curve" smooth="yes"/>
      <point x="287" y="697"/>
      <point x="305" y="696"/>
      <point x="322" y="696" type="curve" smooth="yes"/>
      <point x="334" y="696"/>
      <point x="341" y="705"/>
      <point x="341" y="716" type="curve" smooth="yes"/>
      <point x="341" y="727"/>
      <point x="334" y="735"/>
      <point x="322" y="735" type="curve" smooth="yes"/>
      <point x="304" y="735"/>
      <point x="287" y="732"/>
      <point x="269" y="731" type="curve" smooth="yes"/>
      <point x="242" y="730"/>
      <point x="214" y="730"/>
      <point x="187" y="730" type="curve" smooth="yes"/>
      <point x="157" y="730"/>
      <point x="127" y="730"/>
      <point x="96" y="732" type="curve" smooth="yes"/>
      <point x="81" y="733"/>
      <point x="63" y="735"/>
      <point x="47" y="735" type="curve" smooth="yes"/>
      <point x="33" y="735"/>
      <point x="24" y="728"/>
      <point x="24" y="714" type="curve" smooth="yes"/>
      <point x="24" y="702"/>
      <point x="35" y="696"/>
      <point x="46" y="696" type="curve" smooth="yes"/>
      <point x="62" y="696"/>
      <point x="79" y="697"/>
      <point x="95" y="697" type="curve" smooth="yes"/>
      <point x="108" y="697"/>
      <point x="111" y="693"/>
      <point x="111" y="680" type="curve" smooth="yes"/>
      <point x="111" y="631"/>
      <point x="112" y="582"/>
      <point x="112" y="533" type="curve" smooth="yes"/>
      <point x="112" y="63" type="line" smooth="yes"/>
      <point x="112" y="41"/>
      <point x="101" y="38"/>
      <point x="81" y="38" type="curve" smooth="yes"/>
      <point x="70" y="38"/>
      <point x="57" y="39"/>
      <point x="46" y="39" type="curve" smooth="yes"/>
      <point x="33" y="39"/>
      <point x="22" y="33"/>
      <point x="22" y="19" type="curve" smooth="yes"/>
      <point x="22" y="5"/>
      <point x="34" y="-2"/>
      <point x="47" y="-2" type="curve" smooth="yes"/>
      <point x="62" y="-2"/>
      <point x="78" y="-1"/>
      <point x="93" y="0" type="curve" smooth="yes"/>
      <point x="125" y="0"/>
      <point x="157" y="2"/>
      <point x="189" y="2" type="curve" smooth="yes"/>
      <point x="377" y="2" type="line" smooth="yes"/>
      <point x="428" y="2"/>
      <point x="489" y="2"/>
      <point x="541" y="1" type="curve" smooth="yes"/>
      <point x="557" y="0"/>
      <point x="574" y="-1"/>
      <point x="590" y="-1" type="curve" smooth="yes"/>
      <point x="601" y="-1"/>
      <point x="619" y="0"/>
      <point x="626" y="10" type="curve" smooth="yes"/>
      <point x="630" y="15"/>
      <point x="630" y="22"/>
      <point x="630" y="28" type="curve" smooth="yes"/>
      <point x="633" y="74"/>
      <point x="639" y="120"/>
      <point x="644" y="165" type="curve" smooth="yes"/>
      <point x="646" y="187"/>
      <point x="649" y="208"/>
    </contour>
  </outline>
</glyph>
<glyph name="M" format="2">
  <advance height="1000" width="947"/>
  <unicode hex="004D"/>
  <note>
cid00046
</note>
  <outline>
    <contour>
      <point x="926" y="20" type="curve" smooth="yes"/>
      <point x="926" y="31"/>
      <point x="917" y="36"/>
      <point x="907" y="36" type="curve" smooth="yes"/>
      <point x="893" y="36"/>
      <point x="879" y="35"/>
      <point x="865" y="35" type="curve" smooth="yes"/>
      <point x="842" y="35"/>
      <point x="842" y="70"/>
      <point x="842" y="85" type="curve" smooth="yes"/>
      <point x="842" y="202"/>
      <point x="841" y="318"/>
      <point x="841" y="435" type="curve" smooth="yes"/>
      <point x="841" y="513"/>
      <point x="842" y="591"/>
      <point x="842" y="669" type="curve" smooth="yes"/>
      <point x="842" y="679"/>
      <point x="844" y="693"/>
      <point x="857" y="693" type="curve" smooth="yes"/>
      <point x="909" y="693" type="line" smooth="yes"/>
      <point x="920" y="693"/>
      <point x="926" y="705"/>
      <point x="926" y="714" type="curve" smooth="yes"/>
      <point x="926" y="723"/>
      <point x="920" y="735"/>
      <point x="909" y="735" type="curve" smooth="yes"/>
      <point x="869" y="735"/>
      <point x="830" y="731"/>
      <point x="790" y="731" type="curve" smooth="yes"/>
      <point x="758" y="731"/>
      <point x="726" y="732"/>
      <point x="693" y="732" type="curve"/>
      <point x="629" y="544"/>
      <point x="540" y="343"/>
      <point x="479" y="194" type="curve"/>
      <point x="263" y="736" type="line"/>
      <point x="224" y="732"/>
      <point x="184" y="732"/>
      <point x="144" y="732" type="curve" smooth="yes"/>
      <point x="112" y="732"/>
      <point x="74" y="735"/>
      <point x="42" y="735" type="curve" smooth="yes"/>
      <point x="28" y="735"/>
      <point x="19" y="728"/>
      <point x="19" y="714" type="curve" smooth="yes"/>
      <point x="19" y="702"/>
      <point x="30" y="694"/>
      <point x="42" y="694" type="curve" smooth="yes"/>
      <point x="55" y="694"/>
      <point x="74" y="695"/>
      <point x="87" y="695" type="curve" smooth="yes"/>
      <point x="108" y="695"/>
      <point x="112" y="685"/>
      <point x="112" y="666" type="curve" smooth="yes"/>
      <point x="112" y="464"/>
      <point x="109" y="263"/>
      <point x="109" y="61" type="curve" smooth="yes"/>
      <point x="109" y="38"/>
      <point x="101" y="35"/>
      <point x="80" y="35" type="curve" smooth="yes"/>
      <point x="69" y="35"/>
      <point x="50" y="36"/>
      <point x="39" y="36" type="curve" smooth="yes"/>
      <point x="30" y="36"/>
      <point x="17" y="30"/>
      <point x="17" y="20" type="curve" smooth="yes"/>
      <point x="17" y="6"/>
      <point x="20" y="-2"/>
      <point x="36" y="-2" type="curve" smooth="yes"/>
      <point x="78" y="-2"/>
      <point x="128" y="0"/>
      <point x="170" y="0" type="curve" smooth="yes"/>
      <point x="193" y="0"/>
      <point x="207" y="-2"/>
      <point x="230" y="-2" type="curve" smooth="yes"/>
      <point x="238" y="-2"/>
      <point x="247" y="10"/>
      <point x="247" y="17" type="curve" smooth="yes"/>
      <point x="247" y="28"/>
      <point x="238" y="36"/>
      <point x="227" y="36" type="curve" smooth="yes"/>
      <point x="211" y="36"/>
      <point x="205" y="35"/>
      <point x="189" y="35" type="curve" smooth="yes"/>
      <point x="168" y="35"/>
      <point x="172" y="64"/>
      <point x="172" y="78" type="curve" smooth="yes"/>
      <point x="172" y="254"/>
      <point x="168" y="430"/>
      <point x="168" y="605" type="curve"/>
      <point x="243" y="416"/>
      <point x="319" y="225"/>
      <point x="394" y="36" type="curve"/>
      <point x="476" y="36" type="line"/>
      <point x="543" y="210"/>
      <point x="634" y="410"/>
      <point x="700" y="583" type="curve"/>
      <point x="700" y="80" type="line" smooth="yes"/>
      <point x="700" y="68"/>
      <point x="702" y="36"/>
      <point x="683" y="36" type="curve" smooth="yes"/>
      <point x="668" y="36"/>
      <point x="652" y="37"/>
      <point x="637" y="37" type="curve" smooth="yes"/>
      <point x="627" y="37"/>
      <point x="614" y="32"/>
      <point x="614" y="20" type="curve" smooth="yes"/>
      <point x="614" y="7"/>
      <point x="620" y="-3"/>
      <point x="635" y="-3" type="curve" smooth="yes"/>
      <point x="680" y="-3"/>
      <point x="726" y="0"/>
      <point x="771" y="0" type="curve" smooth="yes"/>
      <point x="816" y="0"/>
      <point x="861" y="-2"/>
      <point x="906" y="-2" type="curve" smooth="yes"/>
      <point x="921" y="-2"/>
      <point x="926" y="7"/>
    </contour>
  </outline>
</glyph>
<glyph name="O" format="2">
  <advance height="1000" width="820"/>
  <unicode hex="004F"/>
  <note>
cid00048
</note>
  <outline>
    <contour>
      <point x="607" y="365" type="curve" smooth="yes"/>
      <point x="607" y="246"/>
      <point x="568" y="31"/>
      <point x="409" y="31" type="curve" smooth="yes"/>
      <point x="250" y="31"/>
      <point x="207" y="245"/>
      <point x="207" y="365" type="curve" smooth="yes"/>
      <point x="207" y="409"/>
      <point x="212" y="453"/>
      <point x="222" y="496" type="curve" smooth="yes"/>
      <point x="242" y="584"/>
      <point x="301" y="705"/>
      <point x="409" y="705" type="curve" smooth="yes"/>
      <point x="570" y="705"/>
      <point x="607" y="484"/>
    </contour>
    <contour>
      <point x="759" y="365" type="curve" smooth="yes"/>
      <point x="759" y="581"/>
      <point x="641" y="739"/>
      <point x="409" y="739" type="curve" smooth="yes"/>
      <point x="188" y="739"/>
      <point x="61" y="569"/>
      <point x="61" y="365" type="curve" smooth="yes"/>
      <point x="61" y="149"/>
      <point x="177" y="-3"/>
      <point x="409" y="-3" type="curve" smooth="yes"/>
      <point x="645" y="-3"/>
      <point x="759" y="144"/>
    </contour>
  </outline>
</glyph>
<glyph name="P" format="2">
  <advance height="1000" width="624"/>
  <unicode hex="0050"/>
  <note>
cid00049
</note>
  <outline>
    <contour>
      <point x="462" y="550" type="curve" smooth="yes"/>
      <point x="462" y="464"/>
      <point x="432" y="376"/>
      <point x="329" y="376" type="curve" smooth="yes"/>
      <point x="304" y="376"/>
      <point x="277" y="377"/>
      <point x="258" y="394" type="curve"/>
      <point x="257" y="484"/>
      <point x="256" y="575"/>
      <point x="256" y="665" type="curve" smooth="yes"/>
      <point x="256" y="701"/>
      <point x="259" y="701"/>
      <point x="294" y="701" type="curve" smooth="yes"/>
      <point x="307" y="701"/>
      <point x="320" y="701"/>
      <point x="333" y="701" type="curve" smooth="yes"/>
      <point x="423" y="701"/>
      <point x="462" y="629"/>
    </contour>
    <contour>
      <point x="612" y="553" type="curve" smooth="yes"/>
      <point x="612" y="688"/>
      <point x="491" y="734"/>
      <point x="371" y="734" type="curve" smooth="yes"/>
      <point x="310" y="734"/>
      <point x="249" y="730"/>
      <point x="188" y="730" type="curve" smooth="yes"/>
      <point x="158" y="730"/>
      <point x="128" y="731"/>
      <point x="98" y="732" type="curve" smooth="yes"/>
      <point x="83" y="733"/>
      <point x="68" y="735"/>
      <point x="53" y="735" type="curve" smooth="yes"/>
      <point x="42" y="735"/>
      <point x="30" y="725"/>
      <point x="30" y="714" type="curve" smooth="yes"/>
      <point x="30" y="704"/>
      <point x="43" y="695"/>
      <point x="53" y="695" type="curve" smooth="yes"/>
      <point x="66" y="695"/>
      <point x="80" y="696"/>
      <point x="93" y="696" type="curve" smooth="yes"/>
      <point x="103" y="696" type="line" smooth="yes"/>
      <point x="120" y="696"/>
      <point x="116" y="648"/>
      <point x="116" y="637" type="curve" smooth="yes"/>
      <point x="116" y="91" type="line" smooth="yes"/>
      <point x="116" y="84"/>
      <point x="116" y="78"/>
      <point x="116" y="71" type="curve" smooth="yes"/>
      <point x="116" y="60"/>
      <point x="116" y="32"/>
      <point x="100" y="32" type="curve" smooth="yes"/>
      <point x="84" y="32"/>
      <point x="69" y="33"/>
      <point x="53" y="33" type="curve" smooth="yes"/>
      <point x="44" y="33"/>
      <point x="31" y="29"/>
      <point x="31" y="18" type="curve" smooth="yes"/>
      <point x="31" y="5"/>
      <point x="36" y="-4"/>
      <point x="50" y="-4" type="curve" smooth="yes"/>
      <point x="64" y="-4"/>
      <point x="79" y="-2"/>
      <point x="93" y="-1" type="curve" smooth="yes"/>
      <point x="132" y="1"/>
      <point x="171" y="1"/>
      <point x="210" y="1" type="curve" smooth="yes"/>
      <point x="230" y="1"/>
      <point x="250" y="1"/>
      <point x="270" y="0" type="curve" smooth="yes"/>
      <point x="288" y="-1"/>
      <point x="305" y="-4"/>
      <point x="323" y="-4" type="curve" smooth="yes"/>
      <point x="333" y="-4"/>
      <point x="342" y="2"/>
      <point x="342" y="12" type="curve" smooth="yes"/>
      <point x="342" y="21"/>
      <point x="333" y="34"/>
      <point x="323" y="34" type="curve" smooth="yes"/>
      <point x="306" y="34"/>
      <point x="289" y="33"/>
      <point x="272" y="33" type="curve" smooth="yes"/>
      <point x="259" y="33"/>
      <point x="258" y="48"/>
      <point x="258" y="57" type="curve" smooth="yes"/>
      <point x="258" y="346" type="line"/>
      <point x="281" y="343"/>
      <point x="304" y="341"/>
      <point x="327" y="341" type="curve" smooth="yes"/>
      <point x="479" y="341"/>
      <point x="612" y="378"/>
    </contour>
  </outline>
</glyph>
<glyph name="Q" format="2">
  <advance height="1000" width="820"/>
  <unicode hex="0051"/>
  <note>
cid00050
</note>
  <outline>
    <contour>
      <point x="427" y="33" type="curve"/>
      <point x="413" y="33" type="line" smooth="yes"/>
      <point x="365" y="33"/>
      <point x="294" y="79"/>
      <point x="271" y="120" type="curve"/>
      <point x="276" y="145"/>
      <point x="298" y="198"/>
      <point x="330" y="198" type="curve" smooth="yes"/>
      <point x="339" y="198"/>
      <point x="346" y="194"/>
      <point x="352" y="188" type="curve" smooth="yes"/>
      <point x="361" y="180"/>
      <point x="367" y="169"/>
      <point x="371" y="158" type="curve" smooth="yes"/>
      <point x="389" y="116"/>
      <point x="407" y="74"/>
    </contour>
    <contour>
      <point x="606" y="361" type="curve" smooth="yes"/>
      <point x="606" y="265"/>
      <point x="596" y="155"/>
      <point x="522" y="83" type="curve"/>
      <point x="506" y="115"/>
      <point x="492" y="149"/>
      <point x="472" y="179" type="curve" smooth="yes"/>
      <point x="439" y="228"/>
      <point x="410" y="246"/>
      <point x="349" y="246" type="curve" smooth="yes"/>
      <point x="311" y="246"/>
      <point x="261" y="202"/>
      <point x="239" y="173" type="curve"/>
      <point x="213" y="224"/>
      <point x="207" y="304"/>
      <point x="207" y="361" type="curve" smooth="yes"/>
      <point x="207" y="479"/>
      <point x="249" y="680"/>
      <point x="391" y="707" type="curve"/>
      <point x="395" y="707"/>
      <point x="400" y="707"/>
      <point x="404" y="707" type="curve" smooth="yes"/>
      <point x="409" y="707"/>
      <point x="414" y="707"/>
      <point x="418" y="707" type="curve"/>
      <point x="566" y="680"/>
      <point x="606" y="484"/>
    </contour>
    <contour>
      <point x="796" y="-39" type="curve" smooth="yes"/>
      <point x="796" y="-30"/>
      <point x="788" y="-24"/>
      <point x="779" y="-24" type="curve" smooth="yes"/>
      <point x="760" y="-24"/>
      <point x="736" y="-65"/>
      <point x="698" y="-65" type="curve" smooth="yes"/>
      <point x="645" y="-65"/>
      <point x="591" y="-7"/>
      <point x="563" y="31" type="curve"/>
      <point x="686" y="96"/>
      <point x="759" y="226"/>
      <point x="759" y="361" type="curve" smooth="yes"/>
      <point x="759" y="578"/>
      <point x="649" y="741"/>
      <point x="412" y="741" type="curve" smooth="yes"/>
      <point x="187" y="741"/>
      <point x="59" y="571"/>
      <point x="59" y="363" type="curve" smooth="yes"/>
      <point x="59" y="160"/>
      <point x="196" y="1"/>
      <point x="410" y="1" type="curve" smooth="yes"/>
      <point x="422" y="1"/>
      <point x="433" y="1"/>
      <point x="445" y="2" type="curve"/>
      <point x="466" y="-29"/>
      <point x="492" y="-60"/>
      <point x="522" y="-83" type="curve" smooth="yes"/>
      <point x="561" y="-113"/>
      <point x="603" y="-117"/>
      <point x="652" y="-117" type="curve" smooth="yes"/>
      <point x="710" y="-117"/>
      <point x="762" y="-95"/>
      <point x="794" y="-47" type="curve" smooth="yes"/>
      <point x="795" y="-45"/>
      <point x="796" y="-42"/>
    </contour>
  </outline>
</glyph>
<glyph name="R" format="2">
  <advance height="1000" width="707"/>
  <unicode hex="0052"/>
  <note>
cid00051
</note>
  <outline>
    <contour>
      <point x="459" y="553" type="curve" smooth="yes"/>
      <point x="459" y="437"/>
      <point x="382" y="400"/>
      <point x="275" y="400" type="curve" smooth="yes"/>
      <point x="268" y="400"/>
      <point x="260" y="400"/>
      <point x="253" y="402" type="curve"/>
      <point x="253" y="440" type="line" smooth="yes"/>
      <point x="253" y="519"/>
      <point x="254" y="598"/>
      <point x="254" y="678" type="curve" smooth="yes"/>
      <point x="254" y="690"/>
      <point x="255" y="698"/>
      <point x="268" y="702" type="curve" smooth="yes"/>
      <point x="283" y="705"/>
      <point x="303" y="704"/>
      <point x="319" y="704" type="curve" smooth="yes"/>
      <point x="423" y="704"/>
      <point x="459" y="648"/>
    </contour>
    <contour>
      <point x="717" y="19" type="curve" smooth="yes"/>
      <point x="717" y="37"/>
      <point x="701" y="32"/>
      <point x="690" y="34" type="curve" smooth="yes"/>
      <point x="665" y="40"/>
      <point x="639" y="59"/>
      <point x="625" y="80" type="curve" smooth="yes"/>
      <point x="558" y="176"/>
      <point x="485" y="277"/>
      <point x="429" y="380" type="curve"/>
      <point x="538" y="403"/>
      <point x="614" y="452"/>
      <point x="614" y="570" type="curve" smooth="yes"/>
      <point x="614" y="704"/>
      <point x="473" y="738"/>
      <point x="362" y="738" type="curve" smooth="yes"/>
      <point x="299" y="738"/>
      <point x="235" y="731"/>
      <point x="172" y="731" type="curve" smooth="yes"/>
      <point x="131" y="731"/>
      <point x="90" y="735"/>
      <point x="50" y="735" type="curve" smooth="yes"/>
      <point x="36" y="735"/>
      <point x="25" y="729"/>
      <point x="25" y="714" type="curve" smooth="yes"/>
      <point x="25" y="702"/>
      <point x="40" y="697"/>
      <point x="50" y="697" type="curve" smooth="yes"/>
      <point x="63" y="697"/>
      <point x="77" y="698"/>
      <point x="90" y="698" type="curve" smooth="yes"/>
      <point x="108" y="698"/>
      <point x="113" y="692"/>
      <point x="113" y="674" type="curve" smooth="yes"/>
      <point x="113" y="56" type="line" smooth="yes"/>
      <point x="113" y="38"/>
      <point x="105" y="32"/>
      <point x="87" y="32" type="curve" smooth="yes"/>
      <point x="74" y="32"/>
      <point x="60" y="33"/>
      <point x="47" y="33" type="curve" smooth="yes"/>
      <point x="38" y="33"/>
      <point x="25" y="26"/>
      <point x="25" y="16" type="curve" smooth="yes"/>
      <point x="25" y="3"/>
      <point x="32" y="-3"/>
      <point x="45" y="-3" type="curve" smooth="yes"/>
      <point x="100" y="-3"/>
      <point x="126" y="2"/>
      <point x="181" y="2" type="curve" smooth="yes"/>
      <point x="204" y="2"/>
      <point x="259" y="1"/>
      <point x="282" y="0" type="curve" smooth="yes"/>
      <point x="294" y="-1"/>
      <point x="306" y="-3"/>
      <point x="319" y="-3" type="curve" smooth="yes"/>
      <point x="329" y="-3"/>
      <point x="336" y="6"/>
      <point x="336" y="15" type="curve" smooth="yes"/>
      <point x="336" y="22"/>
      <point x="327" y="34"/>
      <point x="319" y="34" type="curve" smooth="yes"/>
      <point x="302" y="34"/>
      <point x="289" y="33"/>
      <point x="272" y="33" type="curve" smooth="yes"/>
      <point x="259" y="33"/>
      <point x="254" y="48"/>
      <point x="254" y="57" type="curve" smooth="yes"/>
      <point x="254" y="161"/>
      <point x="253" y="265"/>
      <point x="253" y="369" type="curve"/>
      <point x="291" y="368" type="line"/>
      <point x="346" y="262"/>
      <point x="405" y="154"/>
      <point x="464" y="50" type="curve" smooth="yes"/>
      <point x="479" y="24"/>
      <point x="504" y="8"/>
      <point x="527" y="0" type="curve" smooth="yes"/>
      <point x="538" y="-4"/>
      <point x="574" y="-6"/>
      <point x="593" y="-6" type="curve" smooth="yes"/>
      <point x="603" y="-6"/>
      <point x="642" y="-5"/>
      <point x="667" y="-3" type="curve" smooth="yes"/>
      <point x="693" y="-1"/>
      <point x="717" y="8"/>
    </contour>
  </outline>
</glyph>
<glyph name="T" format="2">
  <advance height="1000" width="690"/>
  <unicode hex="0054"/>
  <note>
cid00053
</note>
  <outline>
    <contour>
      <point x="685" y="554" type="curve" smooth="yes"/>
      <point x="685" y="587"/>
      <point x="680" y="622"/>
      <point x="676" y="655" type="curve" smooth="yes"/>
      <point x="674" y="680"/>
      <point x="673" y="708"/>
      <point x="669" y="733" type="curve" smooth="yes"/>
      <point x="668" y="737"/>
      <point x="663" y="740"/>
      <point x="659" y="740" type="curve" smooth="yes"/>
      <point x="644" y="740"/>
      <point x="630" y="732"/>
      <point x="615" y="730" type="curve" smooth="yes"/>
      <point x="608" y="729"/>
      <point x="599" y="729"/>
      <point x="592" y="729" type="curve" smooth="yes"/>
      <point x="514" y="729"/>
      <point x="423" y="727"/>
      <point x="345" y="727" type="curve" smooth="yes"/>
      <point x="277" y="727"/>
      <point x="191" y="728"/>
      <point x="123" y="729" type="curve" smooth="yes"/>
      <point x="107" y="730"/>
      <point x="90" y="729"/>
      <point x="74" y="732" type="curve" smooth="yes"/>
      <point x="59" y="735"/>
      <point x="44" y="740"/>
      <point x="28" y="740" type="curve" smooth="yes"/>
      <point x="21" y="740"/>
      <point x="19" y="738"/>
      <point x="18" y="732" type="curve" smooth="yes"/>
      <point x="13" y="712"/>
      <point x="16" y="688"/>
      <point x="15" y="668" type="curve" smooth="yes"/>
      <point x="14" y="641"/>
      <point x="10" y="614"/>
      <point x="7" y="587" type="curve" smooth="yes"/>
      <point x="6" y="576"/>
      <point x="6" y="565"/>
      <point x="4" y="554" type="curve" smooth="yes"/>
      <point x="4" y="551"/>
      <point x="3" y="550"/>
      <point x="3" y="547" type="curve" smooth="yes"/>
      <point x="3" y="533"/>
      <point x="11" y="526"/>
      <point x="25" y="526" type="curve" smooth="yes"/>
      <point x="48" y="526"/>
      <point x="53" y="534"/>
      <point x="60" y="554" type="curve" smooth="yes"/>
      <point x="70" y="585"/>
      <point x="81" y="616"/>
      <point x="91" y="647" type="curve" smooth="yes"/>
      <point x="96" y="665"/>
      <point x="107" y="680"/>
      <point x="124" y="689" type="curve" smooth="yes"/>
      <point x="138" y="697"/>
      <point x="161" y="697"/>
      <point x="176" y="697" type="curve" smooth="yes"/>
      <point x="214" y="697" type="line" smooth="yes"/>
      <point x="260" y="696"/>
      <point x="271" y="702"/>
      <point x="271" y="653" type="curve" smooth="yes"/>
      <point x="271" y="78" type="line" smooth="yes"/>
      <point x="271" y="52"/>
      <point x="274" y="33"/>
      <point x="241" y="33" type="curve" smooth="yes"/>
      <point x="228" y="33"/>
      <point x="215" y="35"/>
      <point x="202" y="35" type="curve" smooth="yes"/>
      <point x="190" y="35"/>
      <point x="172" y="34"/>
      <point x="172" y="18" type="curve" smooth="yes"/>
      <point x="172" y="5"/>
      <point x="180" y="-4"/>
      <point x="194" y="-4" type="curve" smooth="yes"/>
      <point x="210" y="-4"/>
      <point x="227" y="-2"/>
      <point x="243" y="-1" type="curve" smooth="yes"/>
      <point x="294" y="2"/>
      <point x="346" y="1"/>
      <point x="396" y="1" type="curve" smooth="yes"/>
      <point x="415" y="1"/>
      <point x="433" y="1"/>
      <point x="452" y="0" type="curve" smooth="yes"/>
      <point x="467" y="-1"/>
      <point x="482" y="-4"/>
      <point x="497" y="-4" type="curve" smooth="yes"/>
      <point x="508" y="-4"/>
      <point x="517" y="4"/>
      <point x="517" y="15" type="curve" smooth="yes"/>
      <point x="517" y="25"/>
      <point x="509" y="35"/>
      <point x="498" y="35" type="curve" smooth="yes"/>
      <point x="478" y="35"/>
      <point x="459" y="33"/>
      <point x="439" y="33" type="curve" smooth="yes"/>
      <point x="419" y="33"/>
      <point x="419" y="58"/>
      <point x="419" y="72" type="curve" smooth="yes"/>
      <point x="419" y="209"/>
      <point x="418" y="346"/>
      <point x="418" y="484" type="curve" smooth="yes"/>
      <point x="418" y="581" type="line" smooth="yes"/>
      <point x="418" y="610"/>
      <point x="418" y="639"/>
      <point x="419" y="668" type="curve" smooth="yes"/>
      <point x="420" y="681"/>
      <point x="425" y="689"/>
      <point x="437" y="694" type="curve" smooth="yes"/>
      <point x="448" y="698"/>
      <point x="460" y="698"/>
      <point x="471" y="698" type="curve" smooth="yes"/>
      <point x="494" y="698"/>
      <point x="553" y="699"/>
      <point x="569" y="681" type="curve" smooth="yes"/>
      <point x="576" y="674"/>
      <point x="583" y="667"/>
      <point x="588" y="659" type="curve" smooth="yes"/>
      <point x="602" y="637"/>
      <point x="620" y="580"/>
      <point x="627" y="554" type="curve" smooth="yes"/>
      <point x="632" y="534"/>
      <point x="639" y="526"/>
      <point x="661" y="526" type="curve" smooth="yes"/>
      <point x="678" y="526"/>
      <point x="685" y="539"/>
    </contour>
  </outline>
</glyph>
<glyph name="V" format="2">
  <advance height="1000" width="754"/>
  <unicode hex="0056"/>
  <note>
cid00055
</note>
  <outline>
    <contour>
      <point x="752" y="715" type="curve" smooth="yes"/>
      <point x="752" y="726"/>
      <point x="742" y="735"/>
      <point x="731" y="735" type="curve" smooth="yes"/>
      <point x="690" y="735"/>
      <point x="658" y="732"/>
      <point x="617" y="732" type="curve" smooth="yes"/>
      <point x="586" y="732"/>
      <point x="546" y="734"/>
      <point x="515" y="734" type="curve" smooth="yes"/>
      <point x="503" y="734"/>
      <point x="495" y="725"/>
      <point x="495" y="714" type="curve" smooth="yes"/>
      <point x="495" y="700"/>
      <point x="505" y="695"/>
      <point x="517" y="695" type="curve" smooth="yes"/>
      <point x="529" y="695"/>
      <point x="544" y="697"/>
      <point x="556" y="697" type="curve" smooth="yes"/>
      <point x="575" y="697"/>
      <point x="586" y="699"/>
      <point x="585" y="681" type="curve" smooth="yes"/>
      <point x="584" y="664"/>
      <point x="579" y="640"/>
      <point x="574" y="622" type="curve" smooth="yes"/>
      <point x="532" y="451"/>
      <point x="470" y="265"/>
      <point x="420" y="112" type="curve"/>
      <point x="366" y="285"/>
      <point x="312" y="447"/>
      <point x="257" y="631" type="curve" smooth="yes"/>
      <point x="253" y="643"/>
      <point x="248" y="660"/>
      <point x="248" y="673" type="curve" smooth="yes"/>
      <point x="248" y="685"/>
      <point x="255" y="695"/>
      <point x="268" y="695" type="curve" smooth="yes"/>
      <point x="289" y="695"/>
      <point x="310" y="695"/>
      <point x="331" y="695" type="curve" smooth="yes"/>
      <point x="342" y="695"/>
      <point x="349" y="705"/>
      <point x="349" y="715" type="curve" smooth="yes"/>
      <point x="349" y="725"/>
      <point x="342" y="735"/>
      <point x="331" y="735" type="curve" smooth="yes"/>
      <point x="316" y="735"/>
      <point x="300" y="734"/>
      <point x="285" y="733" type="curve" smooth="yes"/>
      <point x="224" y="732"/>
      <point x="158" y="732"/>
      <point x="97" y="732" type="curve" smooth="yes"/>
      <point x="74" y="732"/>
      <point x="51" y="733"/>
      <point x="28" y="733" type="curve" smooth="yes"/>
      <point x="14" y="733"/>
      <point x="5" y="728"/>
      <point x="5" y="712" type="curve" smooth="yes"/>
      <point x="5" y="691"/>
      <point x="23" y="692"/>
      <point x="41" y="692" type="curve" smooth="yes"/>
      <point x="57" y="692"/>
      <point x="75" y="689"/>
      <point x="84" y="671" type="curve" smooth="yes"/>
      <point x="96" y="647"/>
      <point x="104" y="619"/>
      <point x="113" y="594" type="curve" smooth="yes"/>
      <point x="183" y="396"/>
      <point x="255" y="195"/>
      <point x="320" y="-4" type="curve"/>
      <point x="413" y="0" type="line" smooth="yes"/>
      <point x="433" y="1"/>
      <point x="444" y="19"/>
      <point x="450" y="35" type="curve" smooth="yes"/>
      <point x="505" y="196"/>
      <point x="554" y="329"/>
      <point x="604" y="485" type="curve" smooth="yes"/>
      <point x="622" y="541"/>
      <point x="649" y="621"/>
      <point x="668" y="672" type="curve" smooth="yes"/>
      <point x="672" y="682"/>
      <point x="678" y="695"/>
      <point x="692" y="695" type="curve" smooth="yes"/>
      <point x="704" y="695"/>
      <point x="717" y="694"/>
      <point x="729" y="694" type="curve" smooth="yes"/>
      <point x="743" y="694"/>
      <point x="752" y="701"/>
    </contour>
  </outline>
</glyph>
<glyph name="W" format="2">
  <advance height="1000" width="1000"/>
  <unicode hex="0057"/>
  <note>
cid00056
</note>
  <outline>
    <contour>
      <point x="987" y="715" type="curve" smooth="yes"/>
      <point x="987" y="727"/>
      <point x="977" y="734"/>
      <point x="966" y="734" type="curve" smooth="yes"/>
      <point x="932" y="734"/>
      <point x="898" y="731"/>
      <point x="864" y="731" type="curve" smooth="yes"/>
      <point x="820" y="731" type="line" smooth="yes"/>
      <point x="796" y="731"/>
      <point x="771" y="734"/>
      <point x="747" y="734" type="curve" smooth="yes"/>
      <point x="735" y="734"/>
      <point x="729" y="726"/>
      <point x="729" y="715" type="curve" smooth="yes"/>
      <point x="729" y="704"/>
      <point x="737" y="696"/>
      <point x="748" y="696" type="curve" smooth="yes"/>
      <point x="761" y="696"/>
      <point x="775" y="698"/>
      <point x="788" y="698" type="curve" smooth="yes"/>
      <point x="806" y="698"/>
      <point x="827" y="701"/>
      <point x="827" y="676" type="curve" smooth="yes"/>
      <point x="827" y="660"/>
      <point x="825" y="644"/>
      <point x="823" y="628" type="curve" smooth="yes"/>
      <point x="814" y="556"/>
      <point x="799" y="484"/>
      <point x="786" y="412" type="curve" smooth="yes"/>
      <point x="769" y="316"/>
      <point x="749" y="222"/>
      <point x="728" y="143" type="curve"/>
      <point x="691" y="271"/>
      <point x="654" y="399"/>
      <point x="617" y="527" type="curve" smooth="yes"/>
      <point x="605" y="570"/>
      <point x="591" y="614"/>
      <point x="580" y="657" type="curve" smooth="yes"/>
      <point x="576" y="673"/>
      <point x="573" y="693"/>
      <point x="566" y="708" type="curve" smooth="yes"/>
      <point x="558" y="725"/>
      <point x="543" y="725"/>
      <point x="526" y="725" type="curve" smooth="yes"/>
      <point x="505" y="725"/>
      <point x="496" y="719"/>
      <point x="490" y="700" type="curve" smooth="yes"/>
      <point x="484" y="682"/>
      <point x="481" y="661"/>
      <point x="476" y="642" type="curve" smooth="yes"/>
      <point x="466" y="601"/>
      <point x="456" y="560"/>
      <point x="445" y="520" type="curve" smooth="yes"/>
      <point x="412" y="395"/>
      <point x="372" y="271"/>
      <point x="338" y="146" type="curve"/>
      <point x="308" y="314"/>
      <point x="274" y="482"/>
      <point x="247" y="650" type="curve" smooth="yes"/>
      <point x="246" y="657"/>
      <point x="245" y="664"/>
      <point x="245" y="671" type="curve" smooth="yes"/>
      <point x="245" y="690"/>
      <point x="250" y="695"/>
      <point x="269" y="695" type="curve" smooth="yes"/>
      <point x="278" y="695"/>
      <point x="287" y="694"/>
      <point x="296" y="694" type="curve" smooth="yes"/>
      <point x="309" y="694"/>
      <point x="317" y="703"/>
      <point x="317" y="715" type="curve" smooth="yes"/>
      <point x="317" y="724"/>
      <point x="305" y="734"/>
      <point x="296" y="734" type="curve" smooth="yes"/>
      <point x="249" y="734"/>
      <point x="201" y="730"/>
      <point x="154" y="730" type="curve" smooth="yes"/>
      <point x="114" y="730"/>
      <point x="73" y="734"/>
      <point x="33" y="734" type="curve" smooth="yes"/>
      <point x="24" y="734"/>
      <point x="9" y="726"/>
      <point x="9" y="716" type="curve" smooth="yes"/>
      <point x="9" y="703"/>
      <point x="17" y="691"/>
      <point x="31" y="691" type="curve" smooth="yes"/>
      <point x="40" y="691"/>
      <point x="52" y="692"/>
      <point x="61" y="692" type="curve" smooth="yes"/>
      <point x="85" y="692"/>
      <point x="90" y="680"/>
      <point x="96" y="659" type="curve" smooth="yes"/>
      <point x="104" y="633"/>
      <point x="107" y="605"/>
      <point x="113" y="579" type="curve" smooth="yes"/>
      <point x="145" y="434" type="line" smooth="yes"/>
      <point x="177" y="289"/>
      <point x="208" y="143"/>
      <point x="236" y="-2" type="curve"/>
      <point x="350" y="-2" type="line"/>
      <point x="399" y="158"/>
      <point x="448" y="322"/>
      <point x="494" y="483" type="curve"/>
      <point x="540" y="322"/>
      <point x="590" y="160"/>
      <point x="633" y="-2" type="curve"/>
      <point x="754" y="-2" type="line"/>
      <point x="801" y="203"/>
      <point x="860" y="449"/>
      <point x="897" y="617" type="curve" smooth="yes"/>
      <point x="901" y="635"/>
      <point x="905" y="657"/>
      <point x="913" y="673" type="curve" smooth="yes"/>
      <point x="920" y="688"/>
      <point x="935" y="694"/>
      <point x="951" y="694" type="curve" smooth="yes"/>
      <point x="968" y="694"/>
      <point x="987" y="692"/>
    </contour>
  </outline>
</glyph>
<glyph name="X" format="2">
  <advance height="1000" width="765"/>
  <unicode hex="0058"/>
  <note>
cid00057
</note>
  <outline>
    <contour>
      <point x="768" y="21" type="curve" smooth="yes"/>
      <point x="768" y="34"/>
      <point x="755" y="38"/>
      <point x="744" y="38" type="curve" smooth="yes"/>
      <point x="737" y="38"/>
      <point x="721" y="37"/>
      <point x="714" y="37" type="curve" smooth="yes"/>
      <point x="694" y="37"/>
      <point x="682" y="48"/>
      <point x="672" y="63" type="curve" smooth="yes"/>
      <point x="594" y="174"/>
      <point x="509" y="287"/>
      <point x="437" y="401" type="curve"/>
      <point x="493" y="490"/>
      <point x="560" y="576"/>
      <point x="619" y="662" type="curve" smooth="yes"/>
      <point x="624" y="670"/>
      <point x="632" y="679"/>
      <point x="640" y="685" type="curve" smooth="yes"/>
      <point x="646" y="690"/>
      <point x="658" y="693"/>
      <point x="667" y="693" type="curve" smooth="yes"/>
      <point x="676" y="693"/>
      <point x="686" y="694"/>
      <point x="695" y="694" type="curve" smooth="yes"/>
      <point x="710" y="694"/>
      <point x="724" y="699"/>
      <point x="724" y="716" type="curve" smooth="yes"/>
      <point x="724" y="727"/>
      <point x="716" y="735"/>
      <point x="705" y="735" type="curve" smooth="yes"/>
      <point x="664" y="735"/>
      <point x="623" y="731"/>
      <point x="582" y="731" type="curve" smooth="yes"/>
      <point x="545" y="731" type="line" smooth="yes"/>
      <point x="522" y="731"/>
      <point x="499" y="733"/>
      <point x="476" y="733" type="curve" smooth="yes"/>
      <point x="464" y="733"/>
      <point x="457" y="726"/>
      <point x="457" y="714" type="curve" smooth="yes"/>
      <point x="457" y="698"/>
      <point x="472" y="697"/>
      <point x="485" y="697" type="curve" smooth="yes"/>
      <point x="493" y="697"/>
      <point x="500" y="698"/>
      <point x="508" y="698" type="curve" smooth="yes"/>
      <point x="523" y="698"/>
      <point x="534" y="700"/>
      <point x="534" y="687" type="curve" smooth="yes"/>
      <point x="534" y="657"/>
      <point x="425" y="479"/>
      <point x="404" y="441" type="curve"/>
      <point x="349" y="535"/>
      <point x="292" y="628"/>
      <point x="241" y="723" type="curve" smooth="yes"/>
      <point x="239" y="727"/>
      <point x="238" y="730"/>
      <point x="235" y="733" type="curve"/>
      <point x="229" y="743"/>
      <point x="220" y="742"/>
      <point x="209" y="742" type="curve" smooth="yes"/>
      <point x="192" y="742"/>
      <point x="170" y="737"/>
      <point x="152" y="735" type="curve" smooth="yes"/>
      <point x="116" y="731"/>
      <point x="75" y="727"/>
      <point x="38" y="727" type="curve" smooth="yes"/>
      <point x="24" y="727"/>
      <point x="13" y="721"/>
      <point x="13" y="706" type="curve" smooth="yes"/>
      <point x="13" y="693"/>
      <point x="20" y="685"/>
      <point x="34" y="685" type="curve" smooth="yes"/>
      <point x="47" y="685"/>
      <point x="58" y="689"/>
      <point x="71" y="689" type="curve" smooth="yes"/>
      <point x="80" y="689"/>
      <point x="93" y="687"/>
      <point x="99" y="680" type="curve" smooth="yes"/>
      <point x="122" y="653"/>
      <point x="165" y="598"/>
      <point x="184" y="566" type="curve" smooth="yes"/>
      <point x="229" y="493"/>
      <point x="276" y="420"/>
      <point x="320" y="346" type="curve"/>
      <point x="270" y="265"/>
      <point x="203" y="185"/>
      <point x="148" y="106" type="curve" smooth="yes"/>
      <point x="134" y="86"/>
      <point x="114" y="65"/>
      <point x="98" y="49" type="curve" smooth="yes"/>
      <point x="84" y="35"/>
      <point x="66" y="34"/>
      <point x="46" y="34" type="curve" smooth="yes"/>
      <point x="31" y="34"/>
      <point x="3" y="39"/>
      <point x="3" y="16" type="curve" smooth="yes"/>
      <point x="3" y="8"/>
      <point x="13" y="-2"/>
      <point x="22" y="-2" type="curve" smooth="yes"/>
      <point x="75" y="-2"/>
      <point x="130" y="0"/>
      <point x="183" y="0" type="curve" smooth="yes"/>
      <point x="205" y="0"/>
      <point x="226" y="-2"/>
      <point x="248" y="-2" type="curve" smooth="yes"/>
      <point x="261" y="-2"/>
      <point x="268" y="3"/>
      <point x="268" y="16" type="curve" smooth="yes"/>
      <point x="268" y="26"/>
      <point x="260" y="33"/>
      <point x="250" y="33" type="curve" smooth="yes"/>
      <point x="230" y="33"/>
      <point x="209" y="32"/>
      <point x="189" y="32" type="curve" smooth="yes"/>
      <point x="185" y="32"/>
      <point x="181" y="32"/>
      <point x="181" y="37" type="curve" smooth="yes"/>
      <point x="181" y="49"/>
      <point x="333" y="271"/>
      <point x="353" y="304" type="curve"/>
      <point x="388" y="246"/>
      <point x="420" y="197"/>
      <point x="451" y="143" type="curve" smooth="yes"/>
      <point x="468" y="115"/>
      <point x="488" y="85"/>
      <point x="501" y="55" type="curve" smooth="yes"/>
      <point x="503" y="51"/>
      <point x="504" y="46"/>
      <point x="504" y="42" type="curve" smooth="yes"/>
      <point x="504" y="32"/>
      <point x="493" y="32"/>
      <point x="486" y="32" type="curve" smooth="yes"/>
      <point x="470" y="32"/>
      <point x="443" y="37"/>
      <point x="443" y="13" type="curve" smooth="yes"/>
      <point x="443" y="2"/>
      <point x="454" y="-1"/>
      <point x="464" y="-1" type="curve" smooth="yes"/>
      <point x="726" y="-1" type="line" smooth="yes"/>
      <point x="744" y="-1"/>
      <point x="768" y="-1"/>
    </contour>
  </outline>
</glyph>
<glyph name="Z" format="2">
  <advance height="1000" width="645"/>
  <unicode hex="005A"/>
  <note>
cid00059
</note>
  <outline>
    <contour>
      <point x="622" y="231" type="curve" smooth="yes"/>
      <point x="622" y="244"/>
      <point x="610" y="250"/>
      <point x="599" y="250" type="curve" smooth="yes"/>
      <point x="581" y="250"/>
      <point x="578" y="237"/>
      <point x="573" y="223" type="curve" smooth="yes"/>
      <point x="556" y="171"/>
      <point x="532" y="116"/>
      <point x="492" y="82" type="curve" smooth="yes"/>
      <point x="473" y="65"/>
      <point x="441" y="53"/>
      <point x="415" y="50" type="curve" smooth="yes"/>
      <point x="371" y="45"/>
      <point x="332" y="44"/>
      <point x="288" y="44" type="curve" smooth="yes"/>
      <point x="239" y="44" type="line" smooth="yes"/>
      <point x="224" y="44"/>
      <point x="203" y="45"/>
      <point x="203" y="64" type="curve" smooth="yes"/>
      <point x="203" y="82"/>
      <point x="211" y="97"/>
      <point x="221" y="112" type="curve" smooth="yes"/>
      <point x="513" y="561" type="line"/>
      <point x="591" y="680" type="line" smooth="yes"/>
      <point x="599" y="693"/>
      <point x="605" y="697"/>
      <point x="605" y="714" type="curve" smooth="yes"/>
      <point x="605" y="722"/>
      <point x="596" y="732"/>
      <point x="587" y="732" type="curve" smooth="yes"/>
      <point x="555" y="732"/>
      <point x="522" y="730"/>
      <point x="490" y="729" type="curve" smooth="yes"/>
      <point x="421" y="727"/>
      <point x="354" y="727"/>
      <point x="285" y="727" type="curve" smooth="yes"/>
      <point x="233" y="727"/>
      <point x="165" y="726"/>
      <point x="112" y="730" type="curve" smooth="yes"/>
      <point x="99" y="731"/>
      <point x="83" y="735"/>
      <point x="69" y="735" type="curve" smooth="yes"/>
      <point x="62" y="735"/>
      <point x="54" y="726"/>
      <point x="54" y="719" type="curve" smooth="yes"/>
      <point x="55" y="694"/>
      <point x="52" y="620"/>
      <point x="51" y="607" type="curve" smooth="yes"/>
      <point x="49" y="585"/>
      <point x="47" y="548"/>
      <point x="47" y="536" type="curve" smooth="yes"/>
      <point x="47" y="523"/>
      <point x="60" y="515"/>
      <point x="72" y="515" type="curve" smooth="yes"/>
      <point x="89" y="515"/>
      <point x="100" y="524"/>
      <point x="104" y="540" type="curve" smooth="yes"/>
      <point x="108" y="557"/>
      <point x="116" y="583"/>
      <point x="124" y="600" type="curve" smooth="yes"/>
      <point x="141" y="634"/>
      <point x="176" y="680"/>
      <point x="216" y="687" type="curve" smooth="yes"/>
      <point x="247" y="693"/>
      <point x="291" y="695"/>
      <point x="323" y="695" type="curve" smooth="yes"/>
      <point x="347" y="695"/>
      <point x="398" y="702"/>
      <point x="398" y="667" type="curve" smooth="yes"/>
      <point x="398" y="609"/>
      <point x="140" y="213"/>
      <point x="92" y="147" type="curve" smooth="yes"/>
      <point x="42" y="79" type="line" smooth="yes"/>
      <point x="35" y="68"/>
      <point x="27" y="58"/>
      <point x="21" y="47" type="curve" smooth="yes"/>
      <point x="18" y="41"/>
      <point x="17" y="34"/>
      <point x="17" y="28" type="curve" smooth="yes"/>
      <point x="17" y="13"/>
      <point x="26" y="-2"/>
      <point x="43" y="-2" type="curve" smooth="yes"/>
      <point x="49" y="-2"/>
      <point x="55" y="0"/>
      <point x="61" y="0" type="curve" smooth="yes"/>
      <point x="99" y="0"/>
      <point x="140" y="2"/>
      <point x="177" y="3" type="curve" smooth="yes"/>
      <point x="281" y="4"/>
      <point x="393" y="5"/>
      <point x="497" y="5" type="curve" smooth="yes"/>
      <point x="512" y="5"/>
      <point x="527" y="5"/>
      <point x="543" y="4" type="curve" smooth="yes"/>
      <point x="555" y="3"/>
      <point x="567" y="-1"/>
      <point x="580" y="-1" type="curve" smooth="yes"/>
      <point x="589" y="-1"/>
      <point x="593" y="0"/>
      <point x="598" y="8" type="curve" smooth="yes"/>
      <point x="600" y="11"/>
      <point x="604" y="60"/>
      <point x="610" y="114" type="curve" smooth="yes"/>
      <point x="616" y="162"/>
      <point x="622" y="221"/>
    </contour>
  </outline>
</glyph>
<glyph name="asciicircum" format="2">
  <advance height="1000" width="560"/>
  <unicode hex="005E"/>
  <note>
cid00063
</note>
  <outline>
    <contour>
      <point x="538" y="478" type="line"/>
      <point x="328" y="749" type="line"/>
      <point x="232" y="749" type="line"/>
      <point x="22" y="478" type="line"/>
      <point x="116" y="478" type="line"/>
      <point x="280" y="683" type="line"/>
      <point x="444" y="478" type="line"/>
    </contour>
  </outline>
</glyph>
<glyph name="underscore" format="2">
  <advance height="1000" width="500"/>
  <unicode hex="005F"/>
  <note>
cid00064
</note>
  <outline>
    <contour>
      <point x="498" y="-119" type="line"/>
      <point x="498" y="-79" type="line"/>
      <point x="2" y="-79" type="line"/>
      <point x="2" y="-119" type="line"/>
    </contour>
  </outline>
</glyph>
<glyph name="grave" format="2">
  <advance height="1000" width="390"/>
  <unicode hex="0060"/>
  <note>
cid00065
</note>
  <outline>
    <contour>
      <point x="281" y="578" type="curve" smooth="yes"/>
      <point x="281" y="582"/>
      <point x="280" y="585"/>
      <point x="280" y="589" type="curve"/>
      <point x="240" y="803" type="line" smooth="yes"/>
      <point x="234" y="832"/>
      <point x="208" y="859"/>
      <point x="177" y="859" type="curve" smooth="yes"/>
      <point x="143" y="859"/>
      <point x="110" y="833"/>
      <point x="110" y="799" type="curve" smooth="yes"/>
      <point x="110" y="784"/>
      <point x="116" y="769"/>
      <point x="123" y="755" type="curve" smooth="yes"/>
      <point x="156" y="698"/>
      <point x="187" y="640"/>
      <point x="218" y="581" type="curve" smooth="yes"/>
      <point x="226" y="567"/>
      <point x="237" y="549"/>
      <point x="254" y="549" type="curve" smooth="yes"/>
      <point x="273" y="549"/>
      <point x="281" y="559"/>
    </contour>
  </outline>
</glyph>
<glyph name="b" format="2">
  <advance height="1000" width="610"/>
  <unicode hex="0062"/>
  <note>
cid00067
</note>
  <outline>
    <contour>
      <point x="434" y="284" type="curve" smooth="yes"/>
      <point x="434" y="188"/>
      <point x="405" y="34"/>
      <point x="279" y="34" type="curve" smooth="yes"/>
      <point x="240" y="34"/>
      <point x="234" y="55"/>
      <point x="234" y="89" type="curve" smooth="yes"/>
      <point x="234" y="431" type="line" smooth="yes"/>
      <point x="234" y="434"/>
      <point x="238" y="443"/>
      <point x="240" y="446" type="curve" smooth="yes"/>
      <point x="256" y="472"/>
      <point x="293" y="500"/>
      <point x="325" y="500" type="curve" smooth="yes"/>
      <point x="340" y="500"/>
      <point x="355" y="493"/>
      <point x="367" y="484" type="curve" smooth="yes"/>
      <point x="423" y="443"/>
      <point x="434" y="348"/>
    </contour>
    <contour>
      <point x="577" y="285" type="curve" smooth="yes"/>
      <point x="577" y="421"/>
      <point x="508" y="535"/>
      <point x="355" y="535" type="curve" smooth="yes"/>
      <point x="313" y="535"/>
      <point x="269" y="523"/>
      <point x="233" y="503" type="curve"/>
      <point x="233" y="755" type="line" smooth="yes"/>
      <point x="233" y="768"/>
      <point x="225" y="777"/>
      <point x="212" y="777" type="curve" smooth="yes"/>
      <point x="201" y="777"/>
      <point x="186" y="772"/>
      <point x="176" y="769" type="curve" smooth="yes"/>
      <point x="140" y="759"/>
      <point x="104" y="753"/>
      <point x="68" y="748" type="curve" smooth="yes"/>
      <point x="55" y="746"/>
      <point x="36" y="743"/>
      <point x="25" y="741" type="curve" smooth="yes"/>
      <point x="17" y="740"/>
      <point x="14" y="735"/>
      <point x="14" y="727" type="curve" smooth="yes"/>
      <point x="14" y="720"/>
      <point x="20" y="713"/>
      <point x="27" y="714" type="curve" smooth="yes"/>
      <point x="41" y="715"/>
      <point x="66" y="718"/>
      <point x="85" y="718" type="curve" smooth="yes"/>
      <point x="102" y="718"/>
      <point x="102" y="698"/>
      <point x="102" y="686" type="curve" smooth="yes"/>
      <point x="102" y="87" type="line" smooth="yes"/>
      <point x="102" y="67"/>
      <point x="99" y="47"/>
      <point x="95" y="27" type="curve" smooth="yes"/>
      <point x="94" y="24"/>
      <point x="93" y="20"/>
      <point x="93" y="16" type="curve" smooth="yes"/>
      <point x="93" y="7"/>
      <point x="104" y="4"/>
      <point x="112" y="4" type="curve" smooth="yes"/>
      <point x="126" y="4"/>
      <point x="139" y="7"/>
      <point x="152" y="10" type="curve" smooth="yes"/>
      <point x="166" y="13"/>
      <point x="181" y="14"/>
      <point x="195" y="14" type="curve" smooth="yes"/>
      <point x="201" y="14"/>
      <point x="206" y="13"/>
      <point x="212" y="12" type="curve" smooth="yes"/>
      <point x="240" y="6"/>
      <point x="270" y="2"/>
      <point x="299" y="2" type="curve" smooth="yes"/>
      <point x="472" y="2"/>
      <point x="577" y="119"/>
    </contour>
  </outline>
</glyph>
<glyph name="c" format="2">
  <advance height="1000" width="540"/>
  <unicode hex="0063"/>
  <note>
cid00068
</note>
  <outline>
    <contour>
      <point x="531" y="137" type="curve" smooth="yes"/>
      <point x="531" y="148"/>
      <point x="518" y="157"/>
      <point x="508" y="157" type="curve" smooth="yes"/>
      <point x="500" y="157"/>
      <point x="495" y="153"/>
      <point x="489" y="148" type="curve" smooth="yes"/>
      <point x="484" y="143"/>
      <point x="481" y="136"/>
      <point x="476" y="130" type="curve" smooth="yes"/>
      <point x="437" y="79"/>
      <point x="378" y="37"/>
      <point x="309" y="37" type="curve" smooth="yes"/>
      <point x="209" y="37"/>
      <point x="175" y="190"/>
      <point x="175" y="265" type="curve" smooth="yes"/>
      <point x="175" y="342"/>
      <point x="193" y="440"/>
      <point x="254" y="493" type="curve" smooth="yes"/>
      <point x="269" y="507"/>
      <point x="290" y="516"/>
      <point x="311" y="516" type="curve" smooth="yes"/>
      <point x="331" y="516"/>
      <point x="360" y="497"/>
      <point x="374" y="484" type="curve" smooth="yes"/>
      <point x="413" y="449"/>
      <point x="428" y="401"/>
      <point x="442" y="353" type="curve" smooth="yes"/>
      <point x="446" y="340"/>
      <point x="452" y="333"/>
      <point x="467" y="333" type="curve" smooth="yes"/>
      <point x="488" y="333"/>
      <point x="495" y="345"/>
      <point x="494" y="362" type="curve" smooth="yes"/>
      <point x="493" y="386"/>
      <point x="490" y="433"/>
      <point x="489" y="466" type="curve" smooth="yes"/>
      <point x="488" y="479"/>
      <point x="488" y="495"/>
      <point x="487" y="505" type="curve" smooth="yes"/>
      <point x="486" y="513"/>
      <point x="485" y="519"/>
      <point x="476" y="519" type="curve" smooth="yes"/>
      <point x="472" y="519"/>
      <point x="467" y="514"/>
      <point x="461" y="510" type="curve" smooth="yes"/>
      <point x="453" y="505"/>
      <point x="444" y="499"/>
      <point x="436" y="499" type="curve" smooth="yes"/>
      <point x="432" y="499"/>
      <point x="418" y="506"/>
      <point x="414" y="508" type="curve" smooth="yes"/>
      <point x="397" y="518"/>
      <point x="378" y="528"/>
      <point x="360" y="534" type="curve" smooth="yes"/>
      <point x="341" y="540"/>
      <point x="321" y="544"/>
      <point x="301" y="544" type="curve" smooth="yes"/>
      <point x="133" y="544"/>
      <point x="41" y="413"/>
      <point x="41" y="259" type="curve" smooth="yes"/>
      <point x="41" y="176"/>
      <point x="72" y="92"/>
      <point x="143" y="42" type="curve" smooth="yes"/>
      <point x="184" y="12"/>
      <point x="251" y="-2"/>
      <point x="302" y="-2" type="curve" smooth="yes"/>
      <point x="389" y="-2"/>
      <point x="483" y="45"/>
      <point x="525" y="120" type="curve" smooth="yes"/>
      <point x="528" y="126"/>
      <point x="531" y="131"/>
    </contour>
  </outline>
</glyph>
<glyph name="d" format="2">
  <advance height="1000" width="606"/>
  <unicode hex="0064"/>
  <note>
cid00069
</note>
  <outline>
    <contour>
      <point x="392" y="374" type="curve" smooth="yes"/>
      <point x="392" y="141" type="line" smooth="yes"/>
      <point x="392" y="140"/>
      <point x="384" y="123"/>
      <point x="384" y="122" type="curve"/>
      <point x="368" y="92"/>
      <point x="326" y="44"/>
      <point x="286" y="44" type="curve" smooth="yes"/>
      <point x="187" y="44"/>
      <point x="177" y="196"/>
      <point x="177" y="264" type="curve" smooth="yes"/>
      <point x="177" y="335"/>
      <point x="203" y="502"/>
      <point x="303" y="502" type="curve" smooth="yes"/>
      <point x="365" y="502"/>
      <point x="392" y="422"/>
    </contour>
    <contour>
      <point x="602" y="47" type="curve" smooth="yes"/>
      <point x="602" y="54"/>
      <point x="598" y="56"/>
      <point x="591" y="56" type="curve" smooth="yes"/>
      <point x="579" y="56"/>
      <point x="567" y="51"/>
      <point x="555" y="51" type="curve" smooth="yes"/>
      <point x="522" y="51"/>
      <point x="524" y="93"/>
      <point x="524" y="116" type="curve" smooth="yes"/>
      <point x="524" y="762" type="line" smooth="yes"/>
      <point x="524" y="773"/>
      <point x="517" y="779"/>
      <point x="506" y="779" type="curve" smooth="yes"/>
      <point x="499" y="779"/>
      <point x="494" y="777"/>
      <point x="487" y="775" type="curve" smooth="yes"/>
      <point x="463" y="767"/>
      <point x="437" y="762"/>
      <point x="412" y="757" type="curve" smooth="yes"/>
      <point x="384" y="752"/>
      <point x="356" y="748"/>
      <point x="327" y="746" type="curve" smooth="yes"/>
      <point x="316" y="746"/>
      <point x="298" y="746"/>
      <point x="298" y="730" type="curve" smooth="yes"/>
      <point x="298" y="720"/>
      <point x="306" y="715"/>
      <point x="315" y="716" type="curve" smooth="yes"/>
      <point x="373" y="718" type="line" smooth="yes"/>
      <point x="391" y="718"/>
      <point x="390" y="691"/>
      <point x="390" y="680" type="curve" smooth="yes"/>
      <point x="390" y="513" type="line"/>
      <point x="366" y="524"/>
      <point x="328" y="534"/>
      <point x="301" y="534" type="curve" smooth="yes"/>
      <point x="124" y="534"/>
      <point x="37" y="420"/>
      <point x="37" y="259" type="curve" smooth="yes"/>
      <point x="37" y="175"/>
      <point x="71" y="85"/>
      <point x="145" y="35" type="curve" smooth="yes"/>
      <point x="181" y="11"/>
      <point x="237" y="5"/>
      <point x="280" y="5" type="curve" smooth="yes"/>
      <point x="326" y="5"/>
      <point x="374" y="34"/>
      <point x="401" y="68" type="curve"/>
      <point x="417" y="25"/>
      <point x="449" y="2"/>
      <point x="496" y="2" type="curve" smooth="yes"/>
      <point x="531" y="2"/>
      <point x="562" y="15"/>
      <point x="591" y="32" type="curve" smooth="yes"/>
      <point x="598" y="36"/>
      <point x="602" y="38"/>
    </contour>
  </outline>
</glyph>
<glyph name="f" format="2">
  <advance height="1000" width="390"/>
  <unicode hex="0066"/>
  <note>
cid00071
</note>
  <outline>
    <contour>
      <point x="423" y="625" type="curve" smooth="yes"/>
      <point x="423" y="654"/>
      <point x="416" y="697"/>
      <point x="414" y="728" type="curve"/>
      <point x="411" y="727"/>
      <point x="406" y="725"/>
      <point x="402" y="725" type="curve" smooth="yes"/>
      <point x="393" y="725"/>
      <point x="384" y="727"/>
      <point x="366" y="735" type="curve" smooth="yes"/>
      <point x="345" y="743"/>
      <point x="314" y="750"/>
      <point x="292" y="750" type="curve" smooth="yes"/>
      <point x="169" y="750"/>
      <point x="102" y="707"/>
      <point x="102" y="577" type="curve" smooth="yes"/>
      <point x="102" y="504" type="line"/>
      <point x="39" y="504" type="line" smooth="yes"/>
      <point x="28" y="504"/>
      <point x="24" y="504"/>
      <point x="20" y="492" type="curve" smooth="yes"/>
      <point x="18" y="487"/>
      <point x="14" y="471"/>
      <point x="14" y="466" type="curve" smooth="yes"/>
      <point x="14" y="457"/>
      <point x="17" y="453"/>
      <point x="28" y="453" type="curve" smooth="yes"/>
      <point x="39" y="453"/>
      <point x="44" y="467"/>
      <point x="56" y="467" type="curve" smooth="yes"/>
      <point x="102" y="467" type="line"/>
      <point x="102" y="73" type="line" smooth="yes"/>
      <point x="102" y="60"/>
      <point x="99" y="34"/>
      <point x="80" y="34" type="curve" smooth="yes"/>
      <point x="64" y="34"/>
      <point x="48" y="35"/>
      <point x="32" y="35" type="curve" smooth="yes"/>
      <point x="22" y="35"/>
      <point x="15" y="27"/>
      <point x="15" y="17" type="curve" smooth="yes"/>
      <point x="15" y="6"/>
      <point x="24" y="-2"/>
      <point x="35" y="-2" type="curve" smooth="yes"/>
      <point x="75" y="-2"/>
      <point x="117" y="1"/>
      <point x="157" y="1" type="curve" smooth="yes"/>
      <point x="204" y="1"/>
      <point x="252" y="-3"/>
      <point x="299" y="-3" type="curve" smooth="yes"/>
      <point x="310" y="-3"/>
      <point x="323" y="0"/>
      <point x="323" y="18" type="curve" smooth="yes"/>
      <point x="323" y="30"/>
      <point x="313" y="36"/>
      <point x="304" y="36" type="curve" smooth="yes"/>
      <point x="288" y="36"/>
      <point x="271" y="35"/>
      <point x="255" y="35" type="curve" smooth="yes"/>
      <point x="237" y="35"/>
      <point x="238" y="65"/>
      <point x="238" y="77" type="curve" smooth="yes"/>
      <point x="238" y="160"/>
      <point x="237" y="243"/>
      <point x="237" y="326" type="curve" smooth="yes"/>
      <point x="237" y="465" type="line"/>
      <point x="342" y="465" type="line" smooth="yes"/>
      <point x="353" y="465"/>
      <point x="361" y="475"/>
      <point x="361" y="485" type="curve" smooth="yes"/>
      <point x="361" y="496"/>
      <point x="354" y="504"/>
      <point x="342" y="504" type="curve" smooth="yes"/>
      <point x="233" y="504" type="line"/>
      <point x="232" y="547"/>
      <point x="231" y="594"/>
      <point x="231" y="636" type="curve" smooth="yes"/>
      <point x="231" y="669"/>
      <point x="246" y="721"/>
      <point x="287" y="721" type="curve" smooth="yes"/>
      <point x="311" y="721"/>
      <point x="327" y="709"/>
      <point x="338" y="693" type="curve" smooth="yes"/>
      <point x="346" y="681"/>
      <point x="352" y="665"/>
      <point x="356" y="651" type="curve" smooth="yes"/>
      <point x="366" y="618"/>
      <point x="372" y="597"/>
      <point x="392" y="597" type="curve" smooth="yes"/>
      <point x="411" y="597"/>
      <point x="423" y="608"/>
    </contour>
  </outline>
</glyph>
<glyph name="g" format="2">
  <advance height="1000" width="552"/>
  <unicode hex="0067"/>
  <note>
cid00072
</note>
  <outline>
    <contour>
      <point x="377" y="-38" type="curve" smooth="yes"/>
      <point x="377" y="-103"/>
      <point x="344" y="-144"/>
      <point x="275" y="-144" type="curve" smooth="yes"/>
      <point x="203" y="-144"/>
      <point x="157" y="-119"/>
      <point x="157" y="-43" type="curve" smooth="yes"/>
      <point x="157" y="-5"/>
      <point x="163" y="23"/>
      <point x="190" y="53" type="curve"/>
      <point x="262" y="45" type="line" smooth="yes"/>
      <point x="322" y="39"/>
      <point x="377" y="36"/>
    </contour>
    <contour>
      <point x="334" y="374" type="curve" smooth="yes"/>
      <point x="334" y="344" type="line" smooth="yes"/>
      <point x="334" y="301"/>
      <point x="333" y="211"/>
      <point x="270" y="211" type="curve" smooth="yes"/>
      <point x="196" y="211"/>
      <point x="194" y="297"/>
      <point x="194" y="350" type="curve" smooth="yes"/>
      <point x="194" y="402"/>
      <point x="192" y="514"/>
      <point x="270" y="514" type="curve" smooth="yes"/>
      <point x="334" y="514"/>
      <point x="334" y="418"/>
    </contour>
    <contour>
      <point x="538" y="521" type="curve" smooth="yes"/>
      <point x="538" y="534"/>
      <point x="543" y="563"/>
      <point x="522" y="563" type="curve" smooth="yes"/>
      <point x="506" y="563"/>
      <point x="494" y="534"/>
      <point x="465" y="526" type="curve" smooth="yes"/>
      <point x="441" y="519"/>
      <point x="414" y="515"/>
      <point x="389" y="515" type="curve" smooth="yes"/>
      <point x="353" y="515"/>
      <point x="311" y="536"/>
      <point x="266" y="536" type="curve" smooth="yes"/>
      <point x="164" y="536"/>
      <point x="58" y="475"/>
      <point x="58" y="366" type="curve" smooth="yes"/>
      <point x="58" y="301"/>
      <point x="83" y="262"/>
      <point x="135" y="223" type="curve" smooth="yes"/>
      <point x="141" y="218"/>
      <point x="148" y="213"/>
      <point x="155" y="209" type="curve"/>
      <point x="133" y="188"/>
      <point x="69" y="127"/>
      <point x="69" y="97" type="curve" smooth="yes"/>
      <point x="69" y="77"/>
      <point x="101" y="64"/>
      <point x="118" y="60" type="curve"/>
      <point x="79" y="27"/>
      <point x="35" y="-14"/>
      <point x="35" y="-67" type="curve" smooth="yes"/>
      <point x="35" y="-163"/>
      <point x="199" y="-176"/>
      <point x="270" y="-176" type="curve" smooth="yes"/>
      <point x="363" y="-176"/>
      <point x="514" y="-140"/>
      <point x="514" y="-26" type="curve" smooth="yes"/>
      <point x="514" y="-10"/>
      <point x="513" y="1"/>
      <point x="505" y="16" type="curve" smooth="yes"/>
      <point x="464" y="92"/>
      <point x="364" y="87"/>
      <point x="288" y="91" type="curve" smooth="yes"/>
      <point x="267" y="92"/>
      <point x="237" y="94"/>
      <point x="217" y="101" type="curve" smooth="yes"/>
      <point x="207" y="105"/>
      <point x="196" y="116"/>
      <point x="196" y="127" type="curve" smooth="yes"/>
      <point x="196" y="156"/>
      <point x="209" y="169"/>
      <point x="229" y="187" type="curve"/>
      <point x="242" y="187"/>
      <point x="256" y="186"/>
      <point x="270" y="186" type="curve" smooth="yes"/>
      <point x="369" y="186"/>
      <point x="468" y="251"/>
      <point x="468" y="355" type="curve" smooth="yes"/>
      <point x="468" y="396"/>
      <point x="449" y="455"/>
      <point x="419" y="484" type="curve"/>
      <point x="432" y="482"/>
      <point x="445" y="482"/>
      <point x="458" y="482" type="curve" smooth="yes"/>
      <point x="476" y="482"/>
      <point x="532" y="486"/>
      <point x="537" y="506" type="curve" smooth="yes"/>
      <point x="538" y="511"/>
      <point x="538" y="517"/>
    </contour>
  </outline>
</glyph>
<glyph name="h" format="2">
  <advance height="1000" width="636"/>
  <unicode hex="0068"/>
  <note>
cid00073
</note>
  <outline>
    <contour>
      <point x="618" y="17" type="curve" smooth="yes"/>
      <point x="618" y="27"/>
      <point x="609" y="35"/>
      <point x="599" y="35" type="curve" smooth="yes"/>
      <point x="587" y="35"/>
      <point x="575" y="32"/>
      <point x="563" y="32" type="curve" smooth="yes"/>
      <point x="554" y="32"/>
      <point x="552" y="39"/>
      <point x="552" y="46" type="curve" smooth="yes"/>
      <point x="552" y="361" type="line" smooth="yes"/>
      <point x="552" y="494"/>
      <point x="513" y="539"/>
      <point x="375" y="539" type="curve" smooth="yes"/>
      <point x="323" y="539"/>
      <point x="269" y="510"/>
      <point x="231" y="476" type="curve"/>
      <point x="231" y="761" type="line" smooth="yes"/>
      <point x="231" y="771"/>
      <point x="227" y="776"/>
      <point x="217" y="776" type="curve" smooth="yes"/>
      <point x="211" y="776"/>
      <point x="202" y="774"/>
      <point x="197" y="772" type="curve" smooth="yes"/>
      <point x="170" y="764"/>
      <point x="143" y="758"/>
      <point x="115" y="754" type="curve" smooth="yes"/>
      <point x="88" y="750"/>
      <point x="56" y="745"/>
      <point x="32" y="740" type="curve" smooth="yes"/>
      <point x="25" y="739"/>
      <point x="17" y="734"/>
      <point x="17" y="726" type="curve" smooth="yes"/>
      <point x="17" y="718"/>
      <point x="25" y="710"/>
      <point x="33" y="710" type="curve" smooth="yes"/>
      <point x="51" y="710"/>
      <point x="69" y="715"/>
      <point x="87" y="715" type="curve" smooth="yes"/>
      <point x="102" y="715"/>
      <point x="103" y="696"/>
      <point x="103" y="685" type="curve" smooth="yes"/>
      <point x="103" y="42" type="line" smooth="yes"/>
      <point x="103" y="37"/>
      <point x="99" y="32"/>
      <point x="94" y="32" type="curve" smooth="yes"/>
      <point x="81" y="32"/>
      <point x="69" y="34"/>
      <point x="56" y="34" type="curve" smooth="yes"/>
      <point x="45" y="34"/>
      <point x="36" y="28"/>
      <point x="36" y="16" type="curve" smooth="yes"/>
      <point x="36" y="5"/>
      <point x="43" y="-3"/>
      <point x="55" y="-3" type="curve" smooth="yes"/>
      <point x="80" y="-3"/>
      <point x="106" y="1"/>
      <point x="131" y="1" type="curve" smooth="yes"/>
      <point x="193" y="1" type="line" smooth="yes"/>
      <point x="223" y="1"/>
      <point x="252" y="-2"/>
      <point x="282" y="-2" type="curve" smooth="yes"/>
      <point x="295" y="-2"/>
      <point x="302" y="5"/>
      <point x="302" y="17" type="curve" smooth="yes"/>
      <point x="302" y="25"/>
      <point x="291" y="35"/>
      <point x="283" y="35" type="curve" smooth="yes"/>
      <point x="270" y="35"/>
      <point x="258" y="32"/>
      <point x="245" y="32" type="curve" smooth="yes"/>
      <point x="238" y="32"/>
      <point x="234" y="35"/>
      <point x="234" y="42" type="curve" smooth="yes"/>
      <point x="234" y="409" type="line"/>
      <point x="250" y="446"/>
      <point x="302" y="503"/>
      <point x="345" y="503" type="curve" smooth="yes"/>
      <point x="376" y="503"/>
      <point x="392" y="495"/>
      <point x="403" y="466" type="curve" smooth="yes"/>
      <point x="416" y="434"/>
      <point x="417" y="386"/>
      <point x="417" y="351" type="curve" smooth="yes"/>
      <point x="417" y="249"/>
      <point x="416" y="147"/>
      <point x="416" y="46" type="curve" smooth="yes"/>
      <point x="416" y="39"/>
      <point x="412" y="31"/>
      <point x="404" y="31" type="curve" smooth="yes"/>
      <point x="391" y="31"/>
      <point x="379" y="33"/>
      <point x="366" y="33" type="curve" smooth="yes"/>
      <point x="353" y="33"/>
      <point x="346" y="27"/>
      <point x="346" y="14" type="curve" smooth="yes"/>
      <point x="346" y="6"/>
      <point x="358" y="-3"/>
      <point x="366" y="-3" type="curve" smooth="yes"/>
      <point x="396" y="-3"/>
      <point x="425" y="2"/>
      <point x="454" y="2" type="curve" smooth="yes"/>
      <point x="483" y="2"/>
      <point x="512" y="3"/>
      <point x="541" y="2" type="curve" smooth="yes"/>
      <point x="560" y="1"/>
      <point x="579" y="-2"/>
      <point x="598" y="-2" type="curve" smooth="yes"/>
      <point x="610" y="-2"/>
      <point x="618" y="5"/>
    </contour>
  </outline>
</glyph>
<glyph name="j" format="2">
  <advance height="1000" width="380"/>
  <unicode hex="006A"/>
  <note>
cid00075
</note>
  <outline>
    <contour>
      <point x="277" y="48" type="curve" smooth="yes"/>
      <point x="277" y="531" type="line" smooth="yes"/>
      <point x="277" y="540"/>
      <point x="269" y="544"/>
      <point x="260" y="544" type="curve" smooth="yes"/>
      <point x="256" y="544"/>
      <point x="252" y="544"/>
      <point x="248" y="543" type="curve" smooth="yes"/>
      <point x="204" y="533"/>
      <point x="161" y="524"/>
      <point x="116" y="517" type="curve" smooth="yes"/>
      <point x="98" y="514"/>
      <point x="79" y="512"/>
      <point x="62" y="509" type="curve" smooth="yes"/>
      <point x="52" y="507"/>
      <point x="47" y="502"/>
      <point x="47" y="491" type="curve" smooth="yes"/>
      <point x="47" y="480"/>
      <point x="54" y="476"/>
      <point x="64" y="476" type="curve" smooth="yes"/>
      <point x="79" y="476"/>
      <point x="104" y="481"/>
      <point x="122" y="481" type="curve" smooth="yes"/>
      <point x="139" y="481"/>
      <point x="137" y="458"/>
      <point x="137" y="447" type="curve" smooth="yes"/>
      <point x="137" y="255" type="line" smooth="yes"/>
      <point x="137" y="152"/>
      <point x="138" y="50"/>
      <point x="138" y="-52" type="curve" smooth="yes"/>
      <point x="138" y="-92"/>
      <point x="125" y="-149"/>
      <point x="71" y="-149" type="curve" smooth="yes"/>
      <point x="30" y="-149"/>
      <point x="25" y="-113"/>
      <point x="24" y="-81" type="curve"/>
      <point x="28" y="-55"/>
      <point x="18" y="-40"/>
      <point x="5" y="-40" type="curve" smooth="yes"/>
      <point x="-18" y="-40"/>
      <point x="-69" y="-65"/>
      <point x="-70" y="-99" type="curve" smooth="yes"/>
      <point x="-71" y="-129"/>
      <point x="-57" y="-140"/>
      <point x="-50" y="-148" type="curve" smooth="yes"/>
      <point x="-22" y="-181"/>
      <point x="30" y="-191"/>
      <point x="70" y="-191" type="curve" smooth="yes"/>
      <point x="145" y="-191"/>
      <point x="219" y="-160"/>
      <point x="253" y="-93" type="curve" smooth="yes"/>
      <point x="275" y="-50"/>
      <point x="277" y="1"/>
    </contour>
    <contour>
      <point x="275" y="700" type="curve" smooth="yes"/>
      <point x="275" y="744"/>
      <point x="240" y="779"/>
      <point x="196" y="779" type="curve" smooth="yes"/>
      <point x="152" y="779"/>
      <point x="117" y="744"/>
      <point x="117" y="700" type="curve" smooth="yes"/>
      <point x="117" y="656"/>
      <point x="152" y="621"/>
      <point x="196" y="621" type="curve" smooth="yes"/>
      <point x="240" y="621"/>
      <point x="275" y="656"/>
    </contour>
  </outline>
</glyph>
<glyph name="k" format="2">
  <advance height="1000" width="592"/>
  <unicode hex="006B"/>
  <note>
cid00076
</note>
  <outline>
    <contour>
      <point x="596" y="15" type="curve" smooth="yes"/>
      <point x="596" y="24"/>
      <point x="591" y="26"/>
      <point x="584" y="28" type="curve" smooth="yes"/>
      <point x="570" y="31"/>
      <point x="562" y="33"/>
      <point x="550" y="42" type="curve" smooth="yes"/>
      <point x="501" y="80"/>
      <point x="373" y="302"/>
      <point x="338" y="365" type="curve"/>
      <point x="386" y="405"/>
      <point x="433" y="450"/>
      <point x="483" y="487" type="curve" smooth="yes"/>
      <point x="498" y="498"/>
      <point x="521" y="506"/>
      <point x="539" y="506" type="curve" smooth="yes"/>
      <point x="553" y="506"/>
      <point x="564" y="507"/>
      <point x="564" y="524" type="curve" smooth="yes"/>
      <point x="564" y="535"/>
      <point x="556" y="538"/>
      <point x="546" y="538" type="curve" smooth="yes"/>
      <point x="443" y="538" type="line" smooth="yes"/>
      <point x="427" y="538"/>
      <point x="422" y="533"/>
      <point x="422" y="517" type="curve" smooth="yes"/>
      <point x="422" y="509"/>
      <point x="415" y="498"/>
      <point x="410" y="492" type="curve" smooth="yes"/>
      <point x="368" y="436"/>
      <point x="283" y="367"/>
      <point x="222" y="321" type="curve"/>
      <point x="222" y="468"/>
      <point x="224" y="615"/>
      <point x="224" y="762" type="curve" smooth="yes"/>
      <point x="224" y="772"/>
      <point x="215" y="775"/>
      <point x="206" y="775" type="curve" smooth="yes"/>
      <point x="202" y="775"/>
      <point x="198" y="775"/>
      <point x="194" y="774" type="curve" smooth="yes"/>
      <point x="156" y="765"/>
      <point x="119" y="755"/>
      <point x="81" y="748" type="curve" smooth="yes"/>
      <point x="64" y="745"/>
      <point x="47" y="744"/>
      <point x="31" y="740" type="curve" smooth="yes"/>
      <point x="23" y="739"/>
      <point x="18" y="735"/>
      <point x="18" y="726" type="curve" smooth="yes"/>
      <point x="18" y="714"/>
      <point x="26" y="711"/>
      <point x="37" y="711" type="curve" smooth="yes"/>
      <point x="47" y="711"/>
      <point x="63" y="714"/>
      <point x="76" y="714" type="curve" smooth="yes"/>
      <point x="84" y="714"/>
      <point x="88" y="709"/>
      <point x="91" y="702" type="curve" smooth="yes"/>
      <point x="96" y="689"/>
      <point x="96" y="626"/>
      <point x="96" y="608" type="curve" smooth="yes"/>
      <point x="96" y="455"/>
      <point x="96" y="302"/>
      <point x="96" y="150" type="curve" smooth="yes"/>
      <point x="96" y="135"/>
      <point x="96" y="46"/>
      <point x="92" y="39" type="curve" smooth="yes"/>
      <point x="89" y="34"/>
      <point x="87" y="32"/>
      <point x="81" y="32" type="curve" smooth="yes"/>
      <point x="68" y="32"/>
      <point x="56" y="33"/>
      <point x="43" y="33" type="curve" smooth="yes"/>
      <point x="33" y="33"/>
      <point x="24" y="27"/>
      <point x="24" y="16" type="curve" smooth="yes"/>
      <point x="24" y="8"/>
      <point x="31" y="-2"/>
      <point x="40" y="-2" type="curve" smooth="yes"/>
      <point x="79" y="-2"/>
      <point x="119" y="3"/>
      <point x="158" y="3" type="curve" smooth="yes"/>
      <point x="196" y="3"/>
      <point x="235" y="-2"/>
      <point x="273" y="-2" type="curve" smooth="yes"/>
      <point x="284" y="-2"/>
      <point x="292" y="5"/>
      <point x="292" y="15" type="curve" smooth="yes"/>
      <point x="292" y="26"/>
      <point x="286" y="33"/>
      <point x="275" y="33" type="curve" smooth="yes"/>
      <point x="263" y="33"/>
      <point x="250" y="32"/>
      <point x="238" y="32" type="curve" smooth="yes"/>
      <point x="223" y="32"/>
      <point x="223" y="41"/>
      <point x="223" y="52" type="curve" smooth="yes"/>
      <point x="223" y="283" type="line"/>
      <point x="242" y="297" type="line"/>
      <point x="288" y="211"/>
      <point x="337" y="126"/>
      <point x="386" y="41" type="curve" smooth="yes"/>
      <point x="395" y="25"/>
      <point x="407" y="9"/>
      <point x="426" y="3" type="curve" smooth="yes"/>
      <point x="442" y="-2"/>
      <point x="464" y="-2"/>
      <point x="481" y="-2" type="curve" smooth="yes"/>
      <point x="513" y="-2"/>
      <point x="544" y="-1"/>
      <point x="576" y="1" type="curve" smooth="yes"/>
      <point x="586" y="2"/>
      <point x="596" y="3"/>
    </contour>
  </outline>
</glyph>
<glyph name="l" format="2">
  <advance height="1000" width="346"/>
  <unicode hex="006C"/>
  <note>
cid00077
</note>
  <outline>
    <contour>
      <point x="325" y="15" type="curve" smooth="yes"/>
      <point x="325" y="26"/>
      <point x="319" y="33"/>
      <point x="308" y="33" type="curve" smooth="yes"/>
      <point x="295" y="33"/>
      <point x="282" y="32"/>
      <point x="269" y="32" type="curve" smooth="yes"/>
      <point x="255" y="32"/>
      <point x="249" y="43"/>
      <point x="249" y="55" type="curve" smooth="yes"/>
      <point x="249" y="290"/>
      <point x="251" y="524"/>
      <point x="251" y="760" type="curve" smooth="yes"/>
      <point x="251" y="770"/>
      <point x="241" y="774"/>
      <point x="232" y="774" type="curve" smooth="yes"/>
      <point x="227" y="774"/>
      <point x="222" y="773"/>
      <point x="218" y="772" type="curve" smooth="yes"/>
      <point x="178" y="763"/>
      <point x="132" y="749"/>
      <point x="96" y="741" type="curve" smooth="yes"/>
      <point x="80" y="738"/>
      <point x="61" y="734"/>
      <point x="44" y="730" type="curve" smooth="yes"/>
      <point x="36" y="729"/>
      <point x="28" y="724"/>
      <point x="28" y="715" type="curve" smooth="yes"/>
      <point x="28" y="705"/>
      <point x="33" y="697"/>
      <point x="44" y="698" type="curve" smooth="yes"/>
      <point x="62" y="700"/>
      <point x="81" y="705"/>
      <point x="93" y="705" type="curve" smooth="yes"/>
      <point x="112" y="705"/>
      <point x="113" y="681"/>
      <point x="113" y="668" type="curve" smooth="yes"/>
      <point x="113" y="54" type="line" smooth="yes"/>
      <point x="113" y="43"/>
      <point x="108" y="31"/>
      <point x="94" y="31" type="curve" smooth="yes"/>
      <point x="81" y="31"/>
      <point x="64" y="32"/>
      <point x="51" y="32" type="curve" smooth="yes"/>
      <point x="41" y="32"/>
      <point x="32" y="26"/>
      <point x="32" y="15" type="curve" smooth="yes"/>
      <point x="32" y="7"/>
      <point x="39" y="-3"/>
      <point x="48" y="-3" type="curve" smooth="yes"/>
      <point x="91" y="-3"/>
      <point x="138" y="2"/>
      <point x="181" y="2" type="curve" smooth="yes"/>
      <point x="222" y="2"/>
      <point x="265" y="-2"/>
      <point x="306" y="-2" type="curve" smooth="yes"/>
      <point x="317" y="-2"/>
      <point x="325" y="4"/>
    </contour>
  </outline>
</glyph>
<glyph name="m" format="2">
  <advance height="1000" width="920"/>
  <unicode hex="006D"/>
  <note>
cid00078
</note>
  <outline>
    <contour>
      <point x="896" y="13" type="curve" smooth="yes"/>
      <point x="896" y="24"/>
      <point x="890" y="31"/>
      <point x="879" y="31" type="curve" smooth="yes"/>
      <point x="868" y="31"/>
      <point x="858" y="30"/>
      <point x="847" y="30" type="curve" smooth="yes"/>
      <point x="833" y="30"/>
      <point x="832" y="42"/>
      <point x="832" y="53" type="curve" smooth="yes"/>
      <point x="834" y="358" type="line" smooth="yes"/>
      <point x="835" y="484"/>
      <point x="806" y="538"/>
      <point x="670" y="538" type="curve" smooth="yes"/>
      <point x="610" y="538"/>
      <point x="556" y="515"/>
      <point x="513" y="475" type="curve"/>
      <point x="487" y="518"/>
      <point x="435" y="537"/>
      <point x="386" y="537" type="curve" smooth="yes"/>
      <point x="326" y="537"/>
      <point x="277" y="516"/>
      <point x="232" y="479" type="curve"/>
      <point x="228" y="495"/>
      <point x="225" y="514"/>
      <point x="217" y="528" type="curve" smooth="yes"/>
      <point x="212" y="537"/>
      <point x="208" y="540"/>
      <point x="198" y="540" type="curve" smooth="yes"/>
      <point x="192" y="540"/>
      <point x="188" y="538"/>
      <point x="182" y="537" type="curve"/>
      <point x="153" y="528"/>
      <point x="119" y="520"/>
      <point x="89" y="514" type="curve" smooth="yes"/>
      <point x="72" y="511"/>
      <point x="54" y="510"/>
      <point x="37" y="505" type="curve" smooth="yes"/>
      <point x="29" y="503"/>
      <point x="22" y="499"/>
      <point x="22" y="490" type="curve" smooth="yes"/>
      <point x="22" y="479"/>
      <point x="32" y="475"/>
      <point x="42" y="475" type="curve" smooth="yes"/>
      <point x="56" y="475"/>
      <point x="71" y="478"/>
      <point x="85" y="478" type="curve" smooth="yes"/>
      <point x="104" y="478"/>
      <point x="103" y="456"/>
      <point x="103" y="443" type="curve" smooth="yes"/>
      <point x="103" y="317"/>
      <point x="104" y="191"/>
      <point x="104" y="66" type="curve" smooth="yes"/>
      <point x="104" y="54"/>
      <point x="105" y="30"/>
      <point x="88" y="30" type="curve" smooth="yes"/>
      <point x="77" y="30"/>
      <point x="66" y="31"/>
      <point x="55" y="31" type="curve" smooth="yes"/>
      <point x="45" y="31"/>
      <point x="36" y="25"/>
      <point x="36" y="14" type="curve" smooth="yes"/>
      <point x="36" y="6"/>
      <point x="43" y="-4"/>
      <point x="52" y="-4" type="curve" smooth="yes"/>
      <point x="91" y="-4"/>
      <point x="131" y="1"/>
      <point x="170" y="1" type="curve" smooth="yes"/>
      <point x="208" y="1"/>
      <point x="245" y="-4"/>
      <point x="283" y="-4" type="curve" smooth="yes"/>
      <point x="294" y="-4"/>
      <point x="302" y="2"/>
      <point x="302" y="13" type="curve" smooth="yes"/>
      <point x="302" y="24"/>
      <point x="296" y="31"/>
      <point x="285" y="31" type="curve" smooth="yes"/>
      <point x="276" y="31"/>
      <point x="267" y="29"/>
      <point x="258" y="29" type="curve" smooth="yes"/>
      <point x="243" y="29"/>
      <point x="239" y="38"/>
      <point x="239" y="53" type="curve" smooth="yes"/>
      <point x="239" y="179"/>
      <point x="240" y="306"/>
      <point x="240" y="433" type="curve"/>
      <point x="255" y="452"/>
      <point x="304" y="498"/>
      <point x="329" y="498" type="curve" smooth="yes"/>
      <point x="360" y="498"/>
      <point x="374" y="493"/>
      <point x="386" y="463" type="curve" smooth="yes"/>
      <point x="399" y="431"/>
      <point x="399" y="382"/>
      <point x="399" y="348" type="curve" smooth="yes"/>
      <point x="399" y="249"/>
      <point x="400" y="151"/>
      <point x="400" y="53" type="curve" smooth="yes"/>
      <point x="400" y="38"/>
      <point x="399" y="29"/>
      <point x="383" y="29" type="curve" smooth="yes"/>
      <point x="369" y="29"/>
      <point x="335" y="36"/>
      <point x="335" y="14" type="curve" smooth="yes"/>
      <point x="335" y="6"/>
      <point x="342" y="-4"/>
      <point x="351" y="-4" type="curve" smooth="yes"/>
      <point x="389" y="-4"/>
      <point x="427" y="1"/>
      <point x="465" y="1" type="curve" smooth="yes"/>
      <point x="502" y="1"/>
      <point x="539" y="-4"/>
      <point x="576" y="-4" type="curve" smooth="yes"/>
      <point x="588" y="-4"/>
      <point x="595" y="2"/>
      <point x="595" y="13" type="curve" smooth="yes"/>
      <point x="595" y="24"/>
      <point x="589" y="31"/>
      <point x="578" y="31" type="curve" smooth="yes"/>
      <point x="569" y="31"/>
      <point x="560" y="29"/>
      <point x="551" y="29" type="curve" smooth="yes"/>
      <point x="535" y="29"/>
      <point x="533" y="39"/>
      <point x="533" y="53" type="curve" smooth="yes"/>
      <point x="533" y="358" type="line" smooth="yes"/>
      <point x="533" y="385"/>
      <point x="533" y="412"/>
      <point x="529" y="438" type="curve"/>
      <point x="549" y="464"/>
      <point x="594" y="500"/>
      <point x="630" y="500" type="curve" smooth="yes"/>
      <point x="660" y="500"/>
      <point x="673" y="490"/>
      <point x="684" y="463" type="curve" smooth="yes"/>
      <point x="698" y="431"/>
      <point x="697" y="383"/>
      <point x="697" y="348" type="curve" smooth="yes"/>
      <point x="695" y="46" type="line" smooth="yes"/>
      <point x="695" y="36"/>
      <point x="694" y="30"/>
      <point x="682" y="30" type="curve" smooth="yes"/>
      <point x="672" y="30"/>
      <point x="661" y="31"/>
      <point x="651" y="31" type="curve" smooth="yes"/>
      <point x="640" y="31"/>
      <point x="630" y="27"/>
      <point x="630" y="14" type="curve" smooth="yes"/>
      <point x="630" y="6"/>
      <point x="637" y="-4"/>
      <point x="646" y="-4" type="curve" smooth="yes"/>
      <point x="685" y="-4"/>
      <point x="723" y="1"/>
      <point x="762" y="1" type="curve" smooth="yes"/>
      <point x="800" y="1"/>
      <point x="839" y="-4"/>
      <point x="877" y="-4" type="curve" smooth="yes"/>
      <point x="888" y="-4"/>
      <point x="896" y="2"/>
    </contour>
  </outline>
</glyph>
<glyph name="n" format="2">
  <advance height="1000" width="632"/>
  <unicode hex="006E"/>
  <note>
cid00079
</note>
  <outline>
    <contour>
      <point x="613" y="14" type="curve" smooth="yes"/>
      <point x="613" y="25"/>
      <point x="606" y="31"/>
      <point x="596" y="31" type="curve" smooth="yes"/>
      <point x="589" y="31"/>
      <point x="582" y="30"/>
      <point x="575" y="30" type="curve" smooth="yes"/>
      <point x="561" y="30"/>
      <point x="549" y="30"/>
      <point x="549" y="47" type="curve" smooth="yes"/>
      <point x="549" y="151"/>
      <point x="551" y="255"/>
      <point x="551" y="359" type="curve" smooth="yes"/>
      <point x="551" y="490"/>
      <point x="511" y="537"/>
      <point x="375" y="537" type="curve" smooth="yes"/>
      <point x="323" y="537"/>
      <point x="261" y="508"/>
      <point x="222" y="475" type="curve"/>
      <point x="218" y="490"/>
      <point x="208" y="542"/>
      <point x="189" y="542" type="curve" smooth="yes"/>
      <point x="180" y="542"/>
      <point x="89" y="516"/>
      <point x="69" y="512" type="curve" smooth="yes"/>
      <point x="55" y="510"/>
      <point x="40" y="510"/>
      <point x="27" y="506" type="curve" smooth="yes"/>
      <point x="19" y="504"/>
      <point x="12" y="500"/>
      <point x="12" y="491" type="curve" smooth="yes"/>
      <point x="12" y="479"/>
      <point x="27" y="477"/>
      <point x="36" y="477" type="curve" smooth="yes"/>
      <point x="49" y="477"/>
      <point x="62" y="479"/>
      <point x="75" y="479" type="curve" smooth="yes"/>
      <point x="93" y="479"/>
      <point x="93" y="460"/>
      <point x="93" y="447" type="curve" smooth="yes"/>
      <point x="93" y="53" type="line" smooth="yes"/>
      <point x="93" y="37"/>
      <point x="93" y="30"/>
      <point x="77" y="30" type="curve" smooth="yes"/>
      <point x="65" y="30"/>
      <point x="53" y="32"/>
      <point x="41" y="32" type="curve" smooth="yes"/>
      <point x="30" y="32"/>
      <point x="22" y="25"/>
      <point x="22" y="14" type="curve" smooth="yes"/>
      <point x="22" y="6"/>
      <point x="29" y="-3"/>
      <point x="38" y="-3" type="curve" smooth="yes"/>
      <point x="79" y="-3"/>
      <point x="120" y="1"/>
      <point x="161" y="1" type="curve" smooth="yes"/>
      <point x="198" y="1"/>
      <point x="236" y="-3"/>
      <point x="273" y="-3" type="curve" smooth="yes"/>
      <point x="285" y="-3"/>
      <point x="292" y="5"/>
      <point x="292" y="16" type="curve" smooth="yes"/>
      <point x="292" y="25"/>
      <point x="282" y="31"/>
      <point x="274" y="31" type="curve" smooth="yes"/>
      <point x="263" y="31"/>
      <point x="252" y="30"/>
      <point x="241" y="30" type="curve" smooth="yes"/>
      <point x="227" y="30"/>
      <point x="228" y="43"/>
      <point x="228" y="53" type="curve" smooth="yes"/>
      <point x="228" y="408" type="line"/>
      <point x="244" y="444"/>
      <point x="296" y="501"/>
      <point x="339" y="501" type="curve" smooth="yes"/>
      <point x="406" y="501"/>
      <point x="411" y="427"/>
      <point x="411" y="378" type="curve" smooth="yes"/>
      <point x="411" y="42" type="line" smooth="yes"/>
      <point x="411" y="35"/>
      <point x="407" y="30"/>
      <point x="399" y="30" type="curve" smooth="yes"/>
      <point x="387" y="30"/>
      <point x="375" y="32"/>
      <point x="363" y="32" type="curve" smooth="yes"/>
      <point x="352" y="32"/>
      <point x="344" y="25"/>
      <point x="344" y="14" type="curve" smooth="yes"/>
      <point x="344" y="6"/>
      <point x="351" y="-3"/>
      <point x="360" y="-3" type="curve" smooth="yes"/>
      <point x="398" y="-3"/>
      <point x="438" y="0"/>
      <point x="476" y="0" type="curve" smooth="yes"/>
      <point x="515" y="0"/>
      <point x="555" y="-3"/>
      <point x="594" y="-3" type="curve" smooth="yes"/>
      <point x="606" y="-3"/>
      <point x="613" y="3"/>
    </contour>
  </outline>
</glyph>
<glyph name="o" format="2">
  <advance height="1000" width="620"/>
  <unicode hex="006F"/>
  <note>
cid00080
</note>
  <outline>
    <contour>
      <point x="432" y="264" type="curve" smooth="yes"/>
      <point x="432" y="186"/>
      <point x="423" y="26"/>
      <point x="312" y="26" type="curve" smooth="yes"/>
      <point x="195" y="26"/>
      <point x="182" y="189"/>
      <point x="182" y="272" type="curve" smooth="yes"/>
      <point x="182" y="348"/>
      <point x="198" y="511"/>
      <point x="304" y="511" type="curve" smooth="yes"/>
      <point x="420" y="511"/>
      <point x="432" y="347"/>
    </contour>
    <contour>
      <point x="577" y="259" type="curve" smooth="yes"/>
      <point x="577" y="425"/>
      <point x="490" y="542"/>
      <point x="311" y="542" type="curve" smooth="yes"/>
      <point x="147" y="542"/>
      <point x="43" y="420"/>
      <point x="43" y="265" type="curve" smooth="yes"/>
      <point x="43" y="115"/>
      <point x="149" y="-5"/>
      <point x="307" y="-5" type="curve" smooth="yes"/>
      <point x="464" y="-5"/>
      <point x="577" y="107"/>
    </contour>
  </outline>
</glyph>
<glyph name="p" format="2">
  <advance height="1000" width="608"/>
  <unicode hex="0070"/>
  <note>
cid00081
</note>
  <outline>
    <contour>
      <point x="428" y="281" type="curve" smooth="yes"/>
      <point x="428" y="200"/>
      <point x="431" y="34"/>
      <point x="311" y="34" type="curve" smooth="yes"/>
      <point x="251" y="34"/>
      <point x="227" y="110"/>
      <point x="227" y="157" type="curve" smooth="yes"/>
      <point x="227" y="413" type="line"/>
      <point x="247" y="455"/>
      <point x="277" y="491"/>
      <point x="329" y="491" type="curve" smooth="yes"/>
      <point x="423" y="491"/>
      <point x="428" y="345"/>
    </contour>
    <contour>
      <point x="571" y="280" type="curve" smooth="yes"/>
      <point x="571" y="404"/>
      <point x="485" y="529"/>
      <point x="348" y="529" type="curve" smooth="yes"/>
      <point x="318" y="529"/>
      <point x="253" y="506"/>
      <point x="218" y="485" type="curve"/>
      <point x="214" y="498"/>
      <point x="207" y="540"/>
      <point x="189" y="540" type="curve" smooth="yes"/>
      <point x="183" y="540"/>
      <point x="177" y="538"/>
      <point x="171" y="536" type="curve" smooth="yes"/>
      <point x="140" y="526"/>
      <point x="107" y="518"/>
      <point x="74" y="512" type="curve" smooth="yes"/>
      <point x="59" y="509"/>
      <point x="42" y="509"/>
      <point x="28" y="505" type="curve" smooth="yes"/>
      <point x="20" y="502"/>
      <point x="13" y="499"/>
      <point x="13" y="490" type="curve" smooth="yes"/>
      <point x="13" y="478"/>
      <point x="28" y="475"/>
      <point x="37" y="475" type="curve" smooth="yes"/>
      <point x="50" y="475"/>
      <point x="63" y="477"/>
      <point x="76" y="477" type="curve" smooth="yes"/>
      <point x="95" y="477"/>
      <point x="94" y="454"/>
      <point x="94" y="441" type="curve" smooth="yes"/>
      <point x="94" y="249"/>
      <point x="93" y="55"/>
      <point x="93" y="-138" type="curve" smooth="yes"/>
      <point x="93" y="-149"/>
      <point x="89" y="-161"/>
      <point x="75" y="-161" type="curve" smooth="yes"/>
      <point x="65" y="-161"/>
      <point x="54" y="-160"/>
      <point x="44" y="-160" type="curve" smooth="yes"/>
      <point x="33" y="-160"/>
      <point x="26" y="-165"/>
      <point x="26" y="-176" type="curve" smooth="yes"/>
      <point x="26" y="-185"/>
      <point x="32" y="-194"/>
      <point x="42" y="-194" type="curve" smooth="yes"/>
      <point x="81" y="-194"/>
      <point x="121" y="-189"/>
      <point x="160" y="-189" type="curve" smooth="yes"/>
      <point x="198" y="-189"/>
      <point x="235" y="-194"/>
      <point x="273" y="-194" type="curve" smooth="yes"/>
      <point x="284" y="-194"/>
      <point x="291" y="-188"/>
      <point x="291" y="-177" type="curve" smooth="yes"/>
      <point x="291" y="-154"/>
      <point x="257" y="-161"/>
      <point x="241" y="-161" type="curve" smooth="yes"/>
      <point x="227" y="-161"/>
      <point x="226" y="-146"/>
      <point x="226" y="-136" type="curve" smooth="yes"/>
      <point x="226" y="33" type="line"/>
      <point x="250" y="19"/>
      <point x="286" y="4"/>
      <point x="314" y="4" type="curve" smooth="yes"/>
      <point x="490" y="4"/>
      <point x="571" y="119"/>
    </contour>
  </outline>
</glyph>
<glyph name="q" format="2">
  <advance height="1000" width="608"/>
  <unicode hex="0071"/>
  <note>
cid00082
</note>
  <outline>
    <contour>
      <point x="397" y="364" type="curve" smooth="yes"/>
      <point x="397" y="153" type="line" smooth="yes"/>
      <point x="397" y="101"/>
      <point x="352" y="41"/>
      <point x="295" y="41" type="curve" smooth="yes"/>
      <point x="209" y="41"/>
      <point x="176" y="176"/>
      <point x="176" y="258" type="curve" smooth="yes"/>
      <point x="176" y="353"/>
      <point x="201" y="503"/>
      <point x="299" y="503" type="curve" smooth="yes"/>
      <point x="372" y="503"/>
      <point x="397" y="422"/>
    </contour>
    <contour>
      <point x="598" y="-174" type="curve" smooth="yes"/>
      <point x="598" y="-164"/>
      <point x="592" y="-157"/>
      <point x="581" y="-157" type="curve" smooth="yes"/>
      <point x="572" y="-157"/>
      <point x="562" y="-159"/>
      <point x="553" y="-159" type="curve" smooth="yes"/>
      <point x="542" y="-159"/>
      <point x="533" y="-152"/>
      <point x="533" y="-141" type="curve" smooth="yes"/>
      <point x="533" y="314" type="line"/>
      <point x="534" y="516" type="line" smooth="yes"/>
      <point x="534" y="527"/>
      <point x="529" y="533"/>
      <point x="519" y="533" type="curve" smooth="yes"/>
      <point x="505" y="533"/>
      <point x="454" y="498"/>
      <point x="434" y="482" type="curve"/>
      <point x="409" y="510"/>
      <point x="352" y="530"/>
      <point x="311" y="530" type="curve" smooth="yes"/>
      <point x="134" y="530"/>
      <point x="38" y="415"/>
      <point x="38" y="252" type="curve" smooth="yes"/>
      <point x="38" y="167"/>
      <point x="73" y="85"/>
      <point x="145" y="35" type="curve" smooth="yes"/>
      <point x="178" y="12"/>
      <point x="236" y="4"/>
      <point x="277" y="4" type="curve" smooth="yes"/>
      <point x="322" y="4"/>
      <point x="368" y="19"/>
      <point x="398" y="52" type="curve"/>
      <point x="398" y="-135" type="line" smooth="yes"/>
      <point x="398" y="-146"/>
      <point x="387" y="-158"/>
      <point x="373" y="-158" type="curve" smooth="yes"/>
      <point x="363" y="-158"/>
      <point x="352" y="-157"/>
      <point x="342" y="-157" type="curve" smooth="yes"/>
      <point x="331" y="-157"/>
      <point x="323" y="-162"/>
      <point x="323" y="-173" type="curve" smooth="yes"/>
      <point x="323" y="-182"/>
      <point x="329" y="-191"/>
      <point x="339" y="-191" type="curve" smooth="yes"/>
      <point x="378" y="-191"/>
      <point x="426" y="-188"/>
      <point x="465" y="-188" type="curve" smooth="yes"/>
      <point x="502" y="-188"/>
      <point x="542" y="-191"/>
      <point x="579" y="-191" type="curve" smooth="yes"/>
      <point x="590" y="-191"/>
      <point x="598" y="-185"/>
    </contour>
  </outline>
</glyph>
<glyph name="r" format="2">
  <advance height="1000" width="444"/>
  <unicode hex="0072"/>
  <note>
cid00083
</note>
  <outline>
    <contour>
      <point x="442" y="417" type="curve" smooth="yes"/>
      <point x="442" y="430"/>
      <point x="438" y="491"/>
      <point x="434" y="516" type="curve" smooth="yes"/>
      <point x="430" y="538"/>
      <point x="399" y="542"/>
      <point x="380" y="542" type="curve" smooth="yes"/>
      <point x="317" y="542"/>
      <point x="267" y="500"/>
      <point x="222" y="444" type="curve"/>
      <point x="221" y="459"/>
      <point x="216" y="518"/>
      <point x="210" y="528" type="curve" smooth="yes"/>
      <point x="204" y="537"/>
      <point x="195" y="539"/>
      <point x="185" y="539" type="curve" smooth="yes"/>
      <point x="158" y="539"/>
      <point x="106" y="523"/>
      <point x="77" y="516" type="curve" smooth="yes"/>
      <point x="58" y="512"/>
      <point x="38" y="510"/>
      <point x="19" y="505" type="curve" smooth="yes"/>
      <point x="9" y="503"/>
      <point x="6" y="499"/>
      <point x="6" y="489" type="curve" smooth="yes"/>
      <point x="6" y="478"/>
      <point x="13" y="473"/>
      <point x="24" y="473" type="curve" smooth="yes"/>
      <point x="38" y="473"/>
      <point x="51" y="478"/>
      <point x="64" y="478" type="curve" smooth="yes"/>
      <point x="92" y="478"/>
      <point x="93" y="434"/>
      <point x="93" y="414" type="curve" smooth="yes"/>
      <point x="93" y="56" type="line" smooth="yes"/>
      <point x="93" y="44"/>
      <point x="91" y="32"/>
      <point x="76" y="32" type="curve" smooth="yes"/>
      <point x="63" y="32"/>
      <point x="50" y="33"/>
      <point x="37" y="33" type="curve" smooth="yes"/>
      <point x="27" y="33"/>
      <point x="18" y="27"/>
      <point x="18" y="16" type="curve" smooth="yes"/>
      <point x="18" y="8"/>
      <point x="24" y="-2"/>
      <point x="34" y="-2" type="curve" smooth="yes"/>
      <point x="76" y="-2"/>
      <point x="117" y="1"/>
      <point x="159" y="1" type="curve" smooth="yes"/>
      <point x="199" y="1"/>
      <point x="239" y="-2"/>
      <point x="279" y="-2" type="curve" smooth="yes"/>
      <point x="291" y="-2"/>
      <point x="298" y="4"/>
      <point x="298" y="15" type="curve" smooth="yes"/>
      <point x="298" y="28"/>
      <point x="290" y="32"/>
      <point x="280" y="32" type="curve" smooth="yes"/>
      <point x="270" y="32"/>
      <point x="259" y="31"/>
      <point x="246" y="31" type="curve" smooth="yes"/>
      <point x="234" y="31"/>
      <point x="227" y="37"/>
      <point x="227" y="55" type="curve" smooth="yes"/>
      <point x="227" y="322" type="line" smooth="yes"/>
      <point x="227" y="373"/>
      <point x="260" y="434"/>
      <point x="302" y="464" type="curve" smooth="yes"/>
      <point x="312" y="470"/>
      <point x="323" y="477"/>
      <point x="335" y="477" type="curve" smooth="yes"/>
      <point x="367" y="477"/>
      <point x="380" y="429"/>
      <point x="391" y="404" type="curve" smooth="yes"/>
      <point x="396" y="393"/>
      <point x="405" y="390"/>
      <point x="417" y="390" type="curve" smooth="yes"/>
      <point x="433" y="390"/>
      <point x="442" y="403"/>
    </contour>
  </outline>
</glyph>
<glyph name="s" format="2">
  <advance height="1000" width="446"/>
  <unicode hex="0073"/>
  <note>
cid00084
</note>
  <outline>
    <contour>
      <point x="422" y="144" type="curve" smooth="yes"/>
      <point x="422" y="194"/>
      <point x="390" y="234"/>
      <point x="344" y="264" type="curve" smooth="yes"/>
      <point x="302" y="291"/>
      <point x="252" y="314"/>
      <point x="216" y="333" type="curve" smooth="yes"/>
      <point x="186" y="349"/>
      <point x="155" y="378"/>
      <point x="155" y="415" type="curve" smooth="yes"/>
      <point x="155" y="452"/>
      <point x="182" y="505"/>
      <point x="232" y="505" type="curve" smooth="yes"/>
      <point x="297" y="505"/>
      <point x="318" y="467"/>
      <point x="331" y="431" type="curve" smooth="yes"/>
      <point x="343" y="396"/>
      <point x="346" y="372"/>
      <point x="372" y="372" type="curve" smooth="yes"/>
      <point x="386" y="372"/>
      <point x="396" y="382"/>
      <point x="396" y="396" type="curve" smooth="yes"/>
      <point x="396" y="414"/>
      <point x="387" y="478"/>
      <point x="384" y="519" type="curve"/>
      <point x="375" y="514"/>
      <point x="365" y="515"/>
      <point x="354" y="515" type="curve" smooth="yes"/>
      <point x="344" y="515"/>
      <point x="322" y="520"/>
      <point x="311" y="524" type="curve" smooth="yes"/>
      <point x="286" y="534"/>
      <point x="257" y="538"/>
      <point x="230" y="538" type="curve" smooth="yes"/>
      <point x="138" y="538"/>
      <point x="38" y="494"/>
      <point x="38" y="393" type="curve" smooth="yes"/>
      <point x="38" y="285"/>
      <point x="150" y="251"/>
      <point x="226" y="206" type="curve" smooth="yes"/>
      <point x="265" y="183"/>
      <point x="294" y="157"/>
      <point x="294" y="117" type="curve" smooth="yes"/>
      <point x="294" y="59"/>
      <point x="268" y="31"/>
      <point x="209" y="31" type="curve" smooth="yes"/>
      <point x="183" y="31"/>
      <point x="140" y="57"/>
      <point x="123" y="75" type="curve" smooth="yes"/>
      <point x="99" y="101"/>
      <point x="88" y="128"/>
      <point x="72" y="161" type="curve" smooth="yes"/>
      <point x="68" y="170"/>
      <point x="61" y="171"/>
      <point x="51" y="171" type="curve" smooth="yes"/>
      <point x="38" y="171"/>
      <point x="27" y="167"/>
      <point x="27" y="153" type="curve" smooth="yes"/>
      <point x="27" y="147"/>
      <point x="29" y="137"/>
      <point x="32" y="125" type="curve" smooth="yes"/>
      <point x="42" y="89"/>
      <point x="54" y="42"/>
      <point x="58" y="20" type="curve"/>
      <point x="72" y="19"/>
      <point x="88" y="15"/>
      <point x="103" y="12" type="curve" smooth="yes"/>
      <point x="134" y="5"/>
      <point x="169" y="-4"/>
      <point x="201" y="-4" type="curve" smooth="yes"/>
      <point x="305" y="-4"/>
      <point x="422" y="21"/>
    </contour>
  </outline>
</glyph>
